M48
INCH,TZ
T1C0.016
T2C0.039
T3C0.040
T4C0.043
%
G90
G05
T1
X44100Y-38900
X44600Y-38900
X45100Y-38900
X45600Y-38900
X46600Y-39513
X46700Y-43700
X46700Y-44300
X47100Y-41300
X47100Y-41900
X47300Y-43700
X47300Y-44300
X47500Y-42300
X48000Y-42600
X48600Y-42600
X50271Y-34752
X50400Y-37000
X51000Y-44300
X51260Y-38197
X51500Y-44300
X51894Y-38833
X51910Y-35380
X52096Y-36397
X52291Y-36109
X52526Y-34283
X52574Y-35696
X52750Y-41500
X52800Y-37100
X53247Y-38654
X53756Y-35396
X54000Y-36250
X54074Y-41234
X54102Y-33440
X54348Y-34300
X54400Y-39200
X54767Y-40600
X54921Y-32553
X55180Y-35710
X55180Y-36025
X55180Y-36340
X55545Y-40800
X56000Y-43000
X56418Y-36764
X56454Y-40800
X56600Y-43000
X56910Y-36506
X57146Y-37045
X57200Y-43000
X57375Y-37350
X57640Y-37760
X57740Y-38950
X57750Y-42397
X57900Y-43000
X58097Y-37300
X59701Y-42695
X60500Y-38900
X61500Y-38900
X61500Y-40000
X61500Y-40700
X61700Y-41500
T2
X45000Y-37980
X45382Y-37057
X46680Y-35170
X47387Y-34463
X49320Y-33190
X50243Y-32808
X52509Y-32320
X53509Y-32320
X55770Y-32780
X56693Y-33162
X58623Y-34433
X59330Y-35140
X60617Y-37076
X61000Y-38000
T3
X44650Y-39500
X44650Y-40500
X44650Y-41500
X45650Y-39500
X45650Y-40500
X45650Y-41500
X47950Y-36600
X47950Y-37600
X47950Y-38600
X47950Y-39600
X48300Y-43800
X48950Y-36600
X48950Y-37600
X48950Y-38600
X48950Y-39600
X49300Y-43800
X50300Y-43800
X52300Y-43800
X53300Y-43800
X54300Y-43800
X56400Y-43800
X57400Y-43800
X58400Y-43800
X59400Y-43800
X60400Y-43800
X61400Y-43800
T4
X45200Y-42900
X45200Y-43900
T0
M30
