G04 #@! TF.FileFunction,Paste,Top*
%FSLAX46Y46*%
G04 Gerber Fmt 4.6, Leading zero omitted, Abs format (unit mm)*
G04 Created by KiCad (PCBNEW (2015-05-28 BZR 5690)-product) date Thursday, June 25, 2015 'AMt' 09:08:00 AM*
%MOMM*%
G01*
G04 APERTURE LIST*
%ADD10C,0.100000*%
%ADD11R,0.750000X0.800000*%
%ADD12R,0.800000X0.750000*%
%ADD13R,0.797560X0.797560*%
%ADD14R,0.550000X1.600000*%
%ADD15R,1.600000X0.550000*%
%ADD16R,0.900000X0.500000*%
%ADD17R,0.500000X0.900000*%
%ADD18R,0.800100X0.800100*%
%ADD19R,0.630000X0.450000*%
%ADD20R,0.510000X0.780000*%
%ADD21R,3.657600X2.032000*%
%ADD22R,1.016000X2.032000*%
%ADD23R,1.200000X1.400000*%
G04 APERTURE END LIST*
D10*
D11*
X155956000Y-108369800D03*
X155956000Y-106869800D03*
D12*
X134505000Y-85725000D03*
X136005000Y-85725000D03*
D11*
X139446000Y-99072000D03*
X139446000Y-100572000D03*
D12*
X124194000Y-89916000D03*
X122694000Y-89916000D03*
X141109000Y-101879400D03*
X142609000Y-101879400D03*
X140728000Y-86360000D03*
X142228000Y-86360000D03*
D11*
X142087600Y-106287000D03*
X142087600Y-104787000D03*
X139700000Y-106287000D03*
X139700000Y-104787000D03*
X129463800Y-104710800D03*
X129463800Y-106210800D03*
X127076200Y-104710800D03*
X127076200Y-106210800D03*
D13*
X153428700Y-102489000D03*
X154927300Y-102489000D03*
X153428700Y-100558600D03*
X154927300Y-100558600D03*
D14*
X137420000Y-88460000D03*
X136620000Y-88460000D03*
X135820000Y-88460000D03*
X135020000Y-88460000D03*
X134220000Y-88460000D03*
X133420000Y-88460000D03*
X132620000Y-88460000D03*
X131820000Y-88460000D03*
D15*
X130370000Y-89910000D03*
X130370000Y-90710000D03*
X130370000Y-91510000D03*
X130370000Y-92310000D03*
X130370000Y-93110000D03*
X130370000Y-93910000D03*
X130370000Y-94710000D03*
X130370000Y-95510000D03*
D14*
X131820000Y-96960000D03*
X132620000Y-96960000D03*
X133420000Y-96960000D03*
X134220000Y-96960000D03*
X135020000Y-96960000D03*
X135820000Y-96960000D03*
X136620000Y-96960000D03*
X137420000Y-96960000D03*
D15*
X138870000Y-95510000D03*
X138870000Y-94710000D03*
X138870000Y-93910000D03*
X138870000Y-93110000D03*
X138870000Y-92310000D03*
X138870000Y-91510000D03*
X138870000Y-90710000D03*
X138870000Y-89910000D03*
D16*
X147828000Y-104890000D03*
X147828000Y-103390000D03*
X147828000Y-101334000D03*
X147828000Y-99834000D03*
X147828000Y-97778000D03*
X147828000Y-96278000D03*
X153162000Y-108446000D03*
X153162000Y-106946000D03*
D17*
X142482000Y-96342200D03*
X140982000Y-96342200D03*
D16*
X141351000Y-90285000D03*
X141351000Y-88785000D03*
D17*
X142482000Y-94513400D03*
X140982000Y-94513400D03*
D18*
X141036040Y-98160800D03*
X141036040Y-100060800D03*
X143035020Y-99110800D03*
D19*
X146037000Y-90373000D03*
X146037000Y-89423000D03*
X146037000Y-88473000D03*
X143357000Y-88473000D03*
X143357000Y-89423000D03*
X143357000Y-90373000D03*
D20*
X144272000Y-88773000D03*
X144272000Y-90073000D03*
X145122000Y-88773000D03*
X145122000Y-90073000D03*
D21*
X134620000Y-100330000D03*
D22*
X134620000Y-106934000D03*
X136906000Y-106934000D03*
X132334000Y-106934000D03*
D23*
X132245000Y-86444000D03*
X132245000Y-84244000D03*
X130645000Y-86444000D03*
X130645000Y-84244000D03*
D13*
X153428700Y-104394000D03*
X154927300Y-104394000D03*
M02*
