G04 #@! TF.FileFunction,Legend,Bot*
%FSLAX46Y46*%
G04 Gerber Fmt 4.6, Leading zero omitted, Abs format (unit mm)*
G04 Created by KiCad (PCBNEW (2015-05-28 BZR 5690)-product) date Thursday, June 25, 2015 'AMt' 09:08:00 AM*
%MOMM*%
G01*
G04 APERTURE LIST*
%ADD10C,0.100000*%
%ADD11C,0.150000*%
G04 APERTURE END LIST*
D10*
D11*
X137061500Y-100172000D02*
X137061500Y-99472000D01*
X135861500Y-99472000D02*
X135861500Y-100172000D01*
X117221000Y-99060000D02*
X117221000Y-104140000D01*
X117501000Y-106960000D02*
X117501000Y-105410000D01*
X114681000Y-106680000D02*
X114681000Y-104140000D01*
X114681000Y-104140000D02*
X117221000Y-104140000D01*
X117221000Y-99060000D02*
X112141000Y-99060000D01*
X112141000Y-99060000D02*
X112141000Y-104140000D01*
X117501000Y-106960000D02*
X115951000Y-106960000D01*
X112141000Y-106680000D02*
X114681000Y-106680000D01*
X112141000Y-104140000D02*
X112141000Y-106680000D01*
X153132840Y-105775760D02*
X153181100Y-105775760D01*
X155931820Y-106476800D02*
X155931820Y-105775760D01*
X155931820Y-105775760D02*
X155682900Y-105775760D01*
X153132840Y-105775760D02*
X152932180Y-105775760D01*
X152932180Y-105775760D02*
X152932180Y-106476800D01*
X138978000Y-105656000D02*
X138978000Y-104656000D01*
X137628000Y-104656000D02*
X137628000Y-105656000D01*
X126325000Y-92718000D02*
X126325000Y-93718000D01*
X127675000Y-93718000D02*
X127675000Y-92718000D01*
X152135200Y-105185400D02*
X152135200Y-104185400D01*
X150785200Y-104185400D02*
X150785200Y-105185400D01*
X117483000Y-94782000D02*
X118483000Y-94782000D01*
X118483000Y-93432000D02*
X117483000Y-93432000D01*
X121499000Y-89543000D02*
X121499000Y-90543000D01*
X122849000Y-90543000D02*
X122849000Y-89543000D01*
X127849000Y-86241000D02*
X127849000Y-87241000D01*
X129199000Y-87241000D02*
X129199000Y-86241000D01*
X135265800Y-84463000D02*
X135265800Y-85463000D01*
X136615800Y-85463000D02*
X136615800Y-84463000D01*
X141852013Y-86241000D02*
X141852013Y-87241000D01*
X143202013Y-87241000D02*
X143202013Y-86241000D01*
X137144200Y-107553600D02*
X136999200Y-107553600D01*
X137144200Y-103403600D02*
X136999200Y-103403600D01*
X131994200Y-103403600D02*
X132139200Y-103403600D01*
X131994200Y-107553600D02*
X132139200Y-107553600D01*
X137144200Y-107553600D02*
X137144200Y-103403600D01*
X131994200Y-107553600D02*
X131994200Y-103403600D01*
X136999200Y-107553600D02*
X136999200Y-108953600D01*
X147153000Y-89543000D02*
X147153000Y-90543000D01*
X148503000Y-90543000D02*
X148503000Y-89543000D01*
X152392000Y-95845000D02*
X151392000Y-95845000D01*
X151392000Y-97195000D02*
X152392000Y-97195000D01*
X146786600Y-103784400D02*
X146786600Y-106832400D01*
X146786600Y-106832400D02*
X139674600Y-106832400D01*
X139674600Y-106832400D02*
X139674600Y-103784400D01*
X146786600Y-100736400D02*
X146786600Y-99974400D01*
X146786600Y-99974400D02*
X145262600Y-97688400D01*
X145262600Y-97688400D02*
X141198600Y-97688400D01*
X141198600Y-97688400D02*
X139674600Y-99974400D01*
X139674600Y-99974400D02*
X139674600Y-100736400D01*
X147355000Y-102520000D02*
X147355000Y-103220000D01*
X148555000Y-103220000D02*
X148555000Y-102520000D01*
X135358143Y-99655334D02*
X135405762Y-99607715D01*
X135453381Y-99464858D01*
X135453381Y-99369620D01*
X135405762Y-99226762D01*
X135310524Y-99131524D01*
X135215286Y-99083905D01*
X135024810Y-99036286D01*
X134881952Y-99036286D01*
X134691476Y-99083905D01*
X134596238Y-99131524D01*
X134501000Y-99226762D01*
X134453381Y-99369620D01*
X134453381Y-99464858D01*
X134501000Y-99607715D01*
X134548619Y-99655334D01*
X134453381Y-100512477D02*
X134453381Y-100322000D01*
X134501000Y-100226762D01*
X134548619Y-100179143D01*
X134691476Y-100083905D01*
X134881952Y-100036286D01*
X135262905Y-100036286D01*
X135358143Y-100083905D01*
X135405762Y-100131524D01*
X135453381Y-100226762D01*
X135453381Y-100417239D01*
X135405762Y-100512477D01*
X135358143Y-100560096D01*
X135262905Y-100607715D01*
X135024810Y-100607715D01*
X134929571Y-100560096D01*
X134881952Y-100512477D01*
X134834333Y-100417239D01*
X134834333Y-100226762D01*
X134881952Y-100131524D01*
X134929571Y-100083905D01*
X135024810Y-100036286D01*
X154527238Y-104723619D02*
X154622476Y-104676000D01*
X154717714Y-104580762D01*
X154860571Y-104437905D01*
X154955810Y-104390286D01*
X155051048Y-104390286D01*
X155003429Y-104628381D02*
X155098667Y-104580762D01*
X155193905Y-104485524D01*
X155241524Y-104295048D01*
X155241524Y-103961714D01*
X155193905Y-103771238D01*
X155098667Y-103676000D01*
X155003429Y-103628381D01*
X154812952Y-103628381D01*
X154717714Y-103676000D01*
X154622476Y-103771238D01*
X154574857Y-103961714D01*
X154574857Y-104295048D01*
X154622476Y-104485524D01*
X154717714Y-104580762D01*
X154812952Y-104628381D01*
X155003429Y-104628381D01*
X153622476Y-104628381D02*
X154193905Y-104628381D01*
X153908191Y-104628381D02*
X153908191Y-103628381D01*
X154003429Y-103771238D01*
X154098667Y-103866476D01*
X154193905Y-103914095D01*
X138882381Y-107275334D02*
X138406190Y-106942000D01*
X138882381Y-106703905D02*
X137882381Y-106703905D01*
X137882381Y-107084858D01*
X137930000Y-107180096D01*
X137977619Y-107227715D01*
X138072857Y-107275334D01*
X138215714Y-107275334D01*
X138310952Y-107227715D01*
X138358571Y-107180096D01*
X138406190Y-107084858D01*
X138406190Y-106703905D01*
X137882381Y-108132477D02*
X137882381Y-107942000D01*
X137930000Y-107846762D01*
X137977619Y-107799143D01*
X138120476Y-107703905D01*
X138310952Y-107656286D01*
X138691905Y-107656286D01*
X138787143Y-107703905D01*
X138834762Y-107751524D01*
X138882381Y-107846762D01*
X138882381Y-108037239D01*
X138834762Y-108132477D01*
X138787143Y-108180096D01*
X138691905Y-108227715D01*
X138453810Y-108227715D01*
X138358571Y-108180096D01*
X138310952Y-108132477D01*
X138263333Y-108037239D01*
X138263333Y-107846762D01*
X138310952Y-107751524D01*
X138358571Y-107703905D01*
X138453810Y-107656286D01*
X127166666Y-95829381D02*
X127500000Y-95353190D01*
X127738095Y-95829381D02*
X127738095Y-94829381D01*
X127357142Y-94829381D01*
X127261904Y-94877000D01*
X127214285Y-94924619D01*
X127166666Y-95019857D01*
X127166666Y-95162714D01*
X127214285Y-95257952D01*
X127261904Y-95305571D01*
X127357142Y-95353190D01*
X127738095Y-95353190D01*
X126833333Y-94829381D02*
X126166666Y-94829381D01*
X126595238Y-95829381D01*
X152026857Y-103068381D02*
X152360191Y-102592190D01*
X152598286Y-103068381D02*
X152598286Y-102068381D01*
X152217333Y-102068381D01*
X152122095Y-102116000D01*
X152074476Y-102163619D01*
X152026857Y-102258857D01*
X152026857Y-102401714D01*
X152074476Y-102496952D01*
X152122095Y-102544571D01*
X152217333Y-102592190D01*
X152598286Y-102592190D01*
X151074476Y-103068381D02*
X151645905Y-103068381D01*
X151360191Y-103068381D02*
X151360191Y-102068381D01*
X151455429Y-102211238D01*
X151550667Y-102306476D01*
X151645905Y-102354095D01*
X150455429Y-102068381D02*
X150360190Y-102068381D01*
X150264952Y-102116000D01*
X150217333Y-102163619D01*
X150169714Y-102258857D01*
X150122095Y-102449333D01*
X150122095Y-102687429D01*
X150169714Y-102877905D01*
X150217333Y-102973143D01*
X150264952Y-103020762D01*
X150360190Y-103068381D01*
X150455429Y-103068381D01*
X150550667Y-103020762D01*
X150598286Y-102973143D01*
X150645905Y-102877905D01*
X150693524Y-102687429D01*
X150693524Y-102449333D01*
X150645905Y-102258857D01*
X150598286Y-102163619D01*
X150550667Y-102116000D01*
X150455429Y-102068381D01*
X118498857Y-96337381D02*
X118832191Y-95861190D01*
X119070286Y-96337381D02*
X119070286Y-95337381D01*
X118689333Y-95337381D01*
X118594095Y-95385000D01*
X118546476Y-95432619D01*
X118498857Y-95527857D01*
X118498857Y-95670714D01*
X118546476Y-95765952D01*
X118594095Y-95813571D01*
X118689333Y-95861190D01*
X119070286Y-95861190D01*
X117546476Y-96337381D02*
X118117905Y-96337381D01*
X117832191Y-96337381D02*
X117832191Y-95337381D01*
X117927429Y-95480238D01*
X118022667Y-95575476D01*
X118117905Y-95623095D01*
X116594095Y-96337381D02*
X117165524Y-96337381D01*
X116879810Y-96337381D02*
X116879810Y-95337381D01*
X116975048Y-95480238D01*
X117070286Y-95575476D01*
X117165524Y-95623095D01*
X125229857Y-90495381D02*
X125563191Y-90019190D01*
X125801286Y-90495381D02*
X125801286Y-89495381D01*
X125420333Y-89495381D01*
X125325095Y-89543000D01*
X125277476Y-89590619D01*
X125229857Y-89685857D01*
X125229857Y-89828714D01*
X125277476Y-89923952D01*
X125325095Y-89971571D01*
X125420333Y-90019190D01*
X125801286Y-90019190D01*
X124277476Y-90495381D02*
X124848905Y-90495381D01*
X124563191Y-90495381D02*
X124563191Y-89495381D01*
X124658429Y-89638238D01*
X124753667Y-89733476D01*
X124848905Y-89781095D01*
X123896524Y-89590619D02*
X123848905Y-89543000D01*
X123753667Y-89495381D01*
X123515571Y-89495381D01*
X123420333Y-89543000D01*
X123372714Y-89590619D01*
X123325095Y-89685857D01*
X123325095Y-89781095D01*
X123372714Y-89923952D01*
X123944143Y-90495381D01*
X123325095Y-90495381D01*
X129166857Y-89733381D02*
X129500191Y-89257190D01*
X129738286Y-89733381D02*
X129738286Y-88733381D01*
X129357333Y-88733381D01*
X129262095Y-88781000D01*
X129214476Y-88828619D01*
X129166857Y-88923857D01*
X129166857Y-89066714D01*
X129214476Y-89161952D01*
X129262095Y-89209571D01*
X129357333Y-89257190D01*
X129738286Y-89257190D01*
X128214476Y-89733381D02*
X128785905Y-89733381D01*
X128500191Y-89733381D02*
X128500191Y-88733381D01*
X128595429Y-88876238D01*
X128690667Y-88971476D01*
X128785905Y-89019095D01*
X127881143Y-88733381D02*
X127262095Y-88733381D01*
X127595429Y-89114333D01*
X127452571Y-89114333D01*
X127357333Y-89161952D01*
X127309714Y-89209571D01*
X127262095Y-89304810D01*
X127262095Y-89542905D01*
X127309714Y-89638143D01*
X127357333Y-89685762D01*
X127452571Y-89733381D01*
X127738286Y-89733381D01*
X127833524Y-89685762D01*
X127881143Y-89638143D01*
X136583657Y-87701381D02*
X136916991Y-87225190D01*
X137155086Y-87701381D02*
X137155086Y-86701381D01*
X136774133Y-86701381D01*
X136678895Y-86749000D01*
X136631276Y-86796619D01*
X136583657Y-86891857D01*
X136583657Y-87034714D01*
X136631276Y-87129952D01*
X136678895Y-87177571D01*
X136774133Y-87225190D01*
X137155086Y-87225190D01*
X135631276Y-87701381D02*
X136202705Y-87701381D01*
X135916991Y-87701381D02*
X135916991Y-86701381D01*
X136012229Y-86844238D01*
X136107467Y-86939476D01*
X136202705Y-86987095D01*
X134774133Y-87034714D02*
X134774133Y-87701381D01*
X135012229Y-86653762D02*
X135250324Y-87368048D01*
X134631276Y-87368048D01*
X143106427Y-89316806D02*
X143439761Y-88840615D01*
X143677856Y-89316806D02*
X143677856Y-88316806D01*
X143296903Y-88316806D01*
X143201665Y-88364425D01*
X143154046Y-88412044D01*
X143106427Y-88507282D01*
X143106427Y-88650139D01*
X143154046Y-88745377D01*
X143201665Y-88792996D01*
X143296903Y-88840615D01*
X143677856Y-88840615D01*
X142154046Y-89316806D02*
X142725475Y-89316806D01*
X142439761Y-89316806D02*
X142439761Y-88316806D01*
X142534999Y-88459663D01*
X142630237Y-88554901D01*
X142725475Y-88602520D01*
X141249284Y-88316806D02*
X141725475Y-88316806D01*
X141773094Y-88792996D01*
X141725475Y-88745377D01*
X141630237Y-88697758D01*
X141392141Y-88697758D01*
X141296903Y-88745377D01*
X141249284Y-88792996D01*
X141201665Y-88888235D01*
X141201665Y-89126330D01*
X141249284Y-89221568D01*
X141296903Y-89269187D01*
X141392141Y-89316806D01*
X141630237Y-89316806D01*
X141725475Y-89269187D01*
X141773094Y-89221568D01*
X131571905Y-108164381D02*
X131571905Y-108973905D01*
X131524286Y-109069143D01*
X131476667Y-109116762D01*
X131381429Y-109164381D01*
X131190952Y-109164381D01*
X131095714Y-109116762D01*
X131048095Y-109069143D01*
X131000476Y-108973905D01*
X131000476Y-108164381D01*
X130619524Y-108164381D02*
X130000476Y-108164381D01*
X130333810Y-108545333D01*
X130190952Y-108545333D01*
X130095714Y-108592952D01*
X130048095Y-108640571D01*
X130000476Y-108735810D01*
X130000476Y-108973905D01*
X130048095Y-109069143D01*
X130095714Y-109116762D01*
X130190952Y-109164381D01*
X130476667Y-109164381D01*
X130571905Y-109116762D01*
X130619524Y-109069143D01*
X148470857Y-92527381D02*
X148804191Y-92051190D01*
X149042286Y-92527381D02*
X149042286Y-91527381D01*
X148661333Y-91527381D01*
X148566095Y-91575000D01*
X148518476Y-91622619D01*
X148470857Y-91717857D01*
X148470857Y-91860714D01*
X148518476Y-91955952D01*
X148566095Y-92003571D01*
X148661333Y-92051190D01*
X149042286Y-92051190D01*
X147518476Y-92527381D02*
X148089905Y-92527381D01*
X147804191Y-92527381D02*
X147804191Y-91527381D01*
X147899429Y-91670238D01*
X147994667Y-91765476D01*
X148089905Y-91813095D01*
X146661333Y-91527381D02*
X146851810Y-91527381D01*
X146947048Y-91575000D01*
X146994667Y-91622619D01*
X147089905Y-91765476D01*
X147137524Y-91955952D01*
X147137524Y-92336905D01*
X147089905Y-92432143D01*
X147042286Y-92479762D01*
X146947048Y-92527381D01*
X146756571Y-92527381D01*
X146661333Y-92479762D01*
X146613714Y-92432143D01*
X146566095Y-92336905D01*
X146566095Y-92098810D01*
X146613714Y-92003571D01*
X146661333Y-91955952D01*
X146756571Y-91908333D01*
X146947048Y-91908333D01*
X147042286Y-91955952D01*
X147089905Y-92003571D01*
X147137524Y-92098810D01*
X152534857Y-98623381D02*
X152868191Y-98147190D01*
X153106286Y-98623381D02*
X153106286Y-97623381D01*
X152725333Y-97623381D01*
X152630095Y-97671000D01*
X152582476Y-97718619D01*
X152534857Y-97813857D01*
X152534857Y-97956714D01*
X152582476Y-98051952D01*
X152630095Y-98099571D01*
X152725333Y-98147190D01*
X153106286Y-98147190D01*
X151582476Y-98623381D02*
X152153905Y-98623381D01*
X151868191Y-98623381D02*
X151868191Y-97623381D01*
X151963429Y-97766238D01*
X152058667Y-97861476D01*
X152153905Y-97909095D01*
X151249143Y-97623381D02*
X150582476Y-97623381D01*
X151011048Y-98623381D01*
X143890905Y-107148381D02*
X143890905Y-107957905D01*
X143843286Y-108053143D01*
X143795667Y-108100762D01*
X143700429Y-108148381D01*
X143509952Y-108148381D01*
X143414714Y-108100762D01*
X143367095Y-108053143D01*
X143319476Y-107957905D01*
X143319476Y-107148381D01*
X142414714Y-107148381D02*
X142605191Y-107148381D01*
X142700429Y-107196000D01*
X142748048Y-107243619D01*
X142843286Y-107386476D01*
X142890905Y-107576952D01*
X142890905Y-107957905D01*
X142843286Y-108053143D01*
X142795667Y-108100762D01*
X142700429Y-108148381D01*
X142509952Y-108148381D01*
X142414714Y-108100762D01*
X142367095Y-108053143D01*
X142319476Y-107957905D01*
X142319476Y-107719810D01*
X142367095Y-107624571D01*
X142414714Y-107576952D01*
X142509952Y-107529333D01*
X142700429Y-107529333D01*
X142795667Y-107576952D01*
X142843286Y-107624571D01*
X142890905Y-107719810D01*
X148312143Y-105275143D02*
X148359762Y-105227524D01*
X148407381Y-105084667D01*
X148407381Y-104989429D01*
X148359762Y-104846571D01*
X148264524Y-104751333D01*
X148169286Y-104703714D01*
X147978810Y-104656095D01*
X147835952Y-104656095D01*
X147645476Y-104703714D01*
X147550238Y-104751333D01*
X147455000Y-104846571D01*
X147407381Y-104989429D01*
X147407381Y-105084667D01*
X147455000Y-105227524D01*
X147502619Y-105275143D01*
X148407381Y-106227524D02*
X148407381Y-105656095D01*
X148407381Y-105941809D02*
X147407381Y-105941809D01*
X147550238Y-105846571D01*
X147645476Y-105751333D01*
X147693095Y-105656095D01*
X147502619Y-106608476D02*
X147455000Y-106656095D01*
X147407381Y-106751333D01*
X147407381Y-106989429D01*
X147455000Y-107084667D01*
X147502619Y-107132286D01*
X147597857Y-107179905D01*
X147693095Y-107179905D01*
X147835952Y-107132286D01*
X148407381Y-106560857D01*
X148407381Y-107179905D01*
M02*
