G04 #@! TF.FileFunction,Copper,L1,Top,Signal*
%FSLAX46Y46*%
G04 Gerber Fmt 4.6, Leading zero omitted, Abs format (unit mm)*
G04 Created by KiCad (PCBNEW (2015-05-28 BZR 5690)-product) date Thursday, June 25, 2015 'AMt' 09:08:00 AM*
%MOMM*%
G01*
G04 APERTURE LIST*
%ADD10C,0.100000*%
%ADD11R,0.750000X0.800000*%
%ADD12R,0.800000X0.750000*%
%ADD13R,1.727200X1.727200*%
%ADD14O,1.727200X1.727200*%
%ADD15R,0.797560X0.797560*%
%ADD16R,0.550000X1.600000*%
%ADD17R,1.600000X0.550000*%
%ADD18R,1.727200X2.032000*%
%ADD19O,1.727200X2.032000*%
%ADD20R,0.900000X0.500000*%
%ADD21R,0.500000X0.900000*%
%ADD22R,0.800100X0.800100*%
%ADD23R,0.630000X0.450000*%
%ADD24R,0.850000X1.300000*%
%ADD25R,3.657600X2.032000*%
%ADD26R,1.016000X2.032000*%
%ADD27R,1.200000X1.400000*%
%ADD28C,1.998980*%
%ADD29R,1.699260X1.699260*%
%ADD30O,1.998980X1.998980*%
%ADD31R,1.998980X1.998980*%
%ADD32C,0.600000*%
%ADD33C,0.250000*%
%ADD34C,0.350000*%
%ADD35C,0.310000*%
%ADD36C,0.630000*%
%ADD37C,0.254000*%
G04 APERTURE END LIST*
D10*
D11*
X155956000Y-108369800D03*
X155956000Y-106869800D03*
D12*
X134505000Y-85725000D03*
X136005000Y-85725000D03*
D11*
X139446000Y-99072000D03*
X139446000Y-100572000D03*
D12*
X124194000Y-89916000D03*
X122694000Y-89916000D03*
X141109000Y-101879400D03*
X142609000Y-101879400D03*
X140728000Y-86360000D03*
X142228000Y-86360000D03*
D11*
X142087600Y-106287000D03*
X142087600Y-104787000D03*
X139700000Y-106287000D03*
X139700000Y-104787000D03*
X129463800Y-104710800D03*
X129463800Y-106210800D03*
X127076200Y-104710800D03*
X127076200Y-106210800D03*
D13*
X115951000Y-105410000D03*
D14*
X113411000Y-105410000D03*
X115951000Y-102870000D03*
X113411000Y-102870000D03*
X115951000Y-100330000D03*
X113411000Y-100330000D03*
D15*
X153428700Y-102489000D03*
X154927300Y-102489000D03*
X153428700Y-100558600D03*
X154927300Y-100558600D03*
D16*
X137420000Y-88460000D03*
X136620000Y-88460000D03*
X135820000Y-88460000D03*
X135020000Y-88460000D03*
X134220000Y-88460000D03*
X133420000Y-88460000D03*
X132620000Y-88460000D03*
X131820000Y-88460000D03*
D17*
X130370000Y-89910000D03*
X130370000Y-90710000D03*
X130370000Y-91510000D03*
X130370000Y-92310000D03*
X130370000Y-93110000D03*
X130370000Y-93910000D03*
X130370000Y-94710000D03*
X130370000Y-95510000D03*
D16*
X131820000Y-96960000D03*
X132620000Y-96960000D03*
X133420000Y-96960000D03*
X134220000Y-96960000D03*
X135020000Y-96960000D03*
X135820000Y-96960000D03*
X136620000Y-96960000D03*
X137420000Y-96960000D03*
D17*
X138870000Y-95510000D03*
X138870000Y-94710000D03*
X138870000Y-93910000D03*
X138870000Y-93110000D03*
X138870000Y-92310000D03*
X138870000Y-91510000D03*
X138870000Y-90710000D03*
X138870000Y-89910000D03*
D18*
X143256000Y-111252000D03*
D19*
X145796000Y-111252000D03*
X148336000Y-111252000D03*
X150876000Y-111252000D03*
X153416000Y-111252000D03*
X155956000Y-111252000D03*
D20*
X147828000Y-104890000D03*
X147828000Y-103390000D03*
X147828000Y-101334000D03*
X147828000Y-99834000D03*
X147828000Y-97778000D03*
X147828000Y-96278000D03*
X153162000Y-108446000D03*
X153162000Y-106946000D03*
D21*
X142482000Y-96342200D03*
X140982000Y-96342200D03*
D20*
X141351000Y-90285000D03*
X141351000Y-88785000D03*
D21*
X142482000Y-94513400D03*
X140982000Y-94513400D03*
D22*
X141036040Y-98160800D03*
X141036040Y-100060800D03*
X143035020Y-99110800D03*
D23*
X146037000Y-90373000D03*
X146037000Y-89423000D03*
X146037000Y-88473000D03*
X143357000Y-88473000D03*
X143357000Y-89423000D03*
X143357000Y-90373000D03*
D24*
X144272000Y-88773000D03*
X144272000Y-90073000D03*
X145122000Y-88773000D03*
X145122000Y-90073000D03*
D25*
X134620000Y-100330000D03*
D26*
X134620000Y-106934000D03*
X136906000Y-106934000D03*
X132334000Y-106934000D03*
D18*
X132842000Y-111252000D03*
D19*
X135382000Y-111252000D03*
X137922000Y-111252000D03*
D27*
X132245000Y-86444000D03*
X132245000Y-84244000D03*
X130645000Y-86444000D03*
X130645000Y-84244000D03*
D15*
X153428700Y-104394000D03*
X154927300Y-104394000D03*
D18*
X122682000Y-111252000D03*
D19*
X125222000Y-111252000D03*
X127762000Y-111252000D03*
D10*
G36*
X126381657Y-84762929D02*
X124811746Y-85413208D01*
X124161467Y-83843297D01*
X125731378Y-83193018D01*
X126381657Y-84762929D01*
X126381657Y-84762929D01*
G37*
D28*
X127618216Y-83331097D03*
D29*
X133374060Y-82092800D03*
D28*
X135914060Y-82092800D03*
D10*
G36*
X142114378Y-84370782D02*
X140544467Y-83720503D01*
X141194746Y-82150592D01*
X142764657Y-82800871D01*
X142114378Y-84370782D01*
X142114378Y-84370782D01*
G37*
D28*
X144001216Y-84232703D03*
D10*
G36*
X148902148Y-88661106D02*
X147700590Y-87459548D01*
X148902148Y-86257990D01*
X150103706Y-87459548D01*
X148902148Y-88661106D01*
X148902148Y-88661106D01*
G37*
D28*
X150698200Y-89255600D03*
D10*
G36*
X153508168Y-95283441D02*
X152857889Y-93713530D01*
X154427800Y-93063251D01*
X155078079Y-94633162D01*
X153508168Y-95283441D01*
X153508168Y-95283441D01*
G37*
D28*
X154940000Y-96520000D03*
D10*
G36*
X119767810Y-89332748D02*
X118566252Y-90534306D01*
X117364694Y-89332748D01*
X118566252Y-88131190D01*
X119767810Y-89332748D01*
X119767810Y-89332748D01*
G37*
D28*
X120362304Y-87536696D03*
D10*
G36*
X115409582Y-96010622D02*
X114759303Y-97580533D01*
X113189392Y-96930254D01*
X113839671Y-95360343D01*
X115409582Y-96010622D01*
X115409582Y-96010622D01*
G37*
D28*
X115271503Y-94123784D03*
D30*
X114808000Y-108966000D03*
D31*
X114808000Y-111506000D03*
D14*
X121793000Y-100584000D03*
X124333000Y-100584000D03*
X121793000Y-98044000D03*
X124333000Y-98044000D03*
X121793000Y-95504000D03*
X124333000Y-95504000D03*
D13*
X121793000Y-92964000D03*
D14*
X124333000Y-92964000D03*
D32*
X147565718Y-94742000D03*
X127689454Y-88271197D03*
X137159908Y-92075000D03*
X140157200Y-92303600D03*
X145151020Y-94094014D03*
X133415051Y-87078735D03*
X141083173Y-103632000D03*
X143392990Y-103632000D03*
X132324312Y-92447929D03*
X138045010Y-87122000D03*
X146685000Y-107688676D03*
X151640019Y-108446000D03*
X130810000Y-112522000D03*
X129540000Y-112522000D03*
X118618000Y-112522000D03*
X120142000Y-112522000D03*
X120141990Y-110998000D03*
X118618000Y-110998000D03*
X135247174Y-98180980D03*
X137346785Y-104733172D03*
X133985002Y-105410000D03*
X113284000Y-98806000D03*
X123444000Y-108204000D03*
X121920000Y-108204000D03*
X120650000Y-107442000D03*
X119634004Y-106426000D03*
X119634000Y-104902000D03*
X115824000Y-98806000D03*
X114554002Y-98806000D03*
X112014002Y-98806000D03*
X142240000Y-109220000D03*
X143764000Y-109220000D03*
X147066000Y-109220000D03*
X145288000Y-109220000D03*
X153670000Y-98806000D03*
X156210000Y-103378000D03*
X156210000Y-101600000D03*
X156210000Y-98806000D03*
X131809608Y-98636101D03*
X156718000Y-105409996D03*
X137420000Y-84936541D03*
X139498303Y-82685499D03*
X145733410Y-94869000D03*
X136540244Y-89905844D03*
X146659600Y-98933000D03*
X131851400Y-89865200D03*
X146405600Y-95910400D03*
X133537949Y-90667851D03*
X118364000Y-100361771D03*
X132819151Y-91716849D03*
X138176000Y-99568000D03*
X139106981Y-103124000D03*
X128016000Y-93980000D03*
X140157200Y-91503597D03*
X143301790Y-93381030D03*
X140157200Y-90703594D03*
X144552006Y-92725951D03*
X130199960Y-97019957D03*
X134112000Y-94233996D03*
D33*
X155956000Y-111252000D02*
X155956000Y-108369800D01*
X117094000Y-92964000D02*
X121793000Y-88265000D01*
X121793000Y-88265000D02*
X127635000Y-88265000D01*
X138870000Y-92310000D02*
X137394908Y-92310000D01*
X137394908Y-92310000D02*
X137159908Y-92075000D01*
X140150800Y-92310000D02*
X140157200Y-92303600D01*
X138870000Y-92310000D02*
X140150800Y-92310000D01*
X155956000Y-106869800D02*
X153238200Y-106869800D01*
X145059400Y-103346754D02*
X148582446Y-106869800D01*
X145059400Y-94107000D02*
X145059400Y-103346754D01*
X148582446Y-106869800D02*
X153097800Y-106869800D01*
X145084800Y-94081600D02*
X145059400Y-94107000D01*
X117094000Y-99187000D02*
X115951000Y-100330000D01*
X117094000Y-92964000D02*
X117094000Y-99187000D01*
D34*
X143357000Y-89423000D02*
X141989000Y-89423000D01*
X141989000Y-89423000D02*
X141351000Y-88785000D01*
X140728000Y-86360000D02*
X140728000Y-88162000D01*
X140728000Y-88162000D02*
X141351000Y-88785000D01*
X141109000Y-101879400D02*
X141109000Y-103606173D01*
X141109000Y-103606173D02*
X141083173Y-103632000D01*
X141036040Y-100060800D02*
X141036040Y-101806440D01*
X141036040Y-101806440D02*
X141109000Y-101879400D01*
X151640019Y-108446000D02*
X153162000Y-108446000D01*
X146685000Y-107688676D02*
X143392990Y-104396666D01*
X143392990Y-104396666D02*
X143392990Y-103632000D01*
X129463800Y-104710800D02*
X134284804Y-104710800D01*
X134284804Y-104710800D02*
X134660003Y-105085999D01*
X134660003Y-105085999D02*
X134660003Y-106893997D01*
X134660003Y-106893997D02*
X134620000Y-106934000D01*
X127076200Y-104710800D02*
X129463800Y-104710800D01*
X133415051Y-87078735D02*
X133415051Y-86548949D01*
X133415051Y-86548949D02*
X134239000Y-85725000D01*
X134239000Y-85725000D02*
X134505000Y-85725000D01*
X133420000Y-88460000D02*
X133420000Y-87083684D01*
X133420000Y-87083684D02*
X133415051Y-87078735D01*
X135020000Y-88460000D02*
X135020000Y-86240000D01*
X135020000Y-86240000D02*
X134505000Y-85725000D01*
X138045010Y-87122000D02*
X138938000Y-87122000D01*
X138938000Y-87122000D02*
X139700000Y-86360000D01*
X140728000Y-86360000D02*
X139700000Y-86360000D01*
X142482000Y-96342200D02*
X142482000Y-94513400D01*
X141036040Y-100060800D02*
X141036040Y-99635902D01*
X141036040Y-99635902D02*
X142482000Y-98189942D01*
X142482000Y-98189942D02*
X142482000Y-97142200D01*
X142482000Y-97142200D02*
X142482000Y-96342200D01*
X124333000Y-92964000D02*
X124333000Y-90055000D01*
X124333000Y-90055000D02*
X124194000Y-89916000D01*
X133420000Y-89519546D02*
X133420000Y-88460000D01*
X134212950Y-91732504D02*
X134212950Y-90312496D01*
X134212950Y-90312496D02*
X133420000Y-89519546D01*
X127076200Y-104710800D02*
X127076200Y-104368511D01*
X127076200Y-104368511D02*
X132620000Y-98824711D01*
X132620000Y-98824711D02*
X132620000Y-96960000D01*
X127076200Y-104710800D02*
X125540200Y-104710800D01*
X125540200Y-104710800D02*
X124993400Y-105257600D01*
X124993400Y-105257600D02*
X124993400Y-108331000D01*
X124993400Y-108331000D02*
X127762000Y-111099600D01*
X127762000Y-111099600D02*
X127762000Y-111252000D01*
D35*
X134505000Y-85725000D02*
X134480000Y-85725000D01*
X133420000Y-89570000D02*
X133420000Y-88460000D01*
X134192950Y-90342950D02*
X133420000Y-89570000D01*
X134192950Y-90397050D02*
X134192950Y-90870974D01*
X134192950Y-90870974D02*
X134192950Y-90342950D01*
X132620000Y-96960000D02*
X132588000Y-96928000D01*
D33*
X133420000Y-86959004D02*
X133420000Y-87027208D01*
D35*
X151648149Y-108447851D02*
X151638000Y-108458000D01*
X146685000Y-107695025D02*
X146667844Y-107712181D01*
X153162000Y-108446000D02*
X153150000Y-108458000D01*
D34*
X132620000Y-93325454D02*
X134212950Y-91732504D01*
X132620000Y-96960000D02*
X132620000Y-93325454D01*
X132624311Y-93321143D02*
X132620000Y-93325454D01*
X132624311Y-92747928D02*
X132624311Y-93321143D01*
X132324312Y-92447929D02*
X132624311Y-92747928D01*
D33*
X129240001Y-112821999D02*
X129540000Y-112522000D01*
X126639599Y-112821999D02*
X129240001Y-112821999D01*
X125222000Y-111404400D02*
X126639599Y-112821999D01*
X123804401Y-112821999D02*
X120441999Y-112821999D01*
X125222000Y-111404400D02*
X123804401Y-112821999D01*
X120441999Y-112821999D02*
X120142000Y-112522000D01*
X118618000Y-110998000D02*
X120141990Y-110998000D01*
X125222000Y-111252000D02*
X125222000Y-111404400D01*
D34*
X139446000Y-100572000D02*
X139446000Y-101322000D01*
X139446000Y-101322000D02*
X139781982Y-101657982D01*
X139781982Y-101657982D02*
X139781982Y-104705018D01*
X139781982Y-104705018D02*
X139700000Y-104787000D01*
X136017000Y-87113000D02*
X136005000Y-87101000D01*
X136005000Y-87101000D02*
X136005000Y-85725000D01*
X135820000Y-88460000D02*
X135820000Y-87310000D01*
X135820000Y-87310000D02*
X136017000Y-87113000D01*
X127076200Y-106210800D02*
X129463800Y-106210800D01*
X130645000Y-86444000D02*
X130645000Y-85394000D01*
X130645000Y-85394000D02*
X130670001Y-85368999D01*
X130670001Y-85368999D02*
X132170001Y-85368999D01*
X132170001Y-85368999D02*
X132245000Y-85294000D01*
X132245000Y-85294000D02*
X132245000Y-84244000D01*
X132245000Y-84244000D02*
X135249000Y-84244000D01*
X135249000Y-84244000D02*
X136005000Y-85000000D01*
X136005000Y-85000000D02*
X136005000Y-85725000D01*
X142228000Y-86360000D02*
X145139002Y-86360000D01*
X145139002Y-86360000D02*
X146812000Y-88032998D01*
X146812000Y-88032998D02*
X146812000Y-88900000D01*
X146812000Y-88900000D02*
X146289000Y-89423000D01*
X146289000Y-89423000D02*
X146037000Y-89423000D01*
X139700000Y-104787000D02*
X137400613Y-104787000D01*
X137400613Y-104787000D02*
X137346785Y-104733172D01*
X135020000Y-96960000D02*
X135020000Y-97953806D01*
X135020000Y-97953806D02*
X135247174Y-98180980D01*
X133436999Y-93286285D02*
X135163575Y-91559709D01*
X135163575Y-91559709D02*
X135820000Y-90903284D01*
X134220000Y-88460000D02*
X134220000Y-89541716D01*
X134220000Y-89541716D02*
X135163575Y-90485291D01*
X135163575Y-90485291D02*
X135163575Y-91559709D01*
X135820000Y-90903284D02*
X135820000Y-88460000D01*
X135020000Y-96960000D02*
X135020000Y-96140998D01*
X135020000Y-96140998D02*
X133436999Y-94557997D01*
X133436999Y-94557997D02*
X133436999Y-93286285D01*
X133436999Y-93286285D02*
X133471141Y-93252143D01*
X121793000Y-92964000D02*
X121793000Y-90817000D01*
X121793000Y-90817000D02*
X122694000Y-89916000D01*
X132334000Y-106934000D02*
X132334000Y-105664000D01*
X132334000Y-105664000D02*
X132588000Y-105410000D01*
X132588000Y-105410000D02*
X133560738Y-105410000D01*
X133560738Y-105410000D02*
X133985002Y-105410000D01*
D33*
X132245000Y-84244000D02*
X132245000Y-84558998D01*
X130645000Y-86158998D02*
X130645000Y-86444000D01*
X122669000Y-89916000D02*
X122694000Y-89916000D01*
X137370413Y-104821445D02*
X137387510Y-104838542D01*
X137370413Y-104786815D02*
X137370413Y-104821445D01*
D35*
X139688000Y-104775000D02*
X139700000Y-104787000D01*
X137370413Y-104786815D02*
X137382228Y-104775000D01*
X135020000Y-96960000D02*
X135001000Y-96979000D01*
X135020000Y-96960000D02*
X135020000Y-96111398D01*
X114808000Y-109220000D02*
X115062000Y-108966000D01*
D34*
X123088400Y-108966000D02*
X123374997Y-109252597D01*
D33*
X113411000Y-98933000D02*
X113284000Y-98806000D01*
X113411000Y-100330000D02*
X113411000Y-98933000D01*
D34*
X125222000Y-111099600D02*
X125222000Y-111252000D01*
X123088400Y-108966000D02*
X125222000Y-111099600D01*
X122517827Y-108966000D02*
X123088400Y-108966000D01*
X114808000Y-108966000D02*
X122517827Y-108966000D01*
D33*
X123444000Y-108204000D02*
X121920000Y-108204000D01*
X120142000Y-107442000D02*
X119933999Y-107233999D01*
X120650000Y-107442000D02*
X120142000Y-107442000D01*
X119933999Y-107233999D02*
X119634004Y-106934004D01*
X119634004Y-106934004D02*
X119634004Y-106850264D01*
X119634004Y-106850264D02*
X119634004Y-106426000D01*
X114300000Y-98806000D02*
X114554002Y-98806000D01*
X113411000Y-99695000D02*
X114300000Y-98806000D01*
X113411000Y-100330000D02*
X113411000Y-99695000D01*
X142490000Y-109220000D02*
X142240000Y-109220000D01*
X143256000Y-109986000D02*
X142490000Y-109220000D01*
X143256000Y-111252000D02*
X143256000Y-109986000D01*
X143764000Y-109220000D02*
X145288000Y-109220000D01*
X154927300Y-100063300D02*
X153670000Y-98806000D01*
X154927300Y-100558600D02*
X154927300Y-100063300D01*
X156210000Y-101600000D02*
X156210000Y-98806000D01*
X139446000Y-99072000D02*
X138821000Y-99072000D01*
X134747000Y-98806000D02*
X134220000Y-98279000D01*
X138821000Y-99072000D02*
X138555000Y-98806000D01*
X138555000Y-98806000D02*
X134747000Y-98806000D01*
X134220000Y-98279000D02*
X134220000Y-96960000D01*
D36*
X140970000Y-112776000D02*
X140970000Y-108434600D01*
X139827000Y-113919000D02*
X140970000Y-112776000D01*
X140970000Y-108434600D02*
X142087600Y-107317000D01*
X142087600Y-107317000D02*
X142087600Y-106287000D01*
X114808000Y-111506000D02*
X114808000Y-113135490D01*
X114808000Y-113135490D02*
X115591510Y-113919000D01*
X115591510Y-113919000D02*
X139827000Y-113919000D01*
D35*
X113411000Y-105183990D02*
X113085174Y-105183990D01*
X114053620Y-111760000D02*
X114808000Y-111760000D01*
D36*
X142087600Y-106287000D02*
X139700000Y-106287000D01*
X137553000Y-106287000D02*
X136906000Y-106934000D01*
X142087600Y-106287000D02*
X137553000Y-106287000D01*
X112547401Y-106273599D02*
X113411000Y-105410000D01*
X112547401Y-110874891D02*
X112547401Y-106273599D01*
X113178510Y-111506000D02*
X112547401Y-110874891D01*
X114808000Y-111506000D02*
X113178510Y-111506000D01*
D33*
X130370000Y-95510000D02*
X129320000Y-95510000D01*
X129320000Y-95510000D02*
X125485401Y-99344599D01*
X125485401Y-99344599D02*
X123083201Y-99344599D01*
X123083201Y-99344599D02*
X122758199Y-99669601D01*
X122758199Y-99669601D02*
X121894600Y-100533200D01*
X117017800Y-105410000D02*
X115951000Y-105410000D01*
X121894600Y-100533200D02*
X117017800Y-105410000D01*
X131820000Y-96960000D02*
X131820000Y-98625709D01*
X131820000Y-98625709D02*
X131809608Y-98636101D01*
X131820000Y-96960000D02*
X131820000Y-97485000D01*
X130370000Y-94710000D02*
X127717800Y-94710000D01*
X127717800Y-94710000D02*
X124434600Y-97993200D01*
X114599601Y-101681399D02*
X114274599Y-102006401D01*
X114274599Y-102006401D02*
X113411000Y-102870000D01*
X117969374Y-101681399D02*
X114599601Y-101681399D01*
X120306174Y-99344599D02*
X117969374Y-101681399D01*
X122302331Y-99344599D02*
X120306174Y-99344599D01*
X123653730Y-97993200D02*
X122302331Y-99344599D01*
X124434600Y-97993200D02*
X123653730Y-97993200D01*
X147828000Y-101334000D02*
X148028000Y-101334000D01*
X148028000Y-101334000D02*
X149818000Y-103124000D01*
X149818000Y-103124000D02*
X152781000Y-103124000D01*
X152781000Y-103124000D02*
X153416000Y-102489000D01*
X147828000Y-97778000D02*
X148028000Y-97778000D01*
X148028000Y-97778000D02*
X149945000Y-99695000D01*
X149945000Y-99695000D02*
X153213880Y-99695000D01*
X153213880Y-99695000D02*
X153428700Y-99909820D01*
X153428700Y-99909820D02*
X153428700Y-100558600D01*
X154312439Y-92202000D02*
X154686000Y-92202000D01*
X154686000Y-92202000D02*
X157017999Y-94533999D01*
X157017999Y-94533999D02*
X157017999Y-105109997D01*
X157017999Y-105109997D02*
X156718000Y-105409996D01*
X154312439Y-92202000D02*
X154559000Y-92202000D01*
X137420000Y-84753800D02*
X137420000Y-84936541D01*
X137420000Y-88460000D02*
X137420000Y-84936541D01*
X152527000Y-91313000D02*
X153416000Y-92202000D01*
X147066000Y-83312000D02*
X152527000Y-88773000D01*
X145796000Y-83312000D02*
X147066000Y-83312000D01*
X144272000Y-81788000D02*
X145796000Y-83312000D01*
X140208000Y-81788000D02*
X144272000Y-81788000D01*
X153416000Y-92202000D02*
X154312439Y-92202000D01*
X152527000Y-88773000D02*
X152527000Y-91313000D01*
X139446000Y-82550000D02*
X140208000Y-81788000D01*
X136620000Y-89826088D02*
X136540244Y-89905844D01*
X136620000Y-88460000D02*
X136620000Y-89826088D01*
X147628000Y-103390000D02*
X147828000Y-103390000D01*
X145745200Y-101507200D02*
X147628000Y-103390000D01*
X145745200Y-95072200D02*
X145745200Y-101507200D01*
X145542000Y-94869000D02*
X145745200Y-95072200D01*
X146659600Y-98933000D02*
X146927000Y-98933000D01*
X146927000Y-98933000D02*
X147828000Y-99834000D01*
X130370000Y-89910000D02*
X131806600Y-89910000D01*
X131806600Y-89910000D02*
X131851400Y-89865200D01*
X146405600Y-95910400D02*
X147460400Y-95910400D01*
X147460400Y-95910400D02*
X147828000Y-96278000D01*
X130370000Y-90710000D02*
X133495800Y-90710000D01*
X133495800Y-90710000D02*
X133537949Y-90667851D01*
X118364000Y-92330410D02*
X118364000Y-100330000D01*
X121979400Y-88715010D02*
X118364000Y-92330410D01*
X126525010Y-88715010D02*
X121979400Y-88715010D01*
X129320000Y-91510000D02*
X126525010Y-88715010D01*
X130370000Y-91510000D02*
X129320000Y-91510000D01*
X132148149Y-91716849D02*
X132819151Y-91716849D01*
X131554998Y-92310000D02*
X132148149Y-91716849D01*
X130370000Y-92310000D02*
X131554998Y-92310000D01*
X138176000Y-102108000D02*
X139192000Y-103124000D01*
X138176000Y-99568000D02*
X138176000Y-102108000D01*
X139192000Y-103124000D02*
X139106981Y-103124000D01*
X130370000Y-93110000D02*
X126346000Y-93110000D01*
X126346000Y-93110000D02*
X125191401Y-94264599D01*
X123083201Y-94264599D02*
X122758199Y-94589601D01*
X125191401Y-94264599D02*
X123083201Y-94264599D01*
X122758199Y-94589601D02*
X121894600Y-95453200D01*
X130370000Y-93910000D02*
X130300000Y-93980000D01*
X130300000Y-93980000D02*
X128016000Y-93980000D01*
X141032800Y-96367600D02*
X141032800Y-98132160D01*
X141032800Y-98132160D02*
X141086840Y-98186200D01*
X140144500Y-94934500D02*
X140144500Y-95279300D01*
X140144500Y-95279300D02*
X141032800Y-96167600D01*
X141032800Y-96167600D02*
X141032800Y-96367600D01*
X138870000Y-94710000D02*
X139920000Y-94710000D01*
X139920000Y-94710000D02*
X140144500Y-94934500D01*
X138870000Y-93910000D02*
X140480200Y-93910000D01*
X140982000Y-94313400D02*
X140982000Y-94513400D01*
X140578600Y-93910000D02*
X140982000Y-94313400D01*
X138870000Y-93910000D02*
X140578600Y-93910000D01*
X146558000Y-90551000D02*
X146304000Y-90297000D01*
X146558000Y-90932000D02*
X146558000Y-90551000D01*
X143003410Y-91694000D02*
X145796000Y-91694000D01*
X145796000Y-91694000D02*
X146558000Y-90932000D01*
X140787410Y-93910000D02*
X143003410Y-91694000D01*
X138870000Y-93910000D02*
X140787410Y-93910000D01*
X143244000Y-90285000D02*
X141351000Y-90285000D01*
X143251000Y-90292000D02*
X143244000Y-90285000D01*
X143251000Y-90810000D02*
X143251000Y-90292000D01*
X138870000Y-93110000D02*
X140951000Y-93110000D01*
X140951000Y-93110000D02*
X143251000Y-90810000D01*
X140150797Y-91510000D02*
X140157200Y-91503597D01*
X138870000Y-91510000D02*
X140150797Y-91510000D01*
X150876000Y-111099600D02*
X150876000Y-111252000D01*
X143301790Y-93381030D02*
X144018000Y-94097240D01*
X144018000Y-94097240D02*
X144018000Y-103578174D01*
X144018000Y-103578174D02*
X149762400Y-109322574D01*
X149762400Y-109322574D02*
X149762400Y-109986000D01*
X149762400Y-109986000D02*
X150876000Y-111099600D01*
X144362463Y-92725951D02*
X144526000Y-92889488D01*
X148645236Y-107569000D02*
X149479000Y-107569000D01*
X149479000Y-107569000D02*
X153162000Y-111252000D01*
X144526000Y-92889488D02*
X144526000Y-103449764D01*
X144526000Y-103449764D02*
X148645236Y-107569000D01*
X153162000Y-111252000D02*
X153416000Y-111252000D01*
X140150794Y-90710000D02*
X140157200Y-90703594D01*
X138870000Y-90710000D02*
X140150794Y-90710000D01*
X126686717Y-100533200D02*
X130199960Y-97019957D01*
X124434600Y-100533200D02*
X126686717Y-100533200D01*
X138870000Y-89910000D02*
X137820000Y-89910000D01*
X137820000Y-89910000D02*
X134112000Y-93618000D01*
X134112000Y-93618000D02*
X134112000Y-93809732D01*
X134112000Y-93809732D02*
X134112000Y-94233996D01*
X132620000Y-86692000D02*
X132372000Y-86444000D01*
X132620000Y-88460000D02*
X132620000Y-86692000D01*
X130772000Y-84244000D02*
X130772000Y-84344000D01*
X129540000Y-85576000D02*
X129540000Y-87224002D01*
X130772000Y-84344000D02*
X129540000Y-85576000D01*
X129540000Y-87224002D02*
X130775998Y-88460000D01*
X130775998Y-88460000D02*
X131295000Y-88460000D01*
X131295000Y-88460000D02*
X131820000Y-88460000D01*
X153428700Y-105042780D02*
X153428700Y-104394000D01*
X153061480Y-105410000D02*
X153428700Y-105042780D01*
X149048000Y-105410000D02*
X153061480Y-105410000D01*
X148528000Y-104890000D02*
X149048000Y-105410000D01*
X147828000Y-104890000D02*
X148528000Y-104890000D01*
D37*
G36*
X123523000Y-91708146D02*
X123273330Y-91874971D01*
X123259263Y-91896023D01*
X123194927Y-91740702D01*
X123016299Y-91562073D01*
X122782910Y-91465400D01*
X122567000Y-91465400D01*
X122530291Y-91465400D01*
X122078750Y-91465400D01*
X121920000Y-91624150D01*
X121920000Y-92837000D01*
X121940000Y-92837000D01*
X121940000Y-93091000D01*
X121920000Y-93091000D01*
X121920000Y-93111000D01*
X121666000Y-93111000D01*
X121666000Y-93091000D01*
X121666000Y-92837000D01*
X121666000Y-91624150D01*
X121507250Y-91465400D01*
X121055709Y-91465400D01*
X120803090Y-91465400D01*
X120569701Y-91562073D01*
X120391073Y-91740702D01*
X120294400Y-91974091D01*
X120294400Y-92678250D01*
X120453150Y-92837000D01*
X121666000Y-92837000D01*
X121666000Y-93091000D01*
X120453150Y-93091000D01*
X120294400Y-93249750D01*
X120294400Y-93953909D01*
X120391073Y-94187298D01*
X120569701Y-94365927D01*
X120723526Y-94429643D01*
X120408474Y-94901152D01*
X120294400Y-95474641D01*
X120294400Y-95533359D01*
X120408474Y-96106848D01*
X120733330Y-96593029D01*
X121004172Y-96774000D01*
X120733330Y-96954971D01*
X120408474Y-97441152D01*
X120294400Y-98014641D01*
X120294400Y-98073359D01*
X120396091Y-98584599D01*
X120306174Y-98584599D01*
X120015334Y-98642451D01*
X119768773Y-98807198D01*
X119124000Y-99451971D01*
X119124000Y-92645212D01*
X121726210Y-90043002D01*
X121817748Y-90043002D01*
X121659000Y-90201750D01*
X121659000Y-90417310D01*
X121755673Y-90650699D01*
X121934302Y-90829327D01*
X122167691Y-90926000D01*
X122408250Y-90926000D01*
X122567000Y-90767250D01*
X122567000Y-90043000D01*
X122547000Y-90043000D01*
X122547000Y-89789000D01*
X122567000Y-89789000D01*
X122567000Y-89769000D01*
X122821000Y-89769000D01*
X122821000Y-89789000D01*
X122841000Y-89789000D01*
X122841000Y-90043000D01*
X122821000Y-90043000D01*
X122821000Y-90767250D01*
X122979750Y-90926000D01*
X123220309Y-90926000D01*
X123453698Y-90829327D01*
X123454980Y-90828044D01*
X123523000Y-90873958D01*
X123523000Y-91708146D01*
X123523000Y-91708146D01*
G37*
X123523000Y-91708146D02*
X123273330Y-91874971D01*
X123259263Y-91896023D01*
X123194927Y-91740702D01*
X123016299Y-91562073D01*
X122782910Y-91465400D01*
X122567000Y-91465400D01*
X122530291Y-91465400D01*
X122078750Y-91465400D01*
X121920000Y-91624150D01*
X121920000Y-92837000D01*
X121940000Y-92837000D01*
X121940000Y-93091000D01*
X121920000Y-93091000D01*
X121920000Y-93111000D01*
X121666000Y-93111000D01*
X121666000Y-93091000D01*
X121666000Y-92837000D01*
X121666000Y-91624150D01*
X121507250Y-91465400D01*
X121055709Y-91465400D01*
X120803090Y-91465400D01*
X120569701Y-91562073D01*
X120391073Y-91740702D01*
X120294400Y-91974091D01*
X120294400Y-92678250D01*
X120453150Y-92837000D01*
X121666000Y-92837000D01*
X121666000Y-93091000D01*
X120453150Y-93091000D01*
X120294400Y-93249750D01*
X120294400Y-93953909D01*
X120391073Y-94187298D01*
X120569701Y-94365927D01*
X120723526Y-94429643D01*
X120408474Y-94901152D01*
X120294400Y-95474641D01*
X120294400Y-95533359D01*
X120408474Y-96106848D01*
X120733330Y-96593029D01*
X121004172Y-96774000D01*
X120733330Y-96954971D01*
X120408474Y-97441152D01*
X120294400Y-98014641D01*
X120294400Y-98073359D01*
X120396091Y-98584599D01*
X120306174Y-98584599D01*
X120015334Y-98642451D01*
X119768773Y-98807198D01*
X119124000Y-99451971D01*
X119124000Y-92645212D01*
X121726210Y-90043002D01*
X121817748Y-90043002D01*
X121659000Y-90201750D01*
X121659000Y-90417310D01*
X121755673Y-90650699D01*
X121934302Y-90829327D01*
X122167691Y-90926000D01*
X122408250Y-90926000D01*
X122567000Y-90767250D01*
X122567000Y-90043000D01*
X122547000Y-90043000D01*
X122547000Y-89789000D01*
X122567000Y-89789000D01*
X122567000Y-89769000D01*
X122821000Y-89769000D01*
X122821000Y-89789000D01*
X122841000Y-89789000D01*
X122841000Y-90043000D01*
X122821000Y-90043000D01*
X122821000Y-90767250D01*
X122979750Y-90926000D01*
X123220309Y-90926000D01*
X123453698Y-90829327D01*
X123454980Y-90828044D01*
X123523000Y-90873958D01*
X123523000Y-91708146D01*
G36*
X130792000Y-86571000D02*
X130772000Y-86571000D01*
X130772000Y-86591000D01*
X130518000Y-86591000D01*
X130518000Y-86571000D01*
X130498000Y-86571000D01*
X130498000Y-86317000D01*
X130518000Y-86317000D01*
X130518000Y-86297000D01*
X130772000Y-86297000D01*
X130772000Y-86317000D01*
X130792000Y-86317000D01*
X130792000Y-86571000D01*
X130792000Y-86571000D01*
G37*
X130792000Y-86571000D02*
X130772000Y-86571000D01*
X130772000Y-86591000D01*
X130518000Y-86591000D01*
X130518000Y-86571000D01*
X130498000Y-86571000D01*
X130498000Y-86317000D01*
X130518000Y-86317000D01*
X130518000Y-86297000D01*
X130772000Y-86297000D01*
X130772000Y-86317000D01*
X130792000Y-86317000D01*
X130792000Y-86571000D01*
G36*
X135983562Y-90671635D02*
X135022950Y-91632248D01*
X135022950Y-90312496D01*
X134961293Y-90002523D01*
X134961292Y-90002522D01*
X134897760Y-89907440D01*
X135295000Y-89907440D01*
X135399686Y-89887128D01*
X135418690Y-89895000D01*
X135534250Y-89895000D01*
X135605314Y-89823935D01*
X135605252Y-89895000D01*
X135605082Y-90091011D01*
X135747127Y-90434787D01*
X135983562Y-90671635D01*
X135983562Y-90671635D01*
G37*
X135983562Y-90671635D02*
X135022950Y-91632248D01*
X135022950Y-90312496D01*
X134961293Y-90002523D01*
X134961292Y-90002522D01*
X134897760Y-89907440D01*
X135295000Y-89907440D01*
X135399686Y-89887128D01*
X135418690Y-89895000D01*
X135534250Y-89895000D01*
X135605314Y-89823935D01*
X135605252Y-89895000D01*
X135605082Y-90091011D01*
X135747127Y-90434787D01*
X135983562Y-90671635D01*
G36*
X140299000Y-103093667D02*
X140290981Y-103101673D01*
X140148335Y-103445201D01*
X140148067Y-103752000D01*
X139985750Y-103752000D01*
X139827002Y-103910748D01*
X139827002Y-103752000D01*
X139801329Y-103752000D01*
X139899173Y-103654327D01*
X140041819Y-103310799D01*
X140042143Y-102938833D01*
X139900098Y-102595057D01*
X139637308Y-102331808D01*
X139359078Y-102216276D01*
X138936000Y-101793198D01*
X138936000Y-101603400D01*
X138944690Y-101607000D01*
X139160250Y-101607000D01*
X139319000Y-101448250D01*
X139319000Y-100699000D01*
X139299000Y-100699000D01*
X139299000Y-100445000D01*
X139319000Y-100445000D01*
X139319000Y-100425000D01*
X139573000Y-100425000D01*
X139573000Y-100445000D01*
X139593000Y-100445000D01*
X139593000Y-100699000D01*
X139573000Y-100699000D01*
X139573000Y-101448250D01*
X139731750Y-101607000D01*
X139947310Y-101607000D01*
X140061560Y-101559676D01*
X140061560Y-102254400D01*
X140108537Y-102496523D01*
X140248327Y-102709327D01*
X140299000Y-102743531D01*
X140299000Y-103093667D01*
X140299000Y-103093667D01*
G37*
X140299000Y-103093667D02*
X140290981Y-103101673D01*
X140148335Y-103445201D01*
X140148067Y-103752000D01*
X139985750Y-103752000D01*
X139827002Y-103910748D01*
X139827002Y-103752000D01*
X139801329Y-103752000D01*
X139899173Y-103654327D01*
X140041819Y-103310799D01*
X140042143Y-102938833D01*
X139900098Y-102595057D01*
X139637308Y-102331808D01*
X139359078Y-102216276D01*
X138936000Y-101793198D01*
X138936000Y-101603400D01*
X138944690Y-101607000D01*
X139160250Y-101607000D01*
X139319000Y-101448250D01*
X139319000Y-100699000D01*
X139299000Y-100699000D01*
X139299000Y-100445000D01*
X139319000Y-100445000D01*
X139319000Y-100425000D01*
X139573000Y-100425000D01*
X139573000Y-100445000D01*
X139593000Y-100445000D01*
X139593000Y-100699000D01*
X139573000Y-100699000D01*
X139573000Y-101448250D01*
X139731750Y-101607000D01*
X139947310Y-101607000D01*
X140061560Y-101559676D01*
X140061560Y-102254400D01*
X140108537Y-102496523D01*
X140248327Y-102709327D01*
X140299000Y-102743531D01*
X140299000Y-103093667D01*
G36*
X140824098Y-107237000D02*
X140298249Y-107762849D01*
X140092314Y-108071050D01*
X140080316Y-108131366D01*
X140020000Y-108434600D01*
X140020000Y-112382497D01*
X139433497Y-112969000D01*
X139420600Y-112969000D01*
X139420600Y-111436745D01*
X139420600Y-111067255D01*
X139306526Y-110493766D01*
X138981670Y-110007585D01*
X138495489Y-109682729D01*
X137922000Y-109568655D01*
X137348511Y-109682729D01*
X136862330Y-110007585D01*
X136652000Y-110322365D01*
X136441670Y-110007585D01*
X135955489Y-109682729D01*
X135382000Y-109568655D01*
X134808511Y-109682729D01*
X134322330Y-110007585D01*
X134311784Y-110023367D01*
X134306063Y-109993877D01*
X134166273Y-109781073D01*
X133955240Y-109638623D01*
X133705600Y-109588560D01*
X132207000Y-109588560D01*
X132207000Y-108426250D01*
X132207000Y-107061000D01*
X131349750Y-107061000D01*
X131191000Y-107219750D01*
X131191000Y-107823691D01*
X131191000Y-108076310D01*
X131287673Y-108309699D01*
X131466302Y-108488327D01*
X131699691Y-108585000D01*
X132048250Y-108585000D01*
X132207000Y-108426250D01*
X132207000Y-109588560D01*
X131978400Y-109588560D01*
X131736277Y-109635537D01*
X131523473Y-109775327D01*
X131381023Y-109986360D01*
X131330960Y-110236000D01*
X131330960Y-112268000D01*
X131377937Y-112510123D01*
X131517727Y-112722927D01*
X131728760Y-112865377D01*
X131978400Y-112915440D01*
X133705600Y-112915440D01*
X133947723Y-112868463D01*
X134160527Y-112728673D01*
X134302977Y-112517640D01*
X134310718Y-112479037D01*
X134322330Y-112496415D01*
X134808511Y-112821271D01*
X135382000Y-112935345D01*
X135955489Y-112821271D01*
X136441670Y-112496415D01*
X136652000Y-112181634D01*
X136862330Y-112496415D01*
X137348511Y-112821271D01*
X137922000Y-112935345D01*
X138495489Y-112821271D01*
X138981670Y-112496415D01*
X139306526Y-112010234D01*
X139420600Y-111436745D01*
X139420600Y-112969000D01*
X130473800Y-112969000D01*
X130473800Y-106737109D01*
X130473800Y-106496550D01*
X130315050Y-106337800D01*
X129590800Y-106337800D01*
X129590800Y-107087050D01*
X129749550Y-107245800D01*
X129965110Y-107245800D01*
X130198499Y-107149127D01*
X130377127Y-106970498D01*
X130473800Y-106737109D01*
X130473800Y-112969000D01*
X129336800Y-112969000D01*
X129336800Y-107087050D01*
X129336800Y-106337800D01*
X128612550Y-106337800D01*
X128453800Y-106496550D01*
X128453800Y-106737109D01*
X128550473Y-106970498D01*
X128729101Y-107149127D01*
X128962490Y-107245800D01*
X129178050Y-107245800D01*
X129336800Y-107087050D01*
X129336800Y-112969000D01*
X125095000Y-112969000D01*
X116258098Y-112969000D01*
X116262417Y-112966163D01*
X116404867Y-112755130D01*
X116454930Y-112505490D01*
X116454930Y-110506510D01*
X116407953Y-110264387D01*
X116268163Y-110051583D01*
X116110256Y-109944993D01*
X116131068Y-109925726D01*
X116397627Y-109346355D01*
X116397627Y-108585645D01*
X116131068Y-108006274D01*
X115663084Y-107573013D01*
X115188354Y-107376381D01*
X114935000Y-107495735D01*
X114935000Y-108839000D01*
X116278807Y-108839000D01*
X116397627Y-108585645D01*
X116397627Y-109346355D01*
X116278807Y-109093000D01*
X114935000Y-109093000D01*
X114935000Y-109113000D01*
X114681000Y-109113000D01*
X114681000Y-109093000D01*
X114661000Y-109093000D01*
X114661000Y-108839000D01*
X114681000Y-108839000D01*
X114681000Y-107495735D01*
X114427646Y-107376381D01*
X113952916Y-107573013D01*
X113497401Y-107994730D01*
X113497401Y-106920772D01*
X113984489Y-106823885D01*
X114470670Y-106499029D01*
X114480766Y-106483918D01*
X114486937Y-106515723D01*
X114626727Y-106728527D01*
X114837760Y-106870977D01*
X115087400Y-106921040D01*
X116814600Y-106921040D01*
X117056723Y-106874063D01*
X117269527Y-106734273D01*
X117411977Y-106523240D01*
X117462040Y-106273600D01*
X117462040Y-106009649D01*
X117555201Y-105947401D01*
X121457398Y-102045203D01*
X121793000Y-102111959D01*
X122366489Y-101997885D01*
X122852670Y-101673029D01*
X123063000Y-101358248D01*
X123273330Y-101673029D01*
X123759511Y-101997885D01*
X124333000Y-102111959D01*
X124906489Y-101997885D01*
X125392670Y-101673029D01*
X125646463Y-101293200D01*
X126686717Y-101293200D01*
X126977556Y-101235348D01*
X127224118Y-101070601D01*
X130339639Y-97955079D01*
X130385127Y-97955119D01*
X130728903Y-97813074D01*
X130897560Y-97644711D01*
X130897560Y-97760000D01*
X130944537Y-98002123D01*
X131015560Y-98110242D01*
X130874770Y-98449302D01*
X130874446Y-98821268D01*
X131016491Y-99165044D01*
X131075271Y-99223926D01*
X126620104Y-103679094D01*
X126459077Y-103710337D01*
X126246273Y-103850127D01*
X126212068Y-103900800D01*
X125540200Y-103900800D01*
X125230226Y-103962458D01*
X125124970Y-104032787D01*
X124967444Y-104138043D01*
X124420644Y-104684844D01*
X124245058Y-104947626D01*
X124183400Y-105257600D01*
X124183400Y-108331000D01*
X124245058Y-108640974D01*
X124420644Y-108903756D01*
X125117888Y-109601000D01*
X125094998Y-109601000D01*
X125094998Y-109765781D01*
X124862974Y-109644642D01*
X124847209Y-109647291D01*
X124319964Y-109901268D01*
X124162326Y-110077701D01*
X124146063Y-109993877D01*
X124006273Y-109781073D01*
X123795240Y-109638623D01*
X123545600Y-109588560D01*
X121818400Y-109588560D01*
X121576277Y-109635537D01*
X121363473Y-109775327D01*
X121221023Y-109986360D01*
X121170960Y-110236000D01*
X121170960Y-112268000D01*
X121217937Y-112510123D01*
X121357727Y-112722927D01*
X121568760Y-112865377D01*
X121818400Y-112915440D01*
X123545600Y-112915440D01*
X123787723Y-112868463D01*
X124000527Y-112728673D01*
X124142977Y-112517640D01*
X124161483Y-112425354D01*
X124319964Y-112602732D01*
X124847209Y-112856709D01*
X124862974Y-112859358D01*
X125095000Y-112738217D01*
X125095000Y-111379000D01*
X125075000Y-111379000D01*
X125075000Y-111125000D01*
X125095000Y-111125000D01*
X125095000Y-111105000D01*
X125349000Y-111105000D01*
X125349000Y-111125000D01*
X125369000Y-111125000D01*
X125369000Y-111379000D01*
X125349000Y-111379000D01*
X125349000Y-112738217D01*
X125581026Y-112859358D01*
X125596791Y-112856709D01*
X126124036Y-112602732D01*
X126495539Y-112186930D01*
X126702330Y-112496415D01*
X127188511Y-112821271D01*
X127762000Y-112935345D01*
X128335489Y-112821271D01*
X128821670Y-112496415D01*
X129146526Y-112010234D01*
X129260600Y-111436745D01*
X129260600Y-111067255D01*
X129146526Y-110493766D01*
X128821670Y-110007585D01*
X128335489Y-109682729D01*
X128086200Y-109633142D01*
X128086200Y-106737109D01*
X128086200Y-106496550D01*
X127927450Y-106337800D01*
X127203200Y-106337800D01*
X127203200Y-107087050D01*
X127361950Y-107245800D01*
X127577510Y-107245800D01*
X127810899Y-107149127D01*
X127989527Y-106970498D01*
X128086200Y-106737109D01*
X128086200Y-109633142D01*
X127762000Y-109568655D01*
X127440514Y-109632602D01*
X126949200Y-109141287D01*
X126949200Y-107087050D01*
X126949200Y-106337800D01*
X126224950Y-106337800D01*
X126066200Y-106496550D01*
X126066200Y-106737109D01*
X126162873Y-106970498D01*
X126341501Y-107149127D01*
X126574890Y-107245800D01*
X126790450Y-107245800D01*
X126949200Y-107087050D01*
X126949200Y-109141287D01*
X125803400Y-107995487D01*
X125803400Y-105593112D01*
X125875712Y-105520800D01*
X126134003Y-105520800D01*
X126066200Y-105684491D01*
X126066200Y-105925050D01*
X126224950Y-106083800D01*
X126949200Y-106083800D01*
X126949200Y-106063800D01*
X127203200Y-106063800D01*
X127203200Y-106083800D01*
X127927450Y-106083800D01*
X128086200Y-105925050D01*
X128086200Y-105684491D01*
X128018396Y-105520800D01*
X128521603Y-105520800D01*
X128453800Y-105684491D01*
X128453800Y-105925050D01*
X128612550Y-106083800D01*
X129336800Y-106083800D01*
X129336800Y-106063800D01*
X129590800Y-106063800D01*
X129590800Y-106083800D01*
X130315050Y-106083800D01*
X130473800Y-105925050D01*
X130473800Y-105684491D01*
X130405996Y-105520800D01*
X131325174Y-105520800D01*
X131287673Y-105558301D01*
X131191000Y-105791690D01*
X131191000Y-106044309D01*
X131191000Y-106648250D01*
X131349750Y-106807000D01*
X132207000Y-106807000D01*
X132207000Y-106787000D01*
X132461000Y-106787000D01*
X132461000Y-106807000D01*
X132481000Y-106807000D01*
X132481000Y-107061000D01*
X132461000Y-107061000D01*
X132461000Y-108426250D01*
X132619750Y-108585000D01*
X132968309Y-108585000D01*
X133201698Y-108488327D01*
X133380327Y-108309699D01*
X133477000Y-108076310D01*
X133477000Y-108014116D01*
X133511537Y-108192123D01*
X133651327Y-108404927D01*
X133862360Y-108547377D01*
X134112000Y-108597440D01*
X135128000Y-108597440D01*
X135370123Y-108550463D01*
X135582927Y-108410673D01*
X135725377Y-108199640D01*
X135762794Y-108013057D01*
X135797537Y-108192123D01*
X135937327Y-108404927D01*
X136148360Y-108547377D01*
X136398000Y-108597440D01*
X137414000Y-108597440D01*
X137656123Y-108550463D01*
X137868927Y-108410673D01*
X138011377Y-108199640D01*
X138061440Y-107950000D01*
X138061440Y-107237000D01*
X139005173Y-107237000D01*
X139075360Y-107284377D01*
X139325000Y-107334440D01*
X140075000Y-107334440D01*
X140317123Y-107287463D01*
X140393943Y-107237000D01*
X140824098Y-107237000D01*
X140824098Y-107237000D01*
G37*
X140824098Y-107237000D02*
X140298249Y-107762849D01*
X140092314Y-108071050D01*
X140080316Y-108131366D01*
X140020000Y-108434600D01*
X140020000Y-112382497D01*
X139433497Y-112969000D01*
X139420600Y-112969000D01*
X139420600Y-111436745D01*
X139420600Y-111067255D01*
X139306526Y-110493766D01*
X138981670Y-110007585D01*
X138495489Y-109682729D01*
X137922000Y-109568655D01*
X137348511Y-109682729D01*
X136862330Y-110007585D01*
X136652000Y-110322365D01*
X136441670Y-110007585D01*
X135955489Y-109682729D01*
X135382000Y-109568655D01*
X134808511Y-109682729D01*
X134322330Y-110007585D01*
X134311784Y-110023367D01*
X134306063Y-109993877D01*
X134166273Y-109781073D01*
X133955240Y-109638623D01*
X133705600Y-109588560D01*
X132207000Y-109588560D01*
X132207000Y-108426250D01*
X132207000Y-107061000D01*
X131349750Y-107061000D01*
X131191000Y-107219750D01*
X131191000Y-107823691D01*
X131191000Y-108076310D01*
X131287673Y-108309699D01*
X131466302Y-108488327D01*
X131699691Y-108585000D01*
X132048250Y-108585000D01*
X132207000Y-108426250D01*
X132207000Y-109588560D01*
X131978400Y-109588560D01*
X131736277Y-109635537D01*
X131523473Y-109775327D01*
X131381023Y-109986360D01*
X131330960Y-110236000D01*
X131330960Y-112268000D01*
X131377937Y-112510123D01*
X131517727Y-112722927D01*
X131728760Y-112865377D01*
X131978400Y-112915440D01*
X133705600Y-112915440D01*
X133947723Y-112868463D01*
X134160527Y-112728673D01*
X134302977Y-112517640D01*
X134310718Y-112479037D01*
X134322330Y-112496415D01*
X134808511Y-112821271D01*
X135382000Y-112935345D01*
X135955489Y-112821271D01*
X136441670Y-112496415D01*
X136652000Y-112181634D01*
X136862330Y-112496415D01*
X137348511Y-112821271D01*
X137922000Y-112935345D01*
X138495489Y-112821271D01*
X138981670Y-112496415D01*
X139306526Y-112010234D01*
X139420600Y-111436745D01*
X139420600Y-112969000D01*
X130473800Y-112969000D01*
X130473800Y-106737109D01*
X130473800Y-106496550D01*
X130315050Y-106337800D01*
X129590800Y-106337800D01*
X129590800Y-107087050D01*
X129749550Y-107245800D01*
X129965110Y-107245800D01*
X130198499Y-107149127D01*
X130377127Y-106970498D01*
X130473800Y-106737109D01*
X130473800Y-112969000D01*
X129336800Y-112969000D01*
X129336800Y-107087050D01*
X129336800Y-106337800D01*
X128612550Y-106337800D01*
X128453800Y-106496550D01*
X128453800Y-106737109D01*
X128550473Y-106970498D01*
X128729101Y-107149127D01*
X128962490Y-107245800D01*
X129178050Y-107245800D01*
X129336800Y-107087050D01*
X129336800Y-112969000D01*
X125095000Y-112969000D01*
X116258098Y-112969000D01*
X116262417Y-112966163D01*
X116404867Y-112755130D01*
X116454930Y-112505490D01*
X116454930Y-110506510D01*
X116407953Y-110264387D01*
X116268163Y-110051583D01*
X116110256Y-109944993D01*
X116131068Y-109925726D01*
X116397627Y-109346355D01*
X116397627Y-108585645D01*
X116131068Y-108006274D01*
X115663084Y-107573013D01*
X115188354Y-107376381D01*
X114935000Y-107495735D01*
X114935000Y-108839000D01*
X116278807Y-108839000D01*
X116397627Y-108585645D01*
X116397627Y-109346355D01*
X116278807Y-109093000D01*
X114935000Y-109093000D01*
X114935000Y-109113000D01*
X114681000Y-109113000D01*
X114681000Y-109093000D01*
X114661000Y-109093000D01*
X114661000Y-108839000D01*
X114681000Y-108839000D01*
X114681000Y-107495735D01*
X114427646Y-107376381D01*
X113952916Y-107573013D01*
X113497401Y-107994730D01*
X113497401Y-106920772D01*
X113984489Y-106823885D01*
X114470670Y-106499029D01*
X114480766Y-106483918D01*
X114486937Y-106515723D01*
X114626727Y-106728527D01*
X114837760Y-106870977D01*
X115087400Y-106921040D01*
X116814600Y-106921040D01*
X117056723Y-106874063D01*
X117269527Y-106734273D01*
X117411977Y-106523240D01*
X117462040Y-106273600D01*
X117462040Y-106009649D01*
X117555201Y-105947401D01*
X121457398Y-102045203D01*
X121793000Y-102111959D01*
X122366489Y-101997885D01*
X122852670Y-101673029D01*
X123063000Y-101358248D01*
X123273330Y-101673029D01*
X123759511Y-101997885D01*
X124333000Y-102111959D01*
X124906489Y-101997885D01*
X125392670Y-101673029D01*
X125646463Y-101293200D01*
X126686717Y-101293200D01*
X126977556Y-101235348D01*
X127224118Y-101070601D01*
X130339639Y-97955079D01*
X130385127Y-97955119D01*
X130728903Y-97813074D01*
X130897560Y-97644711D01*
X130897560Y-97760000D01*
X130944537Y-98002123D01*
X131015560Y-98110242D01*
X130874770Y-98449302D01*
X130874446Y-98821268D01*
X131016491Y-99165044D01*
X131075271Y-99223926D01*
X126620104Y-103679094D01*
X126459077Y-103710337D01*
X126246273Y-103850127D01*
X126212068Y-103900800D01*
X125540200Y-103900800D01*
X125230226Y-103962458D01*
X125124970Y-104032787D01*
X124967444Y-104138043D01*
X124420644Y-104684844D01*
X124245058Y-104947626D01*
X124183400Y-105257600D01*
X124183400Y-108331000D01*
X124245058Y-108640974D01*
X124420644Y-108903756D01*
X125117888Y-109601000D01*
X125094998Y-109601000D01*
X125094998Y-109765781D01*
X124862974Y-109644642D01*
X124847209Y-109647291D01*
X124319964Y-109901268D01*
X124162326Y-110077701D01*
X124146063Y-109993877D01*
X124006273Y-109781073D01*
X123795240Y-109638623D01*
X123545600Y-109588560D01*
X121818400Y-109588560D01*
X121576277Y-109635537D01*
X121363473Y-109775327D01*
X121221023Y-109986360D01*
X121170960Y-110236000D01*
X121170960Y-112268000D01*
X121217937Y-112510123D01*
X121357727Y-112722927D01*
X121568760Y-112865377D01*
X121818400Y-112915440D01*
X123545600Y-112915440D01*
X123787723Y-112868463D01*
X124000527Y-112728673D01*
X124142977Y-112517640D01*
X124161483Y-112425354D01*
X124319964Y-112602732D01*
X124847209Y-112856709D01*
X124862974Y-112859358D01*
X125095000Y-112738217D01*
X125095000Y-111379000D01*
X125075000Y-111379000D01*
X125075000Y-111125000D01*
X125095000Y-111125000D01*
X125095000Y-111105000D01*
X125349000Y-111105000D01*
X125349000Y-111125000D01*
X125369000Y-111125000D01*
X125369000Y-111379000D01*
X125349000Y-111379000D01*
X125349000Y-112738217D01*
X125581026Y-112859358D01*
X125596791Y-112856709D01*
X126124036Y-112602732D01*
X126495539Y-112186930D01*
X126702330Y-112496415D01*
X127188511Y-112821271D01*
X127762000Y-112935345D01*
X128335489Y-112821271D01*
X128821670Y-112496415D01*
X129146526Y-112010234D01*
X129260600Y-111436745D01*
X129260600Y-111067255D01*
X129146526Y-110493766D01*
X128821670Y-110007585D01*
X128335489Y-109682729D01*
X128086200Y-109633142D01*
X128086200Y-106737109D01*
X128086200Y-106496550D01*
X127927450Y-106337800D01*
X127203200Y-106337800D01*
X127203200Y-107087050D01*
X127361950Y-107245800D01*
X127577510Y-107245800D01*
X127810899Y-107149127D01*
X127989527Y-106970498D01*
X128086200Y-106737109D01*
X128086200Y-109633142D01*
X127762000Y-109568655D01*
X127440514Y-109632602D01*
X126949200Y-109141287D01*
X126949200Y-107087050D01*
X126949200Y-106337800D01*
X126224950Y-106337800D01*
X126066200Y-106496550D01*
X126066200Y-106737109D01*
X126162873Y-106970498D01*
X126341501Y-107149127D01*
X126574890Y-107245800D01*
X126790450Y-107245800D01*
X126949200Y-107087050D01*
X126949200Y-109141287D01*
X125803400Y-107995487D01*
X125803400Y-105593112D01*
X125875712Y-105520800D01*
X126134003Y-105520800D01*
X126066200Y-105684491D01*
X126066200Y-105925050D01*
X126224950Y-106083800D01*
X126949200Y-106083800D01*
X126949200Y-106063800D01*
X127203200Y-106063800D01*
X127203200Y-106083800D01*
X127927450Y-106083800D01*
X128086200Y-105925050D01*
X128086200Y-105684491D01*
X128018396Y-105520800D01*
X128521603Y-105520800D01*
X128453800Y-105684491D01*
X128453800Y-105925050D01*
X128612550Y-106083800D01*
X129336800Y-106083800D01*
X129336800Y-106063800D01*
X129590800Y-106063800D01*
X129590800Y-106083800D01*
X130315050Y-106083800D01*
X130473800Y-105925050D01*
X130473800Y-105684491D01*
X130405996Y-105520800D01*
X131325174Y-105520800D01*
X131287673Y-105558301D01*
X131191000Y-105791690D01*
X131191000Y-106044309D01*
X131191000Y-106648250D01*
X131349750Y-106807000D01*
X132207000Y-106807000D01*
X132207000Y-106787000D01*
X132461000Y-106787000D01*
X132461000Y-106807000D01*
X132481000Y-106807000D01*
X132481000Y-107061000D01*
X132461000Y-107061000D01*
X132461000Y-108426250D01*
X132619750Y-108585000D01*
X132968309Y-108585000D01*
X133201698Y-108488327D01*
X133380327Y-108309699D01*
X133477000Y-108076310D01*
X133477000Y-108014116D01*
X133511537Y-108192123D01*
X133651327Y-108404927D01*
X133862360Y-108547377D01*
X134112000Y-108597440D01*
X135128000Y-108597440D01*
X135370123Y-108550463D01*
X135582927Y-108410673D01*
X135725377Y-108199640D01*
X135762794Y-108013057D01*
X135797537Y-108192123D01*
X135937327Y-108404927D01*
X136148360Y-108547377D01*
X136398000Y-108597440D01*
X137414000Y-108597440D01*
X137656123Y-108550463D01*
X137868927Y-108410673D01*
X138011377Y-108199640D01*
X138061440Y-107950000D01*
X138061440Y-107237000D01*
X139005173Y-107237000D01*
X139075360Y-107284377D01*
X139325000Y-107334440D01*
X140075000Y-107334440D01*
X140317123Y-107287463D01*
X140393943Y-107237000D01*
X140824098Y-107237000D01*
G36*
X143258000Y-100920220D02*
X143135309Y-100869400D01*
X142894750Y-100869400D01*
X142736000Y-101028150D01*
X142736000Y-101752400D01*
X142756000Y-101752400D01*
X142756000Y-102006400D01*
X142736000Y-102006400D01*
X142736000Y-102730650D01*
X142854131Y-102848781D01*
X142600798Y-103101673D01*
X142458152Y-103445201D01*
X142457884Y-103752000D01*
X142373350Y-103752000D01*
X142214600Y-103910750D01*
X142214600Y-104660000D01*
X142234600Y-104660000D01*
X142234600Y-104914000D01*
X142214600Y-104914000D01*
X142214600Y-104934000D01*
X141960600Y-104934000D01*
X141960600Y-104914000D01*
X141236350Y-104914000D01*
X141077600Y-105072750D01*
X141077600Y-105313309D01*
X141087413Y-105337000D01*
X140700186Y-105337000D01*
X140710000Y-105313309D01*
X140710000Y-105072750D01*
X140551250Y-104914000D01*
X139827000Y-104914000D01*
X139827000Y-104934000D01*
X139573000Y-104934000D01*
X139573000Y-104914000D01*
X138848750Y-104914000D01*
X138690000Y-105072750D01*
X138690000Y-105313309D01*
X138699813Y-105337000D01*
X137687901Y-105337000D01*
X137663640Y-105320623D01*
X137414000Y-105270560D01*
X136398000Y-105270560D01*
X136155877Y-105317537D01*
X135943073Y-105457327D01*
X135800623Y-105668360D01*
X135763205Y-105854942D01*
X135728463Y-105675877D01*
X135588673Y-105463073D01*
X135470003Y-105382969D01*
X135470003Y-105085999D01*
X135408346Y-104776026D01*
X135408345Y-104776025D01*
X135232760Y-104513243D01*
X134857560Y-104138044D01*
X134594778Y-103962458D01*
X134284804Y-103900800D01*
X130328985Y-103900800D01*
X130299473Y-103855873D01*
X130088440Y-103713423D01*
X129838800Y-103663360D01*
X129088800Y-103663360D01*
X128887880Y-103702342D01*
X132143760Y-100446463D01*
X132143760Y-101346000D01*
X132190737Y-101588123D01*
X132330527Y-101800927D01*
X132541560Y-101943377D01*
X132791200Y-101993440D01*
X136448800Y-101993440D01*
X136690923Y-101946463D01*
X136903727Y-101806673D01*
X137046177Y-101595640D01*
X137096240Y-101346000D01*
X137096240Y-99566000D01*
X137241001Y-99566000D01*
X137240838Y-99753167D01*
X137382883Y-100096943D01*
X137416000Y-100130117D01*
X137416000Y-102108000D01*
X137473852Y-102398839D01*
X137638599Y-102645401D01*
X138171932Y-103178734D01*
X138171819Y-103309167D01*
X138313864Y-103652943D01*
X138576654Y-103916192D01*
X138803562Y-104010412D01*
X138786673Y-104027302D01*
X138690000Y-104260691D01*
X138690000Y-104501250D01*
X138848750Y-104660000D01*
X139573000Y-104660000D01*
X139573000Y-104640000D01*
X139827000Y-104640000D01*
X139827000Y-104660000D01*
X140551250Y-104660000D01*
X140710000Y-104501250D01*
X140710000Y-104489448D01*
X140896374Y-104566838D01*
X141143403Y-104567053D01*
X141236350Y-104660000D01*
X141960600Y-104660000D01*
X141960600Y-103957059D01*
X142018011Y-103818799D01*
X142018335Y-103446833D01*
X141919000Y-103206423D01*
X141919000Y-102821596D01*
X142082691Y-102889400D01*
X142323250Y-102889400D01*
X142482000Y-102730650D01*
X142482000Y-102006400D01*
X142462000Y-102006400D01*
X142462000Y-101752400D01*
X142482000Y-101752400D01*
X142482000Y-101028150D01*
X142323250Y-100869400D01*
X142082691Y-100869400D01*
X141849302Y-100966073D01*
X141848019Y-100967355D01*
X141846040Y-100966019D01*
X141846040Y-100951068D01*
X141891017Y-100921523D01*
X142033467Y-100710490D01*
X142083530Y-100460850D01*
X142083530Y-99838890D01*
X142096643Y-99870548D01*
X142275271Y-100049177D01*
X142508660Y-100145850D01*
X142749270Y-100145850D01*
X142908020Y-99987100D01*
X142908020Y-99237800D01*
X142888020Y-99237800D01*
X142888020Y-98983800D01*
X142908020Y-98983800D01*
X142908020Y-98963800D01*
X143162020Y-98963800D01*
X143162020Y-98983800D01*
X143182020Y-98983800D01*
X143182020Y-99237800D01*
X143162020Y-99237800D01*
X143162020Y-99987100D01*
X143258000Y-100083080D01*
X143258000Y-100920220D01*
X143258000Y-100920220D01*
G37*
X143258000Y-100920220D02*
X143135309Y-100869400D01*
X142894750Y-100869400D01*
X142736000Y-101028150D01*
X142736000Y-101752400D01*
X142756000Y-101752400D01*
X142756000Y-102006400D01*
X142736000Y-102006400D01*
X142736000Y-102730650D01*
X142854131Y-102848781D01*
X142600798Y-103101673D01*
X142458152Y-103445201D01*
X142457884Y-103752000D01*
X142373350Y-103752000D01*
X142214600Y-103910750D01*
X142214600Y-104660000D01*
X142234600Y-104660000D01*
X142234600Y-104914000D01*
X142214600Y-104914000D01*
X142214600Y-104934000D01*
X141960600Y-104934000D01*
X141960600Y-104914000D01*
X141236350Y-104914000D01*
X141077600Y-105072750D01*
X141077600Y-105313309D01*
X141087413Y-105337000D01*
X140700186Y-105337000D01*
X140710000Y-105313309D01*
X140710000Y-105072750D01*
X140551250Y-104914000D01*
X139827000Y-104914000D01*
X139827000Y-104934000D01*
X139573000Y-104934000D01*
X139573000Y-104914000D01*
X138848750Y-104914000D01*
X138690000Y-105072750D01*
X138690000Y-105313309D01*
X138699813Y-105337000D01*
X137687901Y-105337000D01*
X137663640Y-105320623D01*
X137414000Y-105270560D01*
X136398000Y-105270560D01*
X136155877Y-105317537D01*
X135943073Y-105457327D01*
X135800623Y-105668360D01*
X135763205Y-105854942D01*
X135728463Y-105675877D01*
X135588673Y-105463073D01*
X135470003Y-105382969D01*
X135470003Y-105085999D01*
X135408346Y-104776026D01*
X135408345Y-104776025D01*
X135232760Y-104513243D01*
X134857560Y-104138044D01*
X134594778Y-103962458D01*
X134284804Y-103900800D01*
X130328985Y-103900800D01*
X130299473Y-103855873D01*
X130088440Y-103713423D01*
X129838800Y-103663360D01*
X129088800Y-103663360D01*
X128887880Y-103702342D01*
X132143760Y-100446463D01*
X132143760Y-101346000D01*
X132190737Y-101588123D01*
X132330527Y-101800927D01*
X132541560Y-101943377D01*
X132791200Y-101993440D01*
X136448800Y-101993440D01*
X136690923Y-101946463D01*
X136903727Y-101806673D01*
X137046177Y-101595640D01*
X137096240Y-101346000D01*
X137096240Y-99566000D01*
X137241001Y-99566000D01*
X137240838Y-99753167D01*
X137382883Y-100096943D01*
X137416000Y-100130117D01*
X137416000Y-102108000D01*
X137473852Y-102398839D01*
X137638599Y-102645401D01*
X138171932Y-103178734D01*
X138171819Y-103309167D01*
X138313864Y-103652943D01*
X138576654Y-103916192D01*
X138803562Y-104010412D01*
X138786673Y-104027302D01*
X138690000Y-104260691D01*
X138690000Y-104501250D01*
X138848750Y-104660000D01*
X139573000Y-104660000D01*
X139573000Y-104640000D01*
X139827000Y-104640000D01*
X139827000Y-104660000D01*
X140551250Y-104660000D01*
X140710000Y-104501250D01*
X140710000Y-104489448D01*
X140896374Y-104566838D01*
X141143403Y-104567053D01*
X141236350Y-104660000D01*
X141960600Y-104660000D01*
X141960600Y-103957059D01*
X142018011Y-103818799D01*
X142018335Y-103446833D01*
X141919000Y-103206423D01*
X141919000Y-102821596D01*
X142082691Y-102889400D01*
X142323250Y-102889400D01*
X142482000Y-102730650D01*
X142482000Y-102006400D01*
X142462000Y-102006400D01*
X142462000Y-101752400D01*
X142482000Y-101752400D01*
X142482000Y-101028150D01*
X142323250Y-100869400D01*
X142082691Y-100869400D01*
X141849302Y-100966073D01*
X141848019Y-100967355D01*
X141846040Y-100966019D01*
X141846040Y-100951068D01*
X141891017Y-100921523D01*
X142033467Y-100710490D01*
X142083530Y-100460850D01*
X142083530Y-99838890D01*
X142096643Y-99870548D01*
X142275271Y-100049177D01*
X142508660Y-100145850D01*
X142749270Y-100145850D01*
X142908020Y-99987100D01*
X142908020Y-99237800D01*
X142888020Y-99237800D01*
X142888020Y-98983800D01*
X142908020Y-98983800D01*
X142908020Y-98963800D01*
X143162020Y-98963800D01*
X143162020Y-98983800D01*
X143182020Y-98983800D01*
X143182020Y-99237800D01*
X143162020Y-99237800D01*
X143162020Y-99987100D01*
X143258000Y-100083080D01*
X143258000Y-100920220D01*
G36*
X157861000Y-113918500D02*
X145669000Y-113918500D01*
X145669000Y-112738217D01*
X145669000Y-111379000D01*
X145669000Y-111125000D01*
X145669000Y-109765783D01*
X145436974Y-109644642D01*
X145421209Y-109647291D01*
X144893964Y-109901268D01*
X144739758Y-110073860D01*
X144657927Y-109876302D01*
X144479299Y-109697673D01*
X144245910Y-109601000D01*
X143993291Y-109601000D01*
X143541750Y-109601000D01*
X143383000Y-109759750D01*
X143383000Y-111125000D01*
X144455076Y-111125000D01*
X144595850Y-111125000D01*
X145669000Y-111125000D01*
X145669000Y-111379000D01*
X144595850Y-111379000D01*
X144455076Y-111379000D01*
X143383000Y-111379000D01*
X143383000Y-112744250D01*
X143541750Y-112903000D01*
X143993291Y-112903000D01*
X144245910Y-112903000D01*
X144479299Y-112806327D01*
X144657927Y-112627698D01*
X144739758Y-112430139D01*
X144893964Y-112602732D01*
X145421209Y-112856709D01*
X145436974Y-112859358D01*
X145669000Y-112738217D01*
X145669000Y-113918500D01*
X141171002Y-113918500D01*
X141641751Y-113447752D01*
X141641751Y-113447751D01*
X141847686Y-113139550D01*
X141847686Y-113139549D01*
X141859683Y-113079233D01*
X141919999Y-112776000D01*
X141920000Y-112776000D01*
X141920000Y-112693625D01*
X142032701Y-112806327D01*
X142266090Y-112903000D01*
X142518709Y-112903000D01*
X142970250Y-112903000D01*
X143129000Y-112744250D01*
X143129000Y-111379000D01*
X143109000Y-111379000D01*
X143109000Y-111125000D01*
X143129000Y-111125000D01*
X143129000Y-109759750D01*
X142970250Y-109601000D01*
X142518709Y-109601000D01*
X142266090Y-109601000D01*
X142032701Y-109697673D01*
X141920000Y-109810374D01*
X141920000Y-108828102D01*
X142759351Y-107988751D01*
X142965286Y-107680550D01*
X142965286Y-107680549D01*
X142977283Y-107620233D01*
X143037599Y-107317000D01*
X143037600Y-107317000D01*
X143037600Y-106969790D01*
X143059977Y-106936640D01*
X143110040Y-106687000D01*
X143110040Y-105887000D01*
X143063063Y-105644877D01*
X142999504Y-105548120D01*
X143000927Y-105546698D01*
X143097600Y-105313309D01*
X143097600Y-105246788D01*
X145767570Y-107916759D01*
X145891883Y-108217619D01*
X146154673Y-108480868D01*
X146498201Y-108623514D01*
X146870167Y-108623838D01*
X147213943Y-108481793D01*
X147477192Y-108219003D01*
X147508537Y-108143513D01*
X149002400Y-109637376D01*
X149002400Y-109744810D01*
X148909489Y-109682729D01*
X148336000Y-109568655D01*
X147762511Y-109682729D01*
X147276330Y-110007585D01*
X147069539Y-110317069D01*
X146698036Y-109901268D01*
X146170791Y-109647291D01*
X146155026Y-109644642D01*
X145923000Y-109765783D01*
X145923000Y-111125000D01*
X145943000Y-111125000D01*
X145943000Y-111379000D01*
X145923000Y-111379000D01*
X145923000Y-112738217D01*
X146155026Y-112859358D01*
X146170791Y-112856709D01*
X146698036Y-112602732D01*
X147069539Y-112186930D01*
X147276330Y-112496415D01*
X147762511Y-112821271D01*
X148336000Y-112935345D01*
X148909489Y-112821271D01*
X149395670Y-112496415D01*
X149606000Y-112181634D01*
X149816330Y-112496415D01*
X150302511Y-112821271D01*
X150876000Y-112935345D01*
X151449489Y-112821271D01*
X151935670Y-112496415D01*
X152146000Y-112181634D01*
X152356330Y-112496415D01*
X152842511Y-112821271D01*
X153416000Y-112935345D01*
X153989489Y-112821271D01*
X154475670Y-112496415D01*
X154686000Y-112181634D01*
X154896330Y-112496415D01*
X155382511Y-112821271D01*
X155956000Y-112935345D01*
X156529489Y-112821271D01*
X157015670Y-112496415D01*
X157340526Y-112010234D01*
X157454600Y-111436745D01*
X157454600Y-111067255D01*
X157340526Y-110493766D01*
X157015670Y-110007585D01*
X156716000Y-109807351D01*
X156716000Y-109276407D01*
X156785927Y-109230473D01*
X156928377Y-109019440D01*
X156978440Y-108769800D01*
X156978440Y-107969800D01*
X156931463Y-107727677D01*
X156860615Y-107619825D01*
X156928377Y-107519440D01*
X156978440Y-107269800D01*
X156978440Y-106469800D01*
X156931463Y-106227677D01*
X156791673Y-106014873D01*
X156580640Y-105872423D01*
X156331000Y-105822360D01*
X155961080Y-105822360D01*
X155961080Y-104919090D01*
X155961080Y-104679750D01*
X155961080Y-104108250D01*
X155961080Y-103868910D01*
X155864407Y-103635521D01*
X155685778Y-103456893D01*
X155648616Y-103441500D01*
X155685778Y-103426107D01*
X155864407Y-103247479D01*
X155961080Y-103014090D01*
X155961080Y-102774750D01*
X155961080Y-102203250D01*
X155961080Y-101963910D01*
X155864407Y-101730521D01*
X155685778Y-101551893D01*
X155617955Y-101523800D01*
X155685778Y-101495707D01*
X155864407Y-101317079D01*
X155961080Y-101083690D01*
X155961080Y-100844350D01*
X155961080Y-100272850D01*
X155961080Y-100033510D01*
X155864407Y-99800121D01*
X155685778Y-99621493D01*
X155452389Y-99524820D01*
X155213050Y-99524820D01*
X155054300Y-99683570D01*
X155054300Y-100431600D01*
X155802330Y-100431600D01*
X155961080Y-100272850D01*
X155961080Y-100844350D01*
X155802330Y-100685600D01*
X155054300Y-100685600D01*
X155054300Y-101433630D01*
X155144470Y-101523800D01*
X155054300Y-101613970D01*
X155054300Y-102362000D01*
X155802330Y-102362000D01*
X155961080Y-102203250D01*
X155961080Y-102774750D01*
X155802330Y-102616000D01*
X155054300Y-102616000D01*
X155054300Y-103364030D01*
X155131770Y-103441500D01*
X155054300Y-103518970D01*
X155054300Y-104267000D01*
X155802330Y-104267000D01*
X155961080Y-104108250D01*
X155961080Y-104679750D01*
X155802330Y-104521000D01*
X155054300Y-104521000D01*
X155054300Y-105269030D01*
X155213050Y-105427780D01*
X155452389Y-105427780D01*
X155685778Y-105331107D01*
X155864407Y-105152479D01*
X155961080Y-104919090D01*
X155961080Y-105822360D01*
X155581000Y-105822360D01*
X155338877Y-105869337D01*
X155126073Y-106009127D01*
X155058117Y-106109800D01*
X153878198Y-106109800D01*
X153861640Y-106098623D01*
X153612000Y-106048560D01*
X153447485Y-106048560D01*
X153598881Y-105947401D01*
X153966101Y-105580181D01*
X153966102Y-105580181D01*
X154107753Y-105368181D01*
X154107754Y-105368181D01*
X154166986Y-105329271D01*
X154168822Y-105331107D01*
X154402211Y-105427780D01*
X154641550Y-105427780D01*
X154800300Y-105269030D01*
X154800300Y-104521000D01*
X154780300Y-104521000D01*
X154780300Y-104267000D01*
X154800300Y-104267000D01*
X154800300Y-103518970D01*
X154722830Y-103441500D01*
X154800300Y-103364030D01*
X154800300Y-102616000D01*
X154780300Y-102616000D01*
X154780300Y-102362000D01*
X154800300Y-102362000D01*
X154800300Y-101613970D01*
X154710130Y-101523800D01*
X154800300Y-101433630D01*
X154800300Y-100685600D01*
X154780300Y-100685600D01*
X154780300Y-100431600D01*
X154800300Y-100431600D01*
X154800300Y-99683570D01*
X154641550Y-99524820D01*
X154402211Y-99524820D01*
X154168822Y-99621493D01*
X154167120Y-99623194D01*
X154106176Y-99582056D01*
X154106175Y-99582055D01*
X153966101Y-99372419D01*
X153751281Y-99157599D01*
X153504719Y-98992852D01*
X153213880Y-98935000D01*
X150259802Y-98935000D01*
X148925440Y-97600638D01*
X148925440Y-97528000D01*
X148878463Y-97285877D01*
X148738673Y-97073073D01*
X148672471Y-97028386D01*
X148732927Y-96988673D01*
X148875377Y-96777640D01*
X148925440Y-96528000D01*
X148925440Y-96028000D01*
X148878463Y-95785877D01*
X148738673Y-95573073D01*
X148527640Y-95430623D01*
X148278000Y-95380560D01*
X148249487Y-95380560D01*
X148357910Y-95272327D01*
X148500556Y-94928799D01*
X148500880Y-94556833D01*
X148358835Y-94213057D01*
X148096045Y-93949808D01*
X147752517Y-93807162D01*
X147380551Y-93806838D01*
X147036775Y-93948883D01*
X146773526Y-94211673D01*
X146630880Y-94555201D01*
X146630847Y-94592532D01*
X146526527Y-94340057D01*
X146263737Y-94076808D01*
X146086099Y-94003046D01*
X146086182Y-93908847D01*
X145944137Y-93565071D01*
X145681347Y-93301822D01*
X145377650Y-93175715D01*
X145486844Y-92912750D01*
X145487168Y-92540784D01*
X145451309Y-92454000D01*
X145796000Y-92454000D01*
X146086839Y-92396148D01*
X146333401Y-92231401D01*
X147095401Y-91469401D01*
X147260148Y-91222839D01*
X147318000Y-90932000D01*
X147318000Y-90551000D01*
X147260148Y-90260161D01*
X147260148Y-90260160D01*
X147095401Y-90013599D01*
X146948663Y-89866861D01*
X146987000Y-89774310D01*
X146987000Y-89694250D01*
X146828250Y-89535500D01*
X146526228Y-89535500D01*
X146352000Y-89500560D01*
X146194440Y-89500560D01*
X146194440Y-89423000D01*
X146194440Y-89345440D01*
X146352000Y-89345440D01*
X146532083Y-89310500D01*
X146828250Y-89310500D01*
X146987000Y-89151750D01*
X146987000Y-89071690D01*
X146940849Y-88960273D01*
X146949377Y-88947640D01*
X146999440Y-88698000D01*
X146999440Y-88248000D01*
X146952463Y-88005877D01*
X146812673Y-87793073D01*
X146601640Y-87650623D01*
X146352000Y-87600560D01*
X145907655Y-87600560D01*
X145796640Y-87525623D01*
X145547000Y-87475560D01*
X144697000Y-87475560D01*
X143847000Y-87475560D01*
X143604877Y-87522537D01*
X143486101Y-87600560D01*
X143263000Y-87600560D01*
X143263000Y-86861310D01*
X143263000Y-86645750D01*
X143104250Y-86487000D01*
X142355000Y-86487000D01*
X142355000Y-87211250D01*
X142513750Y-87370000D01*
X142754309Y-87370000D01*
X142987698Y-87273327D01*
X143166327Y-87094699D01*
X143263000Y-86861310D01*
X143263000Y-87600560D01*
X143042000Y-87600560D01*
X142799877Y-87647537D01*
X142587073Y-87787327D01*
X142444623Y-87998360D01*
X142394560Y-88248000D01*
X142394560Y-88282368D01*
X142261673Y-88080073D01*
X142050640Y-87937623D01*
X141801000Y-87887560D01*
X141599072Y-87887560D01*
X141538000Y-87826487D01*
X141538000Y-87302196D01*
X141701691Y-87370000D01*
X141942250Y-87370000D01*
X142101000Y-87211250D01*
X142101000Y-86487000D01*
X142081000Y-86487000D01*
X142081000Y-86233000D01*
X142101000Y-86233000D01*
X142101000Y-85508750D01*
X141942250Y-85350000D01*
X141701691Y-85350000D01*
X141468302Y-85446673D01*
X141467019Y-85447955D01*
X141377640Y-85387623D01*
X141128000Y-85337560D01*
X140328000Y-85337560D01*
X140085877Y-85384537D01*
X139873073Y-85524327D01*
X139855743Y-85550000D01*
X139700000Y-85550000D01*
X139527896Y-85584233D01*
X139390027Y-85611657D01*
X139127244Y-85787243D01*
X138602487Y-86312000D01*
X138532450Y-86312000D01*
X138231809Y-86187162D01*
X138180000Y-86187116D01*
X138180000Y-85499003D01*
X138212192Y-85466868D01*
X138354838Y-85123340D01*
X138355162Y-84751374D01*
X138213117Y-84407598D01*
X137950327Y-84144349D01*
X137606799Y-84001703D01*
X137459083Y-84001574D01*
X137420000Y-83993800D01*
X137381256Y-84001506D01*
X137234833Y-84001379D01*
X136891057Y-84143424D01*
X136627808Y-84406214D01*
X136499588Y-84715000D01*
X136290750Y-84715000D01*
X136132000Y-84873750D01*
X136132000Y-85598000D01*
X136152000Y-85598000D01*
X136152000Y-85852000D01*
X136132000Y-85852000D01*
X136132000Y-86576250D01*
X136290750Y-86735000D01*
X136531309Y-86735000D01*
X136660000Y-86681694D01*
X136660000Y-87012560D01*
X136345000Y-87012560D01*
X136240313Y-87032871D01*
X136221310Y-87025000D01*
X136105750Y-87025000D01*
X136010590Y-87120159D01*
X135947002Y-87161930D01*
X135947002Y-87025000D01*
X135830000Y-87025000D01*
X135830000Y-86624250D01*
X135878000Y-86576250D01*
X135878000Y-85852000D01*
X135858000Y-85852000D01*
X135858000Y-85598000D01*
X135878000Y-85598000D01*
X135878000Y-84873750D01*
X135719250Y-84715000D01*
X135478691Y-84715000D01*
X135245302Y-84811673D01*
X135244019Y-84812955D01*
X135154640Y-84752623D01*
X134905000Y-84702560D01*
X134105000Y-84702560D01*
X133862877Y-84749537D01*
X133650073Y-84889327D01*
X133507623Y-85100360D01*
X133457560Y-85350000D01*
X133457560Y-85360927D01*
X133394377Y-85424109D01*
X133342258Y-85344767D01*
X133383327Y-85303698D01*
X133480000Y-85070309D01*
X133480000Y-84529750D01*
X133321250Y-84371000D01*
X132372000Y-84371000D01*
X132372000Y-84391000D01*
X132118000Y-84391000D01*
X132118000Y-84371000D01*
X132098000Y-84371000D01*
X132098000Y-84117000D01*
X132118000Y-84117000D01*
X132118000Y-84097000D01*
X132372000Y-84097000D01*
X132372000Y-84117000D01*
X133321250Y-84117000D01*
X133480000Y-83958250D01*
X133480000Y-83589870D01*
X134223690Y-83589870D01*
X134465813Y-83542893D01*
X134678617Y-83403103D01*
X134772997Y-83263282D01*
X134986987Y-83477646D01*
X135587513Y-83727006D01*
X136237754Y-83727574D01*
X136838715Y-83479262D01*
X137298906Y-83019873D01*
X137548266Y-82419347D01*
X137548834Y-81769106D01*
X137300522Y-81168145D01*
X136841133Y-80707954D01*
X136240607Y-80458594D01*
X135590366Y-80458026D01*
X134989405Y-80706338D01*
X134772678Y-80922686D01*
X134684363Y-80788243D01*
X134473330Y-80645793D01*
X134223690Y-80595730D01*
X132524430Y-80595730D01*
X132282307Y-80642707D01*
X132069503Y-80782497D01*
X131927053Y-80993530D01*
X131876990Y-81243170D01*
X131876990Y-82909000D01*
X131771309Y-82909000D01*
X131518690Y-82909000D01*
X131449644Y-82937599D01*
X131245000Y-82896560D01*
X130045000Y-82896560D01*
X129802877Y-82943537D01*
X129590073Y-83083327D01*
X129447623Y-83294360D01*
X129397560Y-83544000D01*
X129397560Y-84643638D01*
X129252990Y-84788208D01*
X129252990Y-83007403D01*
X129004678Y-82406442D01*
X128545289Y-81946251D01*
X127944763Y-81696891D01*
X127294522Y-81696323D01*
X126693561Y-81944635D01*
X126233370Y-82404024D01*
X126115933Y-82686841D01*
X125982891Y-82596428D01*
X125733409Y-82545581D01*
X125483613Y-82594861D01*
X123913702Y-83245140D01*
X123707987Y-83381199D01*
X123564877Y-83591784D01*
X123514030Y-83841266D01*
X123563310Y-84091062D01*
X124213589Y-85660973D01*
X124349648Y-85866688D01*
X124560233Y-86009798D01*
X124809715Y-86060645D01*
X125059511Y-86011365D01*
X126629422Y-85361086D01*
X126835137Y-85225027D01*
X126978247Y-85014442D01*
X127011935Y-84849147D01*
X127291669Y-84965303D01*
X127941910Y-84965871D01*
X128542871Y-84717559D01*
X129003062Y-84258170D01*
X129252422Y-83657644D01*
X129252990Y-83007403D01*
X129252990Y-84788208D01*
X129002599Y-85038599D01*
X128837852Y-85285161D01*
X128780000Y-85576000D01*
X128780000Y-87224002D01*
X128837852Y-87514841D01*
X129002599Y-87761403D01*
X130228756Y-88987560D01*
X129570000Y-88987560D01*
X129327877Y-89034537D01*
X129115073Y-89174327D01*
X128972623Y-89385360D01*
X128922560Y-89635000D01*
X128922560Y-90037758D01*
X128027848Y-89143046D01*
X128218397Y-89064314D01*
X128481646Y-88801524D01*
X128624292Y-88457996D01*
X128624616Y-88086030D01*
X128482571Y-87742254D01*
X128219781Y-87479005D01*
X127876253Y-87336359D01*
X127504287Y-87336035D01*
X127160511Y-87478080D01*
X127133543Y-87505000D01*
X121996822Y-87505000D01*
X121997078Y-87213002D01*
X121748766Y-86612041D01*
X121289377Y-86151850D01*
X120688851Y-85902490D01*
X120038610Y-85901922D01*
X119437649Y-86150234D01*
X118977458Y-86609623D01*
X118728098Y-87210149D01*
X118727830Y-87516380D01*
X118570315Y-87483762D01*
X118320365Y-87532259D01*
X118108443Y-87673381D01*
X116906885Y-88874939D01*
X116768896Y-89079364D01*
X116717266Y-89328685D01*
X116765763Y-89578635D01*
X116906885Y-89790557D01*
X118049763Y-90933435D01*
X116556599Y-92426599D01*
X116391852Y-92673161D01*
X116348828Y-92889452D01*
X116198576Y-92738938D01*
X115598050Y-92489578D01*
X114947809Y-92489010D01*
X114346848Y-92737322D01*
X113886657Y-93196711D01*
X113637297Y-93797237D01*
X113636729Y-94447478D01*
X113753671Y-94730499D01*
X113595665Y-94760643D01*
X113383300Y-94901099D01*
X113241514Y-95112578D01*
X112591235Y-96682489D01*
X112541980Y-96924159D01*
X112589692Y-97174260D01*
X112730148Y-97386625D01*
X112941627Y-97528411D01*
X114511538Y-98178690D01*
X114753208Y-98227945D01*
X115003309Y-98180233D01*
X115215674Y-98039777D01*
X115357460Y-97828298D01*
X116007739Y-96258387D01*
X116056994Y-96016717D01*
X116009282Y-95766616D01*
X115916222Y-95625912D01*
X116196158Y-95510246D01*
X116334000Y-95372644D01*
X116334000Y-98872198D01*
X116328973Y-98877224D01*
X115951000Y-98802041D01*
X115377511Y-98916115D01*
X114891330Y-99240971D01*
X114675336Y-99564228D01*
X114617821Y-99441510D01*
X114185947Y-99047312D01*
X113770026Y-98875042D01*
X113538000Y-98996183D01*
X113538000Y-100203000D01*
X113558000Y-100203000D01*
X113558000Y-100457000D01*
X113538000Y-100457000D01*
X113538000Y-100477000D01*
X113284000Y-100477000D01*
X113284000Y-100457000D01*
X113284000Y-100203000D01*
X113284000Y-98996183D01*
X113051974Y-98875042D01*
X112636053Y-99047312D01*
X112204179Y-99441510D01*
X111956032Y-99970973D01*
X112076531Y-100203000D01*
X113284000Y-100203000D01*
X113284000Y-100457000D01*
X112076531Y-100457000D01*
X111956032Y-100689027D01*
X112204179Y-101218490D01*
X112622160Y-101600007D01*
X112351330Y-101780971D01*
X112026474Y-102267152D01*
X111912400Y-102840641D01*
X111912400Y-102899359D01*
X112026474Y-103472848D01*
X112351330Y-103959029D01*
X112622172Y-104140000D01*
X112351330Y-104320971D01*
X112026474Y-104807152D01*
X111912400Y-105380641D01*
X111912400Y-105439359D01*
X111933261Y-105544236D01*
X111875650Y-105601848D01*
X111669715Y-105910049D01*
X111657717Y-105970365D01*
X111597401Y-106273599D01*
X111597401Y-110874891D01*
X111657717Y-111178124D01*
X111669715Y-111238441D01*
X111875650Y-111546642D01*
X112506759Y-112177752D01*
X112814960Y-112383686D01*
X112814961Y-112383686D01*
X112875276Y-112395683D01*
X113161070Y-112452530D01*
X113161070Y-112505490D01*
X113208047Y-112747613D01*
X113347837Y-112960417D01*
X113558870Y-113102867D01*
X113808510Y-113152930D01*
X113861469Y-113152930D01*
X113918316Y-113438723D01*
X113930314Y-113499040D01*
X114136249Y-113807241D01*
X114247507Y-113918500D01*
X111379500Y-113918500D01*
X111379500Y-97305207D01*
X112056299Y-95613208D01*
X114023734Y-91801776D01*
X114062491Y-91859780D01*
X114637606Y-92244060D01*
X115316000Y-92379001D01*
X115994394Y-92244060D01*
X116569509Y-91859780D01*
X116953789Y-91284665D01*
X117088730Y-90606271D01*
X116953789Y-89927877D01*
X116569509Y-89352762D01*
X115994394Y-88968482D01*
X115533576Y-88876819D01*
X115697209Y-88559819D01*
X122908553Y-82466293D01*
X131902864Y-79596269D01*
X141310829Y-80386685D01*
X142208777Y-80850200D01*
X140385800Y-80850200D01*
X140094961Y-80908052D01*
X139848399Y-81072799D01*
X139070680Y-81850517D01*
X138969360Y-81892382D01*
X138706111Y-82155172D01*
X138563465Y-82498700D01*
X138563141Y-82870666D01*
X138705186Y-83214442D01*
X138967976Y-83477691D01*
X139311504Y-83620337D01*
X139683470Y-83620661D01*
X139937559Y-83515673D01*
X139897055Y-83714408D01*
X139944767Y-83964509D01*
X140085223Y-84176874D01*
X140296702Y-84318660D01*
X141866613Y-84968939D01*
X142108283Y-85018194D01*
X142358384Y-84970482D01*
X142499087Y-84877422D01*
X142614754Y-85157358D01*
X142844250Y-85387254D01*
X142754309Y-85350000D01*
X142513750Y-85350000D01*
X142355000Y-85508750D01*
X142355000Y-86233000D01*
X143104250Y-86233000D01*
X143263000Y-86074250D01*
X143263000Y-85858690D01*
X143181597Y-85662168D01*
X143674669Y-85866909D01*
X144324910Y-85867477D01*
X144925871Y-85619165D01*
X145386062Y-85159776D01*
X145635422Y-84559250D01*
X145635990Y-83909009D01*
X145387678Y-83308048D01*
X144928289Y-82847857D01*
X144327763Y-82598497D01*
X143677522Y-82597929D01*
X143394500Y-82714871D01*
X143364357Y-82556865D01*
X143240898Y-82370200D01*
X145049398Y-82370200D01*
X148465372Y-85786174D01*
X148444339Y-85800181D01*
X147242781Y-87001739D01*
X147104792Y-87206164D01*
X147053162Y-87455485D01*
X147101659Y-87705435D01*
X147242781Y-87917357D01*
X148444339Y-89118915D01*
X148648764Y-89256904D01*
X148898085Y-89308534D01*
X149063690Y-89276402D01*
X149063426Y-89579294D01*
X149311738Y-90180255D01*
X149771127Y-90640446D01*
X150371653Y-90889806D01*
X151021894Y-90890374D01*
X151622855Y-90642062D01*
X151767000Y-90498168D01*
X151767000Y-91313000D01*
X151824852Y-91603839D01*
X151989599Y-91850401D01*
X152878599Y-92739401D01*
X153123211Y-92902845D01*
X152610124Y-93115373D01*
X152404409Y-93251432D01*
X152261299Y-93462017D01*
X152210452Y-93711499D01*
X152259732Y-93961295D01*
X152910011Y-95531206D01*
X153046070Y-95736921D01*
X153256655Y-95880031D01*
X153421949Y-95913719D01*
X153305794Y-96193453D01*
X153305226Y-96843694D01*
X153553538Y-97444655D01*
X154012927Y-97904846D01*
X154613453Y-98154206D01*
X155263694Y-98154774D01*
X155864655Y-97906462D01*
X156129888Y-97641690D01*
X156466004Y-97977806D01*
X156466004Y-103323537D01*
X156433812Y-103355673D01*
X156291166Y-103699201D01*
X156290842Y-104071167D01*
X156432887Y-104414943D01*
X156695677Y-104678192D01*
X157039205Y-104820838D01*
X157411171Y-104821162D01*
X157754947Y-104679117D01*
X157861000Y-104573248D01*
X157861000Y-113918500D01*
X157861000Y-113918500D01*
G37*
X157861000Y-113918500D02*
X145669000Y-113918500D01*
X145669000Y-112738217D01*
X145669000Y-111379000D01*
X145669000Y-111125000D01*
X145669000Y-109765783D01*
X145436974Y-109644642D01*
X145421209Y-109647291D01*
X144893964Y-109901268D01*
X144739758Y-110073860D01*
X144657927Y-109876302D01*
X144479299Y-109697673D01*
X144245910Y-109601000D01*
X143993291Y-109601000D01*
X143541750Y-109601000D01*
X143383000Y-109759750D01*
X143383000Y-111125000D01*
X144455076Y-111125000D01*
X144595850Y-111125000D01*
X145669000Y-111125000D01*
X145669000Y-111379000D01*
X144595850Y-111379000D01*
X144455076Y-111379000D01*
X143383000Y-111379000D01*
X143383000Y-112744250D01*
X143541750Y-112903000D01*
X143993291Y-112903000D01*
X144245910Y-112903000D01*
X144479299Y-112806327D01*
X144657927Y-112627698D01*
X144739758Y-112430139D01*
X144893964Y-112602732D01*
X145421209Y-112856709D01*
X145436974Y-112859358D01*
X145669000Y-112738217D01*
X145669000Y-113918500D01*
X141171002Y-113918500D01*
X141641751Y-113447752D01*
X141641751Y-113447751D01*
X141847686Y-113139550D01*
X141847686Y-113139549D01*
X141859683Y-113079233D01*
X141919999Y-112776000D01*
X141920000Y-112776000D01*
X141920000Y-112693625D01*
X142032701Y-112806327D01*
X142266090Y-112903000D01*
X142518709Y-112903000D01*
X142970250Y-112903000D01*
X143129000Y-112744250D01*
X143129000Y-111379000D01*
X143109000Y-111379000D01*
X143109000Y-111125000D01*
X143129000Y-111125000D01*
X143129000Y-109759750D01*
X142970250Y-109601000D01*
X142518709Y-109601000D01*
X142266090Y-109601000D01*
X142032701Y-109697673D01*
X141920000Y-109810374D01*
X141920000Y-108828102D01*
X142759351Y-107988751D01*
X142965286Y-107680550D01*
X142965286Y-107680549D01*
X142977283Y-107620233D01*
X143037599Y-107317000D01*
X143037600Y-107317000D01*
X143037600Y-106969790D01*
X143059977Y-106936640D01*
X143110040Y-106687000D01*
X143110040Y-105887000D01*
X143063063Y-105644877D01*
X142999504Y-105548120D01*
X143000927Y-105546698D01*
X143097600Y-105313309D01*
X143097600Y-105246788D01*
X145767570Y-107916759D01*
X145891883Y-108217619D01*
X146154673Y-108480868D01*
X146498201Y-108623514D01*
X146870167Y-108623838D01*
X147213943Y-108481793D01*
X147477192Y-108219003D01*
X147508537Y-108143513D01*
X149002400Y-109637376D01*
X149002400Y-109744810D01*
X148909489Y-109682729D01*
X148336000Y-109568655D01*
X147762511Y-109682729D01*
X147276330Y-110007585D01*
X147069539Y-110317069D01*
X146698036Y-109901268D01*
X146170791Y-109647291D01*
X146155026Y-109644642D01*
X145923000Y-109765783D01*
X145923000Y-111125000D01*
X145943000Y-111125000D01*
X145943000Y-111379000D01*
X145923000Y-111379000D01*
X145923000Y-112738217D01*
X146155026Y-112859358D01*
X146170791Y-112856709D01*
X146698036Y-112602732D01*
X147069539Y-112186930D01*
X147276330Y-112496415D01*
X147762511Y-112821271D01*
X148336000Y-112935345D01*
X148909489Y-112821271D01*
X149395670Y-112496415D01*
X149606000Y-112181634D01*
X149816330Y-112496415D01*
X150302511Y-112821271D01*
X150876000Y-112935345D01*
X151449489Y-112821271D01*
X151935670Y-112496415D01*
X152146000Y-112181634D01*
X152356330Y-112496415D01*
X152842511Y-112821271D01*
X153416000Y-112935345D01*
X153989489Y-112821271D01*
X154475670Y-112496415D01*
X154686000Y-112181634D01*
X154896330Y-112496415D01*
X155382511Y-112821271D01*
X155956000Y-112935345D01*
X156529489Y-112821271D01*
X157015670Y-112496415D01*
X157340526Y-112010234D01*
X157454600Y-111436745D01*
X157454600Y-111067255D01*
X157340526Y-110493766D01*
X157015670Y-110007585D01*
X156716000Y-109807351D01*
X156716000Y-109276407D01*
X156785927Y-109230473D01*
X156928377Y-109019440D01*
X156978440Y-108769800D01*
X156978440Y-107969800D01*
X156931463Y-107727677D01*
X156860615Y-107619825D01*
X156928377Y-107519440D01*
X156978440Y-107269800D01*
X156978440Y-106469800D01*
X156931463Y-106227677D01*
X156791673Y-106014873D01*
X156580640Y-105872423D01*
X156331000Y-105822360D01*
X155961080Y-105822360D01*
X155961080Y-104919090D01*
X155961080Y-104679750D01*
X155961080Y-104108250D01*
X155961080Y-103868910D01*
X155864407Y-103635521D01*
X155685778Y-103456893D01*
X155648616Y-103441500D01*
X155685778Y-103426107D01*
X155864407Y-103247479D01*
X155961080Y-103014090D01*
X155961080Y-102774750D01*
X155961080Y-102203250D01*
X155961080Y-101963910D01*
X155864407Y-101730521D01*
X155685778Y-101551893D01*
X155617955Y-101523800D01*
X155685778Y-101495707D01*
X155864407Y-101317079D01*
X155961080Y-101083690D01*
X155961080Y-100844350D01*
X155961080Y-100272850D01*
X155961080Y-100033510D01*
X155864407Y-99800121D01*
X155685778Y-99621493D01*
X155452389Y-99524820D01*
X155213050Y-99524820D01*
X155054300Y-99683570D01*
X155054300Y-100431600D01*
X155802330Y-100431600D01*
X155961080Y-100272850D01*
X155961080Y-100844350D01*
X155802330Y-100685600D01*
X155054300Y-100685600D01*
X155054300Y-101433630D01*
X155144470Y-101523800D01*
X155054300Y-101613970D01*
X155054300Y-102362000D01*
X155802330Y-102362000D01*
X155961080Y-102203250D01*
X155961080Y-102774750D01*
X155802330Y-102616000D01*
X155054300Y-102616000D01*
X155054300Y-103364030D01*
X155131770Y-103441500D01*
X155054300Y-103518970D01*
X155054300Y-104267000D01*
X155802330Y-104267000D01*
X155961080Y-104108250D01*
X155961080Y-104679750D01*
X155802330Y-104521000D01*
X155054300Y-104521000D01*
X155054300Y-105269030D01*
X155213050Y-105427780D01*
X155452389Y-105427780D01*
X155685778Y-105331107D01*
X155864407Y-105152479D01*
X155961080Y-104919090D01*
X155961080Y-105822360D01*
X155581000Y-105822360D01*
X155338877Y-105869337D01*
X155126073Y-106009127D01*
X155058117Y-106109800D01*
X153878198Y-106109800D01*
X153861640Y-106098623D01*
X153612000Y-106048560D01*
X153447485Y-106048560D01*
X153598881Y-105947401D01*
X153966101Y-105580181D01*
X153966102Y-105580181D01*
X154107753Y-105368181D01*
X154107754Y-105368181D01*
X154166986Y-105329271D01*
X154168822Y-105331107D01*
X154402211Y-105427780D01*
X154641550Y-105427780D01*
X154800300Y-105269030D01*
X154800300Y-104521000D01*
X154780300Y-104521000D01*
X154780300Y-104267000D01*
X154800300Y-104267000D01*
X154800300Y-103518970D01*
X154722830Y-103441500D01*
X154800300Y-103364030D01*
X154800300Y-102616000D01*
X154780300Y-102616000D01*
X154780300Y-102362000D01*
X154800300Y-102362000D01*
X154800300Y-101613970D01*
X154710130Y-101523800D01*
X154800300Y-101433630D01*
X154800300Y-100685600D01*
X154780300Y-100685600D01*
X154780300Y-100431600D01*
X154800300Y-100431600D01*
X154800300Y-99683570D01*
X154641550Y-99524820D01*
X154402211Y-99524820D01*
X154168822Y-99621493D01*
X154167120Y-99623194D01*
X154106176Y-99582056D01*
X154106175Y-99582055D01*
X153966101Y-99372419D01*
X153751281Y-99157599D01*
X153504719Y-98992852D01*
X153213880Y-98935000D01*
X150259802Y-98935000D01*
X148925440Y-97600638D01*
X148925440Y-97528000D01*
X148878463Y-97285877D01*
X148738673Y-97073073D01*
X148672471Y-97028386D01*
X148732927Y-96988673D01*
X148875377Y-96777640D01*
X148925440Y-96528000D01*
X148925440Y-96028000D01*
X148878463Y-95785877D01*
X148738673Y-95573073D01*
X148527640Y-95430623D01*
X148278000Y-95380560D01*
X148249487Y-95380560D01*
X148357910Y-95272327D01*
X148500556Y-94928799D01*
X148500880Y-94556833D01*
X148358835Y-94213057D01*
X148096045Y-93949808D01*
X147752517Y-93807162D01*
X147380551Y-93806838D01*
X147036775Y-93948883D01*
X146773526Y-94211673D01*
X146630880Y-94555201D01*
X146630847Y-94592532D01*
X146526527Y-94340057D01*
X146263737Y-94076808D01*
X146086099Y-94003046D01*
X146086182Y-93908847D01*
X145944137Y-93565071D01*
X145681347Y-93301822D01*
X145377650Y-93175715D01*
X145486844Y-92912750D01*
X145487168Y-92540784D01*
X145451309Y-92454000D01*
X145796000Y-92454000D01*
X146086839Y-92396148D01*
X146333401Y-92231401D01*
X147095401Y-91469401D01*
X147260148Y-91222839D01*
X147318000Y-90932000D01*
X147318000Y-90551000D01*
X147260148Y-90260161D01*
X147260148Y-90260160D01*
X147095401Y-90013599D01*
X146948663Y-89866861D01*
X146987000Y-89774310D01*
X146987000Y-89694250D01*
X146828250Y-89535500D01*
X146526228Y-89535500D01*
X146352000Y-89500560D01*
X146194440Y-89500560D01*
X146194440Y-89423000D01*
X146194440Y-89345440D01*
X146352000Y-89345440D01*
X146532083Y-89310500D01*
X146828250Y-89310500D01*
X146987000Y-89151750D01*
X146987000Y-89071690D01*
X146940849Y-88960273D01*
X146949377Y-88947640D01*
X146999440Y-88698000D01*
X146999440Y-88248000D01*
X146952463Y-88005877D01*
X146812673Y-87793073D01*
X146601640Y-87650623D01*
X146352000Y-87600560D01*
X145907655Y-87600560D01*
X145796640Y-87525623D01*
X145547000Y-87475560D01*
X144697000Y-87475560D01*
X143847000Y-87475560D01*
X143604877Y-87522537D01*
X143486101Y-87600560D01*
X143263000Y-87600560D01*
X143263000Y-86861310D01*
X143263000Y-86645750D01*
X143104250Y-86487000D01*
X142355000Y-86487000D01*
X142355000Y-87211250D01*
X142513750Y-87370000D01*
X142754309Y-87370000D01*
X142987698Y-87273327D01*
X143166327Y-87094699D01*
X143263000Y-86861310D01*
X143263000Y-87600560D01*
X143042000Y-87600560D01*
X142799877Y-87647537D01*
X142587073Y-87787327D01*
X142444623Y-87998360D01*
X142394560Y-88248000D01*
X142394560Y-88282368D01*
X142261673Y-88080073D01*
X142050640Y-87937623D01*
X141801000Y-87887560D01*
X141599072Y-87887560D01*
X141538000Y-87826487D01*
X141538000Y-87302196D01*
X141701691Y-87370000D01*
X141942250Y-87370000D01*
X142101000Y-87211250D01*
X142101000Y-86487000D01*
X142081000Y-86487000D01*
X142081000Y-86233000D01*
X142101000Y-86233000D01*
X142101000Y-85508750D01*
X141942250Y-85350000D01*
X141701691Y-85350000D01*
X141468302Y-85446673D01*
X141467019Y-85447955D01*
X141377640Y-85387623D01*
X141128000Y-85337560D01*
X140328000Y-85337560D01*
X140085877Y-85384537D01*
X139873073Y-85524327D01*
X139855743Y-85550000D01*
X139700000Y-85550000D01*
X139527896Y-85584233D01*
X139390027Y-85611657D01*
X139127244Y-85787243D01*
X138602487Y-86312000D01*
X138532450Y-86312000D01*
X138231809Y-86187162D01*
X138180000Y-86187116D01*
X138180000Y-85499003D01*
X138212192Y-85466868D01*
X138354838Y-85123340D01*
X138355162Y-84751374D01*
X138213117Y-84407598D01*
X137950327Y-84144349D01*
X137606799Y-84001703D01*
X137459083Y-84001574D01*
X137420000Y-83993800D01*
X137381256Y-84001506D01*
X137234833Y-84001379D01*
X136891057Y-84143424D01*
X136627808Y-84406214D01*
X136499588Y-84715000D01*
X136290750Y-84715000D01*
X136132000Y-84873750D01*
X136132000Y-85598000D01*
X136152000Y-85598000D01*
X136152000Y-85852000D01*
X136132000Y-85852000D01*
X136132000Y-86576250D01*
X136290750Y-86735000D01*
X136531309Y-86735000D01*
X136660000Y-86681694D01*
X136660000Y-87012560D01*
X136345000Y-87012560D01*
X136240313Y-87032871D01*
X136221310Y-87025000D01*
X136105750Y-87025000D01*
X136010590Y-87120159D01*
X135947002Y-87161930D01*
X135947002Y-87025000D01*
X135830000Y-87025000D01*
X135830000Y-86624250D01*
X135878000Y-86576250D01*
X135878000Y-85852000D01*
X135858000Y-85852000D01*
X135858000Y-85598000D01*
X135878000Y-85598000D01*
X135878000Y-84873750D01*
X135719250Y-84715000D01*
X135478691Y-84715000D01*
X135245302Y-84811673D01*
X135244019Y-84812955D01*
X135154640Y-84752623D01*
X134905000Y-84702560D01*
X134105000Y-84702560D01*
X133862877Y-84749537D01*
X133650073Y-84889327D01*
X133507623Y-85100360D01*
X133457560Y-85350000D01*
X133457560Y-85360927D01*
X133394377Y-85424109D01*
X133342258Y-85344767D01*
X133383327Y-85303698D01*
X133480000Y-85070309D01*
X133480000Y-84529750D01*
X133321250Y-84371000D01*
X132372000Y-84371000D01*
X132372000Y-84391000D01*
X132118000Y-84391000D01*
X132118000Y-84371000D01*
X132098000Y-84371000D01*
X132098000Y-84117000D01*
X132118000Y-84117000D01*
X132118000Y-84097000D01*
X132372000Y-84097000D01*
X132372000Y-84117000D01*
X133321250Y-84117000D01*
X133480000Y-83958250D01*
X133480000Y-83589870D01*
X134223690Y-83589870D01*
X134465813Y-83542893D01*
X134678617Y-83403103D01*
X134772997Y-83263282D01*
X134986987Y-83477646D01*
X135587513Y-83727006D01*
X136237754Y-83727574D01*
X136838715Y-83479262D01*
X137298906Y-83019873D01*
X137548266Y-82419347D01*
X137548834Y-81769106D01*
X137300522Y-81168145D01*
X136841133Y-80707954D01*
X136240607Y-80458594D01*
X135590366Y-80458026D01*
X134989405Y-80706338D01*
X134772678Y-80922686D01*
X134684363Y-80788243D01*
X134473330Y-80645793D01*
X134223690Y-80595730D01*
X132524430Y-80595730D01*
X132282307Y-80642707D01*
X132069503Y-80782497D01*
X131927053Y-80993530D01*
X131876990Y-81243170D01*
X131876990Y-82909000D01*
X131771309Y-82909000D01*
X131518690Y-82909000D01*
X131449644Y-82937599D01*
X131245000Y-82896560D01*
X130045000Y-82896560D01*
X129802877Y-82943537D01*
X129590073Y-83083327D01*
X129447623Y-83294360D01*
X129397560Y-83544000D01*
X129397560Y-84643638D01*
X129252990Y-84788208D01*
X129252990Y-83007403D01*
X129004678Y-82406442D01*
X128545289Y-81946251D01*
X127944763Y-81696891D01*
X127294522Y-81696323D01*
X126693561Y-81944635D01*
X126233370Y-82404024D01*
X126115933Y-82686841D01*
X125982891Y-82596428D01*
X125733409Y-82545581D01*
X125483613Y-82594861D01*
X123913702Y-83245140D01*
X123707987Y-83381199D01*
X123564877Y-83591784D01*
X123514030Y-83841266D01*
X123563310Y-84091062D01*
X124213589Y-85660973D01*
X124349648Y-85866688D01*
X124560233Y-86009798D01*
X124809715Y-86060645D01*
X125059511Y-86011365D01*
X126629422Y-85361086D01*
X126835137Y-85225027D01*
X126978247Y-85014442D01*
X127011935Y-84849147D01*
X127291669Y-84965303D01*
X127941910Y-84965871D01*
X128542871Y-84717559D01*
X129003062Y-84258170D01*
X129252422Y-83657644D01*
X129252990Y-83007403D01*
X129252990Y-84788208D01*
X129002599Y-85038599D01*
X128837852Y-85285161D01*
X128780000Y-85576000D01*
X128780000Y-87224002D01*
X128837852Y-87514841D01*
X129002599Y-87761403D01*
X130228756Y-88987560D01*
X129570000Y-88987560D01*
X129327877Y-89034537D01*
X129115073Y-89174327D01*
X128972623Y-89385360D01*
X128922560Y-89635000D01*
X128922560Y-90037758D01*
X128027848Y-89143046D01*
X128218397Y-89064314D01*
X128481646Y-88801524D01*
X128624292Y-88457996D01*
X128624616Y-88086030D01*
X128482571Y-87742254D01*
X128219781Y-87479005D01*
X127876253Y-87336359D01*
X127504287Y-87336035D01*
X127160511Y-87478080D01*
X127133543Y-87505000D01*
X121996822Y-87505000D01*
X121997078Y-87213002D01*
X121748766Y-86612041D01*
X121289377Y-86151850D01*
X120688851Y-85902490D01*
X120038610Y-85901922D01*
X119437649Y-86150234D01*
X118977458Y-86609623D01*
X118728098Y-87210149D01*
X118727830Y-87516380D01*
X118570315Y-87483762D01*
X118320365Y-87532259D01*
X118108443Y-87673381D01*
X116906885Y-88874939D01*
X116768896Y-89079364D01*
X116717266Y-89328685D01*
X116765763Y-89578635D01*
X116906885Y-89790557D01*
X118049763Y-90933435D01*
X116556599Y-92426599D01*
X116391852Y-92673161D01*
X116348828Y-92889452D01*
X116198576Y-92738938D01*
X115598050Y-92489578D01*
X114947809Y-92489010D01*
X114346848Y-92737322D01*
X113886657Y-93196711D01*
X113637297Y-93797237D01*
X113636729Y-94447478D01*
X113753671Y-94730499D01*
X113595665Y-94760643D01*
X113383300Y-94901099D01*
X113241514Y-95112578D01*
X112591235Y-96682489D01*
X112541980Y-96924159D01*
X112589692Y-97174260D01*
X112730148Y-97386625D01*
X112941627Y-97528411D01*
X114511538Y-98178690D01*
X114753208Y-98227945D01*
X115003309Y-98180233D01*
X115215674Y-98039777D01*
X115357460Y-97828298D01*
X116007739Y-96258387D01*
X116056994Y-96016717D01*
X116009282Y-95766616D01*
X115916222Y-95625912D01*
X116196158Y-95510246D01*
X116334000Y-95372644D01*
X116334000Y-98872198D01*
X116328973Y-98877224D01*
X115951000Y-98802041D01*
X115377511Y-98916115D01*
X114891330Y-99240971D01*
X114675336Y-99564228D01*
X114617821Y-99441510D01*
X114185947Y-99047312D01*
X113770026Y-98875042D01*
X113538000Y-98996183D01*
X113538000Y-100203000D01*
X113558000Y-100203000D01*
X113558000Y-100457000D01*
X113538000Y-100457000D01*
X113538000Y-100477000D01*
X113284000Y-100477000D01*
X113284000Y-100457000D01*
X113284000Y-100203000D01*
X113284000Y-98996183D01*
X113051974Y-98875042D01*
X112636053Y-99047312D01*
X112204179Y-99441510D01*
X111956032Y-99970973D01*
X112076531Y-100203000D01*
X113284000Y-100203000D01*
X113284000Y-100457000D01*
X112076531Y-100457000D01*
X111956032Y-100689027D01*
X112204179Y-101218490D01*
X112622160Y-101600007D01*
X112351330Y-101780971D01*
X112026474Y-102267152D01*
X111912400Y-102840641D01*
X111912400Y-102899359D01*
X112026474Y-103472848D01*
X112351330Y-103959029D01*
X112622172Y-104140000D01*
X112351330Y-104320971D01*
X112026474Y-104807152D01*
X111912400Y-105380641D01*
X111912400Y-105439359D01*
X111933261Y-105544236D01*
X111875650Y-105601848D01*
X111669715Y-105910049D01*
X111657717Y-105970365D01*
X111597401Y-106273599D01*
X111597401Y-110874891D01*
X111657717Y-111178124D01*
X111669715Y-111238441D01*
X111875650Y-111546642D01*
X112506759Y-112177752D01*
X112814960Y-112383686D01*
X112814961Y-112383686D01*
X112875276Y-112395683D01*
X113161070Y-112452530D01*
X113161070Y-112505490D01*
X113208047Y-112747613D01*
X113347837Y-112960417D01*
X113558870Y-113102867D01*
X113808510Y-113152930D01*
X113861469Y-113152930D01*
X113918316Y-113438723D01*
X113930314Y-113499040D01*
X114136249Y-113807241D01*
X114247507Y-113918500D01*
X111379500Y-113918500D01*
X111379500Y-97305207D01*
X112056299Y-95613208D01*
X114023734Y-91801776D01*
X114062491Y-91859780D01*
X114637606Y-92244060D01*
X115316000Y-92379001D01*
X115994394Y-92244060D01*
X116569509Y-91859780D01*
X116953789Y-91284665D01*
X117088730Y-90606271D01*
X116953789Y-89927877D01*
X116569509Y-89352762D01*
X115994394Y-88968482D01*
X115533576Y-88876819D01*
X115697209Y-88559819D01*
X122908553Y-82466293D01*
X131902864Y-79596269D01*
X141310829Y-80386685D01*
X142208777Y-80850200D01*
X140385800Y-80850200D01*
X140094961Y-80908052D01*
X139848399Y-81072799D01*
X139070680Y-81850517D01*
X138969360Y-81892382D01*
X138706111Y-82155172D01*
X138563465Y-82498700D01*
X138563141Y-82870666D01*
X138705186Y-83214442D01*
X138967976Y-83477691D01*
X139311504Y-83620337D01*
X139683470Y-83620661D01*
X139937559Y-83515673D01*
X139897055Y-83714408D01*
X139944767Y-83964509D01*
X140085223Y-84176874D01*
X140296702Y-84318660D01*
X141866613Y-84968939D01*
X142108283Y-85018194D01*
X142358384Y-84970482D01*
X142499087Y-84877422D01*
X142614754Y-85157358D01*
X142844250Y-85387254D01*
X142754309Y-85350000D01*
X142513750Y-85350000D01*
X142355000Y-85508750D01*
X142355000Y-86233000D01*
X143104250Y-86233000D01*
X143263000Y-86074250D01*
X143263000Y-85858690D01*
X143181597Y-85662168D01*
X143674669Y-85866909D01*
X144324910Y-85867477D01*
X144925871Y-85619165D01*
X145386062Y-85159776D01*
X145635422Y-84559250D01*
X145635990Y-83909009D01*
X145387678Y-83308048D01*
X144928289Y-82847857D01*
X144327763Y-82598497D01*
X143677522Y-82597929D01*
X143394500Y-82714871D01*
X143364357Y-82556865D01*
X143240898Y-82370200D01*
X145049398Y-82370200D01*
X148465372Y-85786174D01*
X148444339Y-85800181D01*
X147242781Y-87001739D01*
X147104792Y-87206164D01*
X147053162Y-87455485D01*
X147101659Y-87705435D01*
X147242781Y-87917357D01*
X148444339Y-89118915D01*
X148648764Y-89256904D01*
X148898085Y-89308534D01*
X149063690Y-89276402D01*
X149063426Y-89579294D01*
X149311738Y-90180255D01*
X149771127Y-90640446D01*
X150371653Y-90889806D01*
X151021894Y-90890374D01*
X151622855Y-90642062D01*
X151767000Y-90498168D01*
X151767000Y-91313000D01*
X151824852Y-91603839D01*
X151989599Y-91850401D01*
X152878599Y-92739401D01*
X153123211Y-92902845D01*
X152610124Y-93115373D01*
X152404409Y-93251432D01*
X152261299Y-93462017D01*
X152210452Y-93711499D01*
X152259732Y-93961295D01*
X152910011Y-95531206D01*
X153046070Y-95736921D01*
X153256655Y-95880031D01*
X153421949Y-95913719D01*
X153305794Y-96193453D01*
X153305226Y-96843694D01*
X153553538Y-97444655D01*
X154012927Y-97904846D01*
X154613453Y-98154206D01*
X155263694Y-98154774D01*
X155864655Y-97906462D01*
X156129888Y-97641690D01*
X156466004Y-97977806D01*
X156466004Y-103323537D01*
X156433812Y-103355673D01*
X156291166Y-103699201D01*
X156290842Y-104071167D01*
X156432887Y-104414943D01*
X156695677Y-104678192D01*
X157039205Y-104820838D01*
X157411171Y-104821162D01*
X157754947Y-104679117D01*
X157861000Y-104573248D01*
X157861000Y-113918500D01*
M02*
