G04 #@! TF.FileFunction,Copper,L2,Bot,Signal*
%FSLAX46Y46*%
G04 Gerber Fmt 4.6, Leading zero omitted, Abs format (unit mm)*
G04 Created by KiCad (PCBNEW (2015-05-28 BZR 5690)-product) date Thursday, June 25, 2015 'AMt' 09:08:00 AM*
%MOMM*%
G01*
G04 APERTURE LIST*
%ADD10C,0.100000*%
%ADD11R,0.750000X0.800000*%
%ADD12R,1.727200X1.727200*%
%ADD13O,1.727200X1.727200*%
%ADD14R,1.727200X2.032000*%
%ADD15O,1.727200X2.032000*%
%ADD16R,0.800100X0.800100*%
%ADD17R,0.900000X0.500000*%
%ADD18R,0.500000X0.900000*%
%ADD19R,0.600000X1.550000*%
%ADD20R,3.657600X2.032000*%
%ADD21R,1.016000X2.032000*%
%ADD22C,1.998980*%
%ADD23R,1.699260X1.699260*%
%ADD24O,1.998980X1.998980*%
%ADD25R,1.998980X1.998980*%
%ADD26C,0.600000*%
%ADD27C,0.250000*%
%ADD28C,0.350000*%
%ADD29C,0.310000*%
%ADD30C,0.630000*%
%ADD31C,0.500000*%
%ADD32C,0.254000*%
G04 APERTURE END LIST*
D10*
D11*
X136461500Y-100572000D03*
X136461500Y-99072000D03*
D12*
X115951000Y-105410000D03*
D13*
X113411000Y-105410000D03*
X115951000Y-102870000D03*
X113411000Y-102870000D03*
X115951000Y-100330000D03*
X113411000Y-100330000D03*
D14*
X143256000Y-111252000D03*
D15*
X145796000Y-111252000D03*
X148336000Y-111252000D03*
X150876000Y-111252000D03*
X153416000Y-111252000D03*
X155956000Y-111252000D03*
D16*
X155382000Y-107426760D03*
X153482000Y-107426760D03*
X154432000Y-105427780D03*
D17*
X138303000Y-104406000D03*
X138303000Y-105906000D03*
X127000000Y-93968000D03*
X127000000Y-92468000D03*
X151460200Y-103935400D03*
X151460200Y-105435400D03*
D18*
X118733000Y-94107000D03*
X117233000Y-94107000D03*
D17*
X122174000Y-90793000D03*
X122174000Y-89293000D03*
X128524000Y-87491000D03*
X128524000Y-85991000D03*
X135940800Y-85713000D03*
X135940800Y-84213000D03*
X142527013Y-87491000D03*
X142527013Y-85991000D03*
D19*
X136474200Y-108178600D03*
X135204200Y-108178600D03*
X133934200Y-108178600D03*
X132664200Y-108178600D03*
X132664200Y-102778600D03*
X133934200Y-102778600D03*
X135204200Y-102778600D03*
X136474200Y-102778600D03*
D14*
X132842000Y-111252000D03*
D15*
X135382000Y-111252000D03*
X137922000Y-111252000D03*
D17*
X147828000Y-90793000D03*
X147828000Y-89293000D03*
D18*
X151142000Y-96520000D03*
X152642000Y-96520000D03*
D20*
X143230600Y-98958400D03*
D21*
X143230600Y-105562400D03*
X140944600Y-105562400D03*
X145516600Y-105562400D03*
D11*
X147955000Y-102120000D03*
X147955000Y-103620000D03*
D14*
X122682000Y-111252000D03*
D15*
X125222000Y-111252000D03*
X127762000Y-111252000D03*
D10*
G36*
X126381657Y-84762929D02*
X124811746Y-85413208D01*
X124161467Y-83843297D01*
X125731378Y-83193018D01*
X126381657Y-84762929D01*
X126381657Y-84762929D01*
G37*
D22*
X127618216Y-83331097D03*
D23*
X133374060Y-82092800D03*
D22*
X135914060Y-82092800D03*
D10*
G36*
X142114378Y-84370782D02*
X140544467Y-83720503D01*
X141194746Y-82150592D01*
X142764657Y-82800871D01*
X142114378Y-84370782D01*
X142114378Y-84370782D01*
G37*
D22*
X144001216Y-84232703D03*
D10*
G36*
X148902148Y-88661106D02*
X147700590Y-87459548D01*
X148902148Y-86257990D01*
X150103706Y-87459548D01*
X148902148Y-88661106D01*
X148902148Y-88661106D01*
G37*
D22*
X150698200Y-89255600D03*
D10*
G36*
X153508168Y-95283441D02*
X152857889Y-93713530D01*
X154427800Y-93063251D01*
X155078079Y-94633162D01*
X153508168Y-95283441D01*
X153508168Y-95283441D01*
G37*
D22*
X154940000Y-96520000D03*
D10*
G36*
X119767810Y-89332748D02*
X118566252Y-90534306D01*
X117364694Y-89332748D01*
X118566252Y-88131190D01*
X119767810Y-89332748D01*
X119767810Y-89332748D01*
G37*
D22*
X120362304Y-87536696D03*
D10*
G36*
X115409582Y-96010622D02*
X114759303Y-97580533D01*
X113189392Y-96930254D01*
X113839671Y-95360343D01*
X115409582Y-96010622D01*
X115409582Y-96010622D01*
G37*
D22*
X115271503Y-94123784D03*
D24*
X114808000Y-108966000D03*
D25*
X114808000Y-111506000D03*
D13*
X121793000Y-100584000D03*
X124333000Y-100584000D03*
X121793000Y-98044000D03*
X124333000Y-98044000D03*
X121793000Y-95504000D03*
X124333000Y-95504000D03*
D12*
X121793000Y-92964000D03*
D13*
X124333000Y-92964000D03*
D26*
X147565718Y-94742000D03*
X127689454Y-88271197D03*
X137159908Y-92075000D03*
X140157200Y-92303600D03*
X145151020Y-94094014D03*
X133415051Y-87078735D03*
X141083173Y-103632000D03*
X143392990Y-103632000D03*
X132324312Y-92447929D03*
X138045010Y-87122000D03*
X146685000Y-107688676D03*
X151640019Y-108446000D03*
X130810000Y-112522000D03*
X129540000Y-112522000D03*
X118618000Y-112522000D03*
X120142000Y-112522000D03*
X120141990Y-110998000D03*
X118618000Y-110998000D03*
X135247174Y-98180980D03*
X137346785Y-104733172D03*
X133985002Y-105410000D03*
X113284000Y-98806000D03*
X123444000Y-108204000D03*
X121920000Y-108204000D03*
X120650000Y-107442000D03*
X119634004Y-106426000D03*
X119634000Y-104902000D03*
X115824000Y-98806000D03*
X114554002Y-98806000D03*
X112014002Y-98806000D03*
X142240000Y-109220000D03*
X143764000Y-109220000D03*
X147066000Y-109220000D03*
X145288000Y-109220000D03*
X153670000Y-98806000D03*
X156210000Y-103378000D03*
X156210000Y-101600000D03*
X156210000Y-98806000D03*
X131809608Y-98636101D03*
X156718000Y-105409996D03*
X137420000Y-84936541D03*
X139498303Y-82685499D03*
X145733410Y-94869000D03*
X136540244Y-89905844D03*
X146659600Y-98933000D03*
X131851400Y-89865200D03*
X146405600Y-95910400D03*
X133537949Y-90667851D03*
X118364000Y-100361771D03*
X132819151Y-91716849D03*
X138176000Y-99568000D03*
X139106981Y-103124000D03*
X128016000Y-93980000D03*
X140157200Y-91503597D03*
X143301790Y-93381030D03*
X140157200Y-90703594D03*
X144552006Y-92725951D03*
X130199960Y-97019957D03*
X134112000Y-94233996D03*
D27*
X127635000Y-88265000D02*
X133349908Y-88265000D01*
X133349908Y-88265000D02*
X136859909Y-91775001D01*
X136859909Y-91775001D02*
X137159908Y-92075000D01*
X141960600Y-94107000D02*
X145110200Y-94107000D01*
X140157200Y-92303600D02*
X141960600Y-94107000D01*
D28*
X127000000Y-92468000D02*
X124829000Y-92468000D01*
X124829000Y-92468000D02*
X124333000Y-92964000D01*
X127000000Y-92468000D02*
X132304241Y-92468000D01*
X132304241Y-92468000D02*
X132324312Y-92447929D01*
X141083173Y-103632000D02*
X140613983Y-103632000D01*
X140613983Y-103632000D02*
X139781982Y-102799999D01*
X133934200Y-108653600D02*
X134609201Y-109328601D01*
X134609201Y-109328601D02*
X137559399Y-109328601D01*
X139781982Y-107106018D02*
X139781982Y-102799999D01*
X139781982Y-102799999D02*
X137553983Y-100572000D01*
X137559399Y-109328601D02*
X139781982Y-107106018D01*
X137553983Y-100572000D02*
X136461500Y-100572000D01*
X143392990Y-103632000D02*
X141083173Y-103632000D01*
X151640019Y-108446000D02*
X147442324Y-108446000D01*
X147442324Y-108446000D02*
X146685000Y-107688676D01*
X138045010Y-87122000D02*
X133522031Y-87122000D01*
X133522031Y-87122000D02*
X133415051Y-87015020D01*
X136474200Y-102778600D02*
X136474200Y-100584700D01*
X136474200Y-100584700D02*
X136461500Y-100572000D01*
X135204200Y-102778600D02*
X136474200Y-102778600D01*
X138303000Y-104406000D02*
X138303000Y-103806000D01*
X138303000Y-103806000D02*
X137275600Y-102778600D01*
X137275600Y-102778600D02*
X136474200Y-102778600D01*
X133934200Y-108178600D02*
X133934200Y-108653600D01*
X127762000Y-111252000D02*
X128975600Y-111252000D01*
X128975600Y-111252000D02*
X130898999Y-109328601D01*
X130898999Y-109328601D02*
X133259199Y-109328601D01*
X133259199Y-109328601D02*
X133934200Y-108653600D01*
D29*
X137492111Y-100572000D02*
X137146500Y-100572000D01*
X143392990Y-103640550D02*
X143396469Y-103644029D01*
X143392990Y-103632000D02*
X143392990Y-103640550D01*
D27*
X138176000Y-87122000D02*
X138045010Y-87122000D01*
X129540000Y-112522000D02*
X130810000Y-112522000D01*
X120142000Y-112522000D02*
X118618000Y-112522000D01*
X118618000Y-110998000D02*
X118618000Y-112522000D01*
X118618000Y-111422264D02*
X118618000Y-110998000D01*
X118364000Y-112522000D02*
X118618000Y-112268000D01*
X118618000Y-112268000D02*
X118618000Y-111422264D01*
D28*
X112172399Y-106004529D02*
X112172399Y-105745257D01*
X113394508Y-108966000D02*
X112172399Y-107743891D01*
X112172399Y-105745257D02*
X112172399Y-101568601D01*
X114808000Y-108966000D02*
X113394508Y-108966000D01*
X112172399Y-107743891D02*
X112172399Y-105745257D01*
X137346785Y-104733172D02*
X134661830Y-104733172D01*
X134661830Y-104733172D02*
X133985002Y-105410000D01*
D29*
X137382228Y-104775000D02*
X137370413Y-104786815D01*
D28*
X112172399Y-101568601D02*
X112547401Y-101193599D01*
X112547401Y-101193599D02*
X113411000Y-100330000D01*
X151460200Y-103935400D02*
X153689670Y-103935400D01*
X153689670Y-103935400D02*
X154432000Y-104677730D01*
X154432000Y-104677730D02*
X154432000Y-105427780D01*
D29*
X135570490Y-98180990D02*
X136461500Y-99072000D01*
X135274891Y-98180990D02*
X135570490Y-98180990D01*
X125222000Y-111404400D02*
X125222000Y-111252000D01*
X114808000Y-109220000D02*
X114554000Y-108966000D01*
D27*
X123444000Y-109321600D02*
X123444000Y-108204000D01*
X125222000Y-111099600D02*
X123444000Y-109321600D01*
X125222000Y-111252000D02*
X125222000Y-111099600D01*
X121920000Y-108204000D02*
X121412000Y-108204000D01*
X121412000Y-108204000D02*
X120949999Y-107741999D01*
X120949999Y-107741999D02*
X120650000Y-107442000D01*
X119634004Y-106426000D02*
X119634004Y-104902004D01*
X119634004Y-104902004D02*
X119634000Y-104902000D01*
X115824000Y-98806000D02*
X114554002Y-98806000D01*
X113284000Y-98806000D02*
X112014002Y-98806000D01*
X142240000Y-109220000D02*
X143764000Y-109220000D01*
X147066000Y-109220000D02*
X145288000Y-109220000D01*
X156210000Y-103378000D02*
X156210000Y-101600000D01*
X153670000Y-98806000D02*
X156210000Y-98806000D01*
D30*
X115591510Y-113919000D02*
X134435939Y-113919000D01*
X114808000Y-113135490D02*
X115591510Y-113919000D01*
X114808000Y-111506000D02*
X114808000Y-113135490D01*
D29*
X141097000Y-105714800D02*
X140944600Y-105562400D01*
D30*
X140944600Y-112801400D02*
X140944600Y-105562400D01*
X139827000Y-113919000D02*
X140944600Y-112801400D01*
X148336000Y-111404400D02*
X148336000Y-111252000D01*
X145821400Y-113919000D02*
X148336000Y-111404400D01*
X134435939Y-113919000D02*
X145821400Y-113919000D01*
X134435939Y-113919000D02*
X139827000Y-113919000D01*
D27*
X135204200Y-107899200D02*
X135204200Y-108178600D01*
X129159000Y-101854000D02*
X135204200Y-107899200D01*
X123215400Y-101854000D02*
X129159000Y-101854000D01*
X121894600Y-100533200D02*
X123215400Y-101854000D01*
X131809608Y-98636101D02*
X133934200Y-100760693D01*
X133934200Y-100760693D02*
X133934200Y-102778600D01*
X131509609Y-98336102D02*
X131809608Y-98636101D01*
X130086102Y-98336102D02*
X131509609Y-98336102D01*
X123113800Y-96774000D02*
X128524000Y-96774000D01*
X121894600Y-97993200D02*
X123113800Y-96774000D01*
X119807569Y-97993200D02*
X121894600Y-97993200D01*
X128524000Y-96774000D02*
X130086102Y-98336102D01*
X117139601Y-100661168D02*
X119807569Y-97993200D01*
X117139601Y-101681399D02*
X117139601Y-100661168D01*
X115951000Y-102870000D02*
X117139601Y-101681399D01*
X124434600Y-97993200D02*
X128353800Y-97993200D01*
X128353800Y-97993200D02*
X132664200Y-102303600D01*
X132664200Y-102303600D02*
X132664200Y-102778600D01*
X124455944Y-98014544D02*
X124434600Y-97993200D01*
D31*
X115271503Y-94123784D02*
X117216216Y-94123784D01*
D29*
X115432519Y-94284800D02*
X115271503Y-94123784D01*
D31*
X120362304Y-87536696D02*
X120505896Y-87536696D01*
X120505896Y-87536696D02*
X122227870Y-89258670D01*
X127618216Y-83331097D02*
X127618216Y-85085216D01*
X127618216Y-85085216D02*
X128524000Y-85991000D01*
D29*
X127618216Y-83331097D02*
X127932994Y-83331097D01*
D31*
X135914060Y-82092800D02*
X135914060Y-84186260D01*
X135914060Y-84186260D02*
X135940800Y-84213000D01*
D29*
X135890000Y-82116860D02*
X135914060Y-82092800D01*
X135890000Y-84201000D02*
X135890000Y-82116860D01*
D31*
X144001216Y-84232703D02*
X144001216Y-84516797D01*
X144001216Y-84516797D02*
X142527013Y-85991000D01*
D29*
X143764000Y-84469919D02*
X144001216Y-84232703D01*
D27*
X153768976Y-107426760D02*
X155785740Y-105409996D01*
X153482000Y-107426760D02*
X153768976Y-107426760D01*
X156293736Y-105409996D02*
X156718000Y-105409996D01*
X155785740Y-105409996D02*
X156293736Y-105409996D01*
X139446000Y-83058000D02*
X139446000Y-82804000D01*
X137567459Y-84936541D02*
X139446000Y-83058000D01*
X137420000Y-84936541D02*
X137567459Y-84936541D01*
X152140690Y-105435400D02*
X151460200Y-105435400D01*
X153482000Y-106776710D02*
X152140690Y-105435400D01*
X153482000Y-107426760D02*
X153482000Y-106776710D01*
X145542000Y-94869000D02*
X141503400Y-94869000D01*
X141503400Y-94869000D02*
X136840243Y-90205843D01*
X136840243Y-90205843D02*
X136540244Y-89905844D01*
X131851400Y-89865200D02*
X139603599Y-97617399D01*
X139603599Y-97617399D02*
X145343999Y-97617399D01*
X145343999Y-97617399D02*
X146659600Y-98933000D01*
X138780498Y-95910400D02*
X146405600Y-95910400D01*
X133537949Y-90667851D02*
X138780498Y-95910400D01*
X118364000Y-106934000D02*
X122682000Y-111252000D01*
X118364000Y-100330000D02*
X118364000Y-106934000D01*
X136474200Y-107534800D02*
X137889391Y-106119609D01*
X137889391Y-106119609D02*
X138190991Y-106119609D01*
X138190991Y-106119609D02*
X139065000Y-105245600D01*
X136474200Y-107873800D02*
X136474200Y-108178600D01*
X138176000Y-98888439D02*
X138176000Y-99568000D01*
X138176000Y-98888439D02*
X138176000Y-99314000D01*
X138176000Y-97073698D02*
X138176000Y-98888439D01*
X132819151Y-91716849D02*
X138176000Y-97073698D01*
X136474200Y-108178600D02*
X136474200Y-107534800D01*
X139106990Y-105203610D02*
X138932374Y-105378226D01*
X139106990Y-103156281D02*
X139106990Y-105203610D01*
X138932374Y-105378226D02*
X139065000Y-105245600D01*
X138404600Y-105906000D02*
X138932374Y-105378226D01*
X124434600Y-95453200D02*
X125907800Y-93980000D01*
X125907800Y-93980000D02*
X126988000Y-93980000D01*
X128016000Y-93980000D02*
X127012000Y-93980000D01*
X140347797Y-91503597D02*
X142265400Y-93421200D01*
X142265400Y-93421200D02*
X143281400Y-93421200D01*
X140157200Y-91503597D02*
X140347797Y-91503597D01*
X142671800Y-92710000D02*
X144348200Y-92710000D01*
X140665394Y-90703594D02*
X142671800Y-92710000D01*
X140157200Y-90703594D02*
X140665394Y-90703594D01*
X130310043Y-97019957D02*
X130310049Y-97019957D01*
X130199960Y-97019957D02*
X131326039Y-97019957D01*
X131326039Y-97019957D02*
X133812001Y-94533995D01*
X133812001Y-94533995D02*
X134112000Y-94233996D01*
D31*
X122802860Y-90805000D02*
X122186000Y-90805000D01*
X122186000Y-90805000D02*
X122174000Y-90793000D01*
X118745000Y-94107000D02*
X118745000Y-92278200D01*
X118745000Y-92278200D02*
X120230200Y-90793000D01*
X120230200Y-90793000D02*
X122174000Y-90793000D01*
X122802860Y-90805000D02*
X126116860Y-87491000D01*
X126116860Y-87491000D02*
X128524000Y-87491000D01*
X129425676Y-87503000D02*
X128536000Y-87503000D01*
X128536000Y-87503000D02*
X128524000Y-87491000D01*
X129425676Y-87503000D02*
X131215676Y-85713000D01*
X131215676Y-85713000D02*
X135940800Y-85713000D01*
X151142000Y-96520000D02*
X151142000Y-99810000D01*
X151142000Y-99810000D02*
X151003000Y-99949000D01*
X151003000Y-99949000D02*
X151001000Y-99949000D01*
X151001000Y-99949000D02*
X148830000Y-102120000D01*
X148830000Y-102120000D02*
X147955000Y-102120000D01*
X147828000Y-90793000D02*
X147054000Y-90793000D01*
X147054000Y-90793000D02*
X143752000Y-87491000D01*
X143752000Y-87491000D02*
X142527013Y-87491000D01*
X151142000Y-96520000D02*
X151142000Y-93230000D01*
X151142000Y-93230000D02*
X148705000Y-90793000D01*
X148705000Y-90793000D02*
X147828000Y-90793000D01*
X135940800Y-85713000D02*
X138672000Y-85713000D01*
X138672000Y-85713000D02*
X140462000Y-87503000D01*
X140462000Y-87503000D02*
X142875000Y-87503000D01*
X143230600Y-105562400D02*
X143230600Y-105054400D01*
X143230600Y-105054400D02*
X146165000Y-102120000D01*
X146165000Y-102120000D02*
X147080000Y-102120000D01*
X147080000Y-102120000D02*
X147955000Y-102120000D01*
X153967984Y-94173346D02*
X155169542Y-94173346D01*
X155169542Y-94173346D02*
X157734000Y-96737804D01*
X157734000Y-96737804D02*
X157734000Y-105974810D01*
X157734000Y-105974810D02*
X156282050Y-107426760D01*
X156282050Y-107426760D02*
X155382000Y-107426760D01*
X152273000Y-88685152D02*
X152273000Y-92478362D01*
X152273000Y-92478362D02*
X153967984Y-94173346D01*
X148902148Y-87459548D02*
X151047396Y-87459548D01*
X151047396Y-87459548D02*
X152273000Y-88685152D01*
X145055216Y-82411058D02*
X148902148Y-86257990D01*
X148902148Y-86257990D02*
X148902148Y-87459548D01*
X141654562Y-83260687D02*
X142504191Y-82411058D01*
X142504191Y-82411058D02*
X145055216Y-82411058D01*
X133852730Y-80454500D02*
X133662730Y-80454500D01*
X133662730Y-80454500D02*
X133374060Y-80743170D01*
X133374060Y-80743170D02*
X133374060Y-82092800D01*
X141654562Y-83260687D02*
X141654562Y-82059129D01*
X141654562Y-82059129D02*
X140049933Y-80454500D01*
X140049933Y-80454500D02*
X133852730Y-80454500D01*
D29*
X133374060Y-80933170D02*
X133852730Y-80454500D01*
D31*
X132911619Y-80470729D02*
X133101619Y-80470729D01*
X133101619Y-80470729D02*
X133374060Y-80743170D01*
X127902388Y-80470729D02*
X132911619Y-80470729D01*
X125271562Y-83101555D02*
X127902388Y-80470729D01*
X125271562Y-84303113D02*
X125271562Y-83101555D01*
X124432849Y-83464400D02*
X125271562Y-84303113D01*
X118566252Y-89332748D02*
X118566252Y-86919748D01*
X118566252Y-86919748D02*
X122021600Y-83464400D01*
X122021600Y-83464400D02*
X124432849Y-83464400D01*
X118566252Y-89332748D02*
X117716623Y-90182377D01*
X117716623Y-90182377D02*
X117716623Y-90792623D01*
X117716623Y-90792623D02*
X117729000Y-90805000D01*
X116078000Y-92456000D02*
X117729000Y-90805000D01*
X114300000Y-92456000D02*
X116078000Y-92456000D01*
X114299487Y-96470438D02*
X113449858Y-95620809D01*
X113449858Y-95620809D02*
X113449858Y-93306142D01*
X113449858Y-93306142D02*
X114300000Y-92456000D01*
D29*
X114299487Y-96470438D02*
X114250438Y-96470438D01*
X118745000Y-89535000D02*
X118745000Y-89511496D01*
X118745000Y-89511496D02*
X118566252Y-89332748D01*
X133374060Y-80933170D02*
X132911619Y-80470729D01*
X133374060Y-80933170D02*
X133374060Y-82092800D01*
D31*
X147828000Y-89293000D02*
X150660800Y-89293000D01*
X150660800Y-89293000D02*
X150698200Y-89255600D01*
X150698200Y-89255600D02*
X150520400Y-89255600D01*
X154940000Y-96520000D02*
X152642000Y-96520000D01*
D32*
G36*
X137416000Y-98411702D02*
X137374827Y-98312302D01*
X137196199Y-98133673D01*
X136962810Y-98037000D01*
X136747250Y-98037000D01*
X136588500Y-98195750D01*
X136588500Y-98945000D01*
X136608500Y-98945000D01*
X136608500Y-99199000D01*
X136588500Y-99199000D01*
X136588500Y-99219000D01*
X136334500Y-99219000D01*
X136334500Y-99199000D01*
X136334500Y-98945000D01*
X136334500Y-98195750D01*
X136175750Y-98037000D01*
X135960190Y-98037000D01*
X135726801Y-98133673D01*
X135548173Y-98312302D01*
X135451500Y-98545691D01*
X135451500Y-98786250D01*
X135610250Y-98945000D01*
X136334500Y-98945000D01*
X136334500Y-99199000D01*
X135610250Y-99199000D01*
X135451500Y-99357750D01*
X135451500Y-99598309D01*
X135548173Y-99831698D01*
X135549455Y-99832980D01*
X135489123Y-99922360D01*
X135439060Y-100172000D01*
X135439060Y-100972000D01*
X135486037Y-101214123D01*
X135590740Y-101373514D01*
X135504200Y-101356160D01*
X134904200Y-101356160D01*
X134694200Y-101396904D01*
X134694200Y-100760693D01*
X134636348Y-100469854D01*
X134471601Y-100223292D01*
X132744730Y-98496421D01*
X132744770Y-98450934D01*
X132602725Y-98107158D01*
X132339935Y-97843909D01*
X131996407Y-97701263D01*
X131901059Y-97701179D01*
X131800448Y-97633954D01*
X131760652Y-97626038D01*
X131863440Y-97557358D01*
X134251679Y-95169118D01*
X134297167Y-95169158D01*
X134640943Y-95027113D01*
X134847958Y-94820458D01*
X137416000Y-97388500D01*
X137416000Y-98411702D01*
X137416000Y-98411702D01*
G37*
X137416000Y-98411702D02*
X137374827Y-98312302D01*
X137196199Y-98133673D01*
X136962810Y-98037000D01*
X136747250Y-98037000D01*
X136588500Y-98195750D01*
X136588500Y-98945000D01*
X136608500Y-98945000D01*
X136608500Y-99199000D01*
X136588500Y-99199000D01*
X136588500Y-99219000D01*
X136334500Y-99219000D01*
X136334500Y-99199000D01*
X136334500Y-98945000D01*
X136334500Y-98195750D01*
X136175750Y-98037000D01*
X135960190Y-98037000D01*
X135726801Y-98133673D01*
X135548173Y-98312302D01*
X135451500Y-98545691D01*
X135451500Y-98786250D01*
X135610250Y-98945000D01*
X136334500Y-98945000D01*
X136334500Y-99199000D01*
X135610250Y-99199000D01*
X135451500Y-99357750D01*
X135451500Y-99598309D01*
X135548173Y-99831698D01*
X135549455Y-99832980D01*
X135489123Y-99922360D01*
X135439060Y-100172000D01*
X135439060Y-100972000D01*
X135486037Y-101214123D01*
X135590740Y-101373514D01*
X135504200Y-101356160D01*
X134904200Y-101356160D01*
X134694200Y-101396904D01*
X134694200Y-100760693D01*
X134636348Y-100469854D01*
X134471601Y-100223292D01*
X132744730Y-98496421D01*
X132744770Y-98450934D01*
X132602725Y-98107158D01*
X132339935Y-97843909D01*
X131996407Y-97701263D01*
X131901059Y-97701179D01*
X131800448Y-97633954D01*
X131760652Y-97626038D01*
X131863440Y-97557358D01*
X134251679Y-95169118D01*
X134297167Y-95169158D01*
X134640943Y-95027113D01*
X134847958Y-94820458D01*
X137416000Y-97388500D01*
X137416000Y-98411702D01*
G36*
X137458528Y-105155613D02*
X137398073Y-105195327D01*
X137255623Y-105406360D01*
X137205560Y-105656000D01*
X137205560Y-105728638D01*
X136178038Y-106756160D01*
X136174200Y-106756160D01*
X135932077Y-106803137D01*
X135839429Y-106863996D01*
X135753840Y-106806223D01*
X135504200Y-106756160D01*
X135135962Y-106756160D01*
X132580842Y-104201040D01*
X132964200Y-104201040D01*
X133206323Y-104154063D01*
X133298970Y-104093203D01*
X133384560Y-104150977D01*
X133634200Y-104201040D01*
X134234200Y-104201040D01*
X134476323Y-104154063D01*
X134568970Y-104093203D01*
X134654560Y-104150977D01*
X134904200Y-104201040D01*
X135504200Y-104201040D01*
X135746323Y-104154063D01*
X135838970Y-104093203D01*
X135924560Y-104150977D01*
X136174200Y-104201040D01*
X136774200Y-104201040D01*
X137016323Y-104154063D01*
X137229127Y-104014273D01*
X137236034Y-104004040D01*
X137205560Y-104156000D01*
X137205560Y-104656000D01*
X137252537Y-104898123D01*
X137392327Y-105110927D01*
X137458528Y-105155613D01*
X137458528Y-105155613D01*
G37*
X137458528Y-105155613D02*
X137398073Y-105195327D01*
X137255623Y-105406360D01*
X137205560Y-105656000D01*
X137205560Y-105728638D01*
X136178038Y-106756160D01*
X136174200Y-106756160D01*
X135932077Y-106803137D01*
X135839429Y-106863996D01*
X135753840Y-106806223D01*
X135504200Y-106756160D01*
X135135962Y-106756160D01*
X132580842Y-104201040D01*
X132964200Y-104201040D01*
X133206323Y-104154063D01*
X133298970Y-104093203D01*
X133384560Y-104150977D01*
X133634200Y-104201040D01*
X134234200Y-104201040D01*
X134476323Y-104154063D01*
X134568970Y-104093203D01*
X134654560Y-104150977D01*
X134904200Y-104201040D01*
X135504200Y-104201040D01*
X135746323Y-104154063D01*
X135838970Y-104093203D01*
X135924560Y-104150977D01*
X136174200Y-104201040D01*
X136774200Y-104201040D01*
X137016323Y-104154063D01*
X137229127Y-104014273D01*
X137236034Y-104004040D01*
X137205560Y-104156000D01*
X137205560Y-104656000D01*
X137252537Y-104898123D01*
X137392327Y-105110927D01*
X137458528Y-105155613D01*
G36*
X139994600Y-112407898D02*
X139433498Y-112969000D01*
X139433497Y-112969000D01*
X134435939Y-112969000D01*
X116258098Y-112969000D01*
X116262417Y-112966163D01*
X116404867Y-112755130D01*
X116454930Y-112505490D01*
X116454930Y-110506510D01*
X116407953Y-110264387D01*
X116268163Y-110051583D01*
X116110256Y-109944993D01*
X116131068Y-109925726D01*
X116397627Y-109346355D01*
X116397627Y-108585645D01*
X116131068Y-108006274D01*
X115663084Y-107573013D01*
X115188354Y-107376381D01*
X114935000Y-107495735D01*
X114935000Y-108839000D01*
X116278807Y-108839000D01*
X116397627Y-108585645D01*
X116397627Y-109346355D01*
X116278807Y-109093000D01*
X114935000Y-109093000D01*
X114935000Y-109113000D01*
X114681000Y-109113000D01*
X114681000Y-109093000D01*
X114681000Y-108839000D01*
X114681000Y-107495735D01*
X114427646Y-107376381D01*
X113952916Y-107573013D01*
X113484932Y-108006274D01*
X113218373Y-108585645D01*
X113337193Y-108839000D01*
X114681000Y-108839000D01*
X114681000Y-109093000D01*
X113337193Y-109093000D01*
X113218373Y-109346355D01*
X113484932Y-109925726D01*
X113506305Y-109945514D01*
X113353583Y-110045837D01*
X113211133Y-110256870D01*
X113161070Y-110506510D01*
X113161070Y-112505490D01*
X113208047Y-112747613D01*
X113347837Y-112960417D01*
X113558870Y-113102867D01*
X113808510Y-113152930D01*
X113861469Y-113152930D01*
X113918316Y-113438723D01*
X113930314Y-113499040D01*
X114136249Y-113807241D01*
X114247507Y-113918500D01*
X111379500Y-113918500D01*
X111379500Y-97052029D01*
X111645837Y-96408380D01*
X112564858Y-94627998D01*
X112564858Y-95620803D01*
X112564857Y-95620809D01*
X112621047Y-95903293D01*
X112632225Y-95959484D01*
X112791793Y-96198297D01*
X112591235Y-96682489D01*
X112541980Y-96924159D01*
X112589692Y-97174260D01*
X112730148Y-97386625D01*
X112941627Y-97528411D01*
X114511538Y-98178690D01*
X114753208Y-98227945D01*
X115003309Y-98180233D01*
X115215674Y-98039777D01*
X115357460Y-97828298D01*
X116007739Y-96258387D01*
X116056994Y-96016717D01*
X116009282Y-95766616D01*
X115916222Y-95625912D01*
X116196158Y-95510246D01*
X116625549Y-95081603D01*
X116733360Y-95154377D01*
X116983000Y-95204440D01*
X117483000Y-95204440D01*
X117725123Y-95157463D01*
X117937927Y-95017673D01*
X117982613Y-94951471D01*
X118022327Y-95011927D01*
X118233360Y-95154377D01*
X118483000Y-95204440D01*
X118983000Y-95204440D01*
X119225123Y-95157463D01*
X119437927Y-95017673D01*
X119580377Y-94806640D01*
X119630440Y-94557000D01*
X119630440Y-93657000D01*
X119630000Y-93654732D01*
X119630000Y-92644779D01*
X120294400Y-91980379D01*
X120294400Y-92678250D01*
X120453150Y-92837000D01*
X121666000Y-92837000D01*
X121666000Y-92817000D01*
X121920000Y-92817000D01*
X121920000Y-92837000D01*
X121940000Y-92837000D01*
X121940000Y-93091000D01*
X121920000Y-93091000D01*
X121920000Y-93111000D01*
X121666000Y-93111000D01*
X121666000Y-93091000D01*
X120453150Y-93091000D01*
X120294400Y-93249750D01*
X120294400Y-93953909D01*
X120391073Y-94187298D01*
X120569701Y-94365927D01*
X120723526Y-94429643D01*
X120408474Y-94901152D01*
X120294400Y-95474641D01*
X120294400Y-95533359D01*
X120408474Y-96106848D01*
X120733330Y-96593029D01*
X121004172Y-96774000D01*
X120733330Y-96954971D01*
X120547423Y-97233200D01*
X119807569Y-97233200D01*
X119516730Y-97291052D01*
X119270168Y-97455799D01*
X117200658Y-99525308D01*
X117010670Y-99240971D01*
X116524489Y-98916115D01*
X115951000Y-98802041D01*
X115377511Y-98916115D01*
X114891330Y-99240971D01*
X114675336Y-99564228D01*
X114617821Y-99441510D01*
X114185947Y-99047312D01*
X113770026Y-98875042D01*
X113538000Y-98996183D01*
X113538000Y-100203000D01*
X113558000Y-100203000D01*
X113558000Y-100457000D01*
X113538000Y-100457000D01*
X113538000Y-100477000D01*
X113284000Y-100477000D01*
X113284000Y-100457000D01*
X113284000Y-100203000D01*
X113284000Y-98996183D01*
X113051974Y-98875042D01*
X112636053Y-99047312D01*
X112204179Y-99441510D01*
X111956032Y-99970973D01*
X112076531Y-100203000D01*
X113284000Y-100203000D01*
X113284000Y-100457000D01*
X112076531Y-100457000D01*
X111956032Y-100689027D01*
X112204179Y-101218490D01*
X112622160Y-101600007D01*
X112351330Y-101780971D01*
X112026474Y-102267152D01*
X111912400Y-102840641D01*
X111912400Y-102899359D01*
X112026474Y-103472848D01*
X112351330Y-103959029D01*
X112622172Y-104140000D01*
X112351330Y-104320971D01*
X112026474Y-104807152D01*
X111912400Y-105380641D01*
X111912400Y-105439359D01*
X112026474Y-106012848D01*
X112351330Y-106499029D01*
X112837511Y-106823885D01*
X113411000Y-106937959D01*
X113984489Y-106823885D01*
X114470670Y-106499029D01*
X114480766Y-106483918D01*
X114486937Y-106515723D01*
X114626727Y-106728527D01*
X114837760Y-106870977D01*
X115087400Y-106921040D01*
X116814600Y-106921040D01*
X117056723Y-106874063D01*
X117269527Y-106734273D01*
X117411977Y-106523240D01*
X117462040Y-106273600D01*
X117462040Y-104546400D01*
X117415063Y-104304277D01*
X117275273Y-104091473D01*
X117064240Y-103949023D01*
X117022895Y-103940731D01*
X117335526Y-103472848D01*
X117449600Y-102899359D01*
X117449600Y-102840641D01*
X117384158Y-102511643D01*
X117604000Y-102291802D01*
X117604000Y-106934000D01*
X117661852Y-107224839D01*
X117826599Y-107471401D01*
X121170960Y-110815762D01*
X121170960Y-112268000D01*
X121217937Y-112510123D01*
X121357727Y-112722927D01*
X121568760Y-112865377D01*
X121818400Y-112915440D01*
X123545600Y-112915440D01*
X123787723Y-112868463D01*
X124000527Y-112728673D01*
X124142977Y-112517640D01*
X124161483Y-112425354D01*
X124319964Y-112602732D01*
X124847209Y-112856709D01*
X124862974Y-112859358D01*
X125095000Y-112738217D01*
X125095000Y-111379000D01*
X125075000Y-111379000D01*
X125075000Y-111125000D01*
X125095000Y-111125000D01*
X125095000Y-109765783D01*
X124862974Y-109644642D01*
X124847209Y-109647291D01*
X124319964Y-109901268D01*
X124162326Y-110077701D01*
X124146063Y-109993877D01*
X124006273Y-109781073D01*
X123795240Y-109638623D01*
X123545600Y-109588560D01*
X122093362Y-109588560D01*
X119124000Y-106619198D01*
X119124000Y-100924233D01*
X119156192Y-100892098D01*
X119298838Y-100548570D01*
X119299162Y-100176604D01*
X119157117Y-99832828D01*
X119099979Y-99775591D01*
X120122371Y-98753200D01*
X120479536Y-98753200D01*
X120733330Y-99133029D01*
X121004172Y-99314000D01*
X120733330Y-99494971D01*
X120408474Y-99981152D01*
X120294400Y-100554641D01*
X120294400Y-100613359D01*
X120408474Y-101186848D01*
X120733330Y-101673029D01*
X121219511Y-101997885D01*
X121793000Y-102111959D01*
X122298088Y-102011490D01*
X122677999Y-102391401D01*
X122924560Y-102556148D01*
X122924561Y-102556148D01*
X123215400Y-102614000D01*
X128844198Y-102614000D01*
X132998797Y-106768600D01*
X132949950Y-106768600D01*
X132791200Y-106927350D01*
X132791200Y-108051600D01*
X132811200Y-108051600D01*
X132811200Y-108305600D01*
X132791200Y-108305600D01*
X132791200Y-108325600D01*
X132537200Y-108325600D01*
X132537200Y-108305600D01*
X132537200Y-108051600D01*
X132537200Y-106927350D01*
X132378450Y-106768600D01*
X132237890Y-106768600D01*
X132004501Y-106865273D01*
X131825873Y-107043902D01*
X131729200Y-107277291D01*
X131729200Y-107892850D01*
X131887950Y-108051600D01*
X132537200Y-108051600D01*
X132537200Y-108305600D01*
X131887950Y-108305600D01*
X131729200Y-108464350D01*
X131729200Y-108518601D01*
X130898999Y-108518601D01*
X130589025Y-108580259D01*
X130483769Y-108650588D01*
X130326243Y-108755844D01*
X128922940Y-110159147D01*
X128821670Y-110007585D01*
X128335489Y-109682729D01*
X127762000Y-109568655D01*
X127188511Y-109682729D01*
X126702330Y-110007585D01*
X126495539Y-110317069D01*
X126124036Y-109901268D01*
X125596791Y-109647291D01*
X125581026Y-109644642D01*
X125349000Y-109765783D01*
X125349000Y-111125000D01*
X125369000Y-111125000D01*
X125369000Y-111379000D01*
X125349000Y-111379000D01*
X125349000Y-112738217D01*
X125581026Y-112859358D01*
X125596791Y-112856709D01*
X126124036Y-112602732D01*
X126495539Y-112186930D01*
X126702330Y-112496415D01*
X127188511Y-112821271D01*
X127762000Y-112935345D01*
X128335489Y-112821271D01*
X128821670Y-112496415D01*
X129132835Y-112030723D01*
X129285573Y-112000342D01*
X129285574Y-112000342D01*
X129548356Y-111824756D01*
X131234511Y-110138601D01*
X131350492Y-110138601D01*
X131330960Y-110236000D01*
X131330960Y-112268000D01*
X131377937Y-112510123D01*
X131517727Y-112722927D01*
X131728760Y-112865377D01*
X131978400Y-112915440D01*
X133705600Y-112915440D01*
X133947723Y-112868463D01*
X134160527Y-112728673D01*
X134302977Y-112517640D01*
X134310718Y-112479037D01*
X134322330Y-112496415D01*
X134808511Y-112821271D01*
X135382000Y-112935345D01*
X135955489Y-112821271D01*
X136441670Y-112496415D01*
X136652000Y-112181634D01*
X136862330Y-112496415D01*
X137348511Y-112821271D01*
X137922000Y-112935345D01*
X138495489Y-112821271D01*
X138981670Y-112496415D01*
X139306526Y-112010234D01*
X139420600Y-111436745D01*
X139420600Y-111067255D01*
X139306526Y-110493766D01*
X138981670Y-110007585D01*
X138495489Y-109682729D01*
X138374791Y-109658720D01*
X139994600Y-108038912D01*
X139994600Y-112407898D01*
X139994600Y-112407898D01*
G37*
X139994600Y-112407898D02*
X139433498Y-112969000D01*
X139433497Y-112969000D01*
X134435939Y-112969000D01*
X116258098Y-112969000D01*
X116262417Y-112966163D01*
X116404867Y-112755130D01*
X116454930Y-112505490D01*
X116454930Y-110506510D01*
X116407953Y-110264387D01*
X116268163Y-110051583D01*
X116110256Y-109944993D01*
X116131068Y-109925726D01*
X116397627Y-109346355D01*
X116397627Y-108585645D01*
X116131068Y-108006274D01*
X115663084Y-107573013D01*
X115188354Y-107376381D01*
X114935000Y-107495735D01*
X114935000Y-108839000D01*
X116278807Y-108839000D01*
X116397627Y-108585645D01*
X116397627Y-109346355D01*
X116278807Y-109093000D01*
X114935000Y-109093000D01*
X114935000Y-109113000D01*
X114681000Y-109113000D01*
X114681000Y-109093000D01*
X114681000Y-108839000D01*
X114681000Y-107495735D01*
X114427646Y-107376381D01*
X113952916Y-107573013D01*
X113484932Y-108006274D01*
X113218373Y-108585645D01*
X113337193Y-108839000D01*
X114681000Y-108839000D01*
X114681000Y-109093000D01*
X113337193Y-109093000D01*
X113218373Y-109346355D01*
X113484932Y-109925726D01*
X113506305Y-109945514D01*
X113353583Y-110045837D01*
X113211133Y-110256870D01*
X113161070Y-110506510D01*
X113161070Y-112505490D01*
X113208047Y-112747613D01*
X113347837Y-112960417D01*
X113558870Y-113102867D01*
X113808510Y-113152930D01*
X113861469Y-113152930D01*
X113918316Y-113438723D01*
X113930314Y-113499040D01*
X114136249Y-113807241D01*
X114247507Y-113918500D01*
X111379500Y-113918500D01*
X111379500Y-97052029D01*
X111645837Y-96408380D01*
X112564858Y-94627998D01*
X112564858Y-95620803D01*
X112564857Y-95620809D01*
X112621047Y-95903293D01*
X112632225Y-95959484D01*
X112791793Y-96198297D01*
X112591235Y-96682489D01*
X112541980Y-96924159D01*
X112589692Y-97174260D01*
X112730148Y-97386625D01*
X112941627Y-97528411D01*
X114511538Y-98178690D01*
X114753208Y-98227945D01*
X115003309Y-98180233D01*
X115215674Y-98039777D01*
X115357460Y-97828298D01*
X116007739Y-96258387D01*
X116056994Y-96016717D01*
X116009282Y-95766616D01*
X115916222Y-95625912D01*
X116196158Y-95510246D01*
X116625549Y-95081603D01*
X116733360Y-95154377D01*
X116983000Y-95204440D01*
X117483000Y-95204440D01*
X117725123Y-95157463D01*
X117937927Y-95017673D01*
X117982613Y-94951471D01*
X118022327Y-95011927D01*
X118233360Y-95154377D01*
X118483000Y-95204440D01*
X118983000Y-95204440D01*
X119225123Y-95157463D01*
X119437927Y-95017673D01*
X119580377Y-94806640D01*
X119630440Y-94557000D01*
X119630440Y-93657000D01*
X119630000Y-93654732D01*
X119630000Y-92644779D01*
X120294400Y-91980379D01*
X120294400Y-92678250D01*
X120453150Y-92837000D01*
X121666000Y-92837000D01*
X121666000Y-92817000D01*
X121920000Y-92817000D01*
X121920000Y-92837000D01*
X121940000Y-92837000D01*
X121940000Y-93091000D01*
X121920000Y-93091000D01*
X121920000Y-93111000D01*
X121666000Y-93111000D01*
X121666000Y-93091000D01*
X120453150Y-93091000D01*
X120294400Y-93249750D01*
X120294400Y-93953909D01*
X120391073Y-94187298D01*
X120569701Y-94365927D01*
X120723526Y-94429643D01*
X120408474Y-94901152D01*
X120294400Y-95474641D01*
X120294400Y-95533359D01*
X120408474Y-96106848D01*
X120733330Y-96593029D01*
X121004172Y-96774000D01*
X120733330Y-96954971D01*
X120547423Y-97233200D01*
X119807569Y-97233200D01*
X119516730Y-97291052D01*
X119270168Y-97455799D01*
X117200658Y-99525308D01*
X117010670Y-99240971D01*
X116524489Y-98916115D01*
X115951000Y-98802041D01*
X115377511Y-98916115D01*
X114891330Y-99240971D01*
X114675336Y-99564228D01*
X114617821Y-99441510D01*
X114185947Y-99047312D01*
X113770026Y-98875042D01*
X113538000Y-98996183D01*
X113538000Y-100203000D01*
X113558000Y-100203000D01*
X113558000Y-100457000D01*
X113538000Y-100457000D01*
X113538000Y-100477000D01*
X113284000Y-100477000D01*
X113284000Y-100457000D01*
X113284000Y-100203000D01*
X113284000Y-98996183D01*
X113051974Y-98875042D01*
X112636053Y-99047312D01*
X112204179Y-99441510D01*
X111956032Y-99970973D01*
X112076531Y-100203000D01*
X113284000Y-100203000D01*
X113284000Y-100457000D01*
X112076531Y-100457000D01*
X111956032Y-100689027D01*
X112204179Y-101218490D01*
X112622160Y-101600007D01*
X112351330Y-101780971D01*
X112026474Y-102267152D01*
X111912400Y-102840641D01*
X111912400Y-102899359D01*
X112026474Y-103472848D01*
X112351330Y-103959029D01*
X112622172Y-104140000D01*
X112351330Y-104320971D01*
X112026474Y-104807152D01*
X111912400Y-105380641D01*
X111912400Y-105439359D01*
X112026474Y-106012848D01*
X112351330Y-106499029D01*
X112837511Y-106823885D01*
X113411000Y-106937959D01*
X113984489Y-106823885D01*
X114470670Y-106499029D01*
X114480766Y-106483918D01*
X114486937Y-106515723D01*
X114626727Y-106728527D01*
X114837760Y-106870977D01*
X115087400Y-106921040D01*
X116814600Y-106921040D01*
X117056723Y-106874063D01*
X117269527Y-106734273D01*
X117411977Y-106523240D01*
X117462040Y-106273600D01*
X117462040Y-104546400D01*
X117415063Y-104304277D01*
X117275273Y-104091473D01*
X117064240Y-103949023D01*
X117022895Y-103940731D01*
X117335526Y-103472848D01*
X117449600Y-102899359D01*
X117449600Y-102840641D01*
X117384158Y-102511643D01*
X117604000Y-102291802D01*
X117604000Y-106934000D01*
X117661852Y-107224839D01*
X117826599Y-107471401D01*
X121170960Y-110815762D01*
X121170960Y-112268000D01*
X121217937Y-112510123D01*
X121357727Y-112722927D01*
X121568760Y-112865377D01*
X121818400Y-112915440D01*
X123545600Y-112915440D01*
X123787723Y-112868463D01*
X124000527Y-112728673D01*
X124142977Y-112517640D01*
X124161483Y-112425354D01*
X124319964Y-112602732D01*
X124847209Y-112856709D01*
X124862974Y-112859358D01*
X125095000Y-112738217D01*
X125095000Y-111379000D01*
X125075000Y-111379000D01*
X125075000Y-111125000D01*
X125095000Y-111125000D01*
X125095000Y-109765783D01*
X124862974Y-109644642D01*
X124847209Y-109647291D01*
X124319964Y-109901268D01*
X124162326Y-110077701D01*
X124146063Y-109993877D01*
X124006273Y-109781073D01*
X123795240Y-109638623D01*
X123545600Y-109588560D01*
X122093362Y-109588560D01*
X119124000Y-106619198D01*
X119124000Y-100924233D01*
X119156192Y-100892098D01*
X119298838Y-100548570D01*
X119299162Y-100176604D01*
X119157117Y-99832828D01*
X119099979Y-99775591D01*
X120122371Y-98753200D01*
X120479536Y-98753200D01*
X120733330Y-99133029D01*
X121004172Y-99314000D01*
X120733330Y-99494971D01*
X120408474Y-99981152D01*
X120294400Y-100554641D01*
X120294400Y-100613359D01*
X120408474Y-101186848D01*
X120733330Y-101673029D01*
X121219511Y-101997885D01*
X121793000Y-102111959D01*
X122298088Y-102011490D01*
X122677999Y-102391401D01*
X122924560Y-102556148D01*
X122924561Y-102556148D01*
X123215400Y-102614000D01*
X128844198Y-102614000D01*
X132998797Y-106768600D01*
X132949950Y-106768600D01*
X132791200Y-106927350D01*
X132791200Y-108051600D01*
X132811200Y-108051600D01*
X132811200Y-108305600D01*
X132791200Y-108305600D01*
X132791200Y-108325600D01*
X132537200Y-108325600D01*
X132537200Y-108305600D01*
X132537200Y-108051600D01*
X132537200Y-106927350D01*
X132378450Y-106768600D01*
X132237890Y-106768600D01*
X132004501Y-106865273D01*
X131825873Y-107043902D01*
X131729200Y-107277291D01*
X131729200Y-107892850D01*
X131887950Y-108051600D01*
X132537200Y-108051600D01*
X132537200Y-108305600D01*
X131887950Y-108305600D01*
X131729200Y-108464350D01*
X131729200Y-108518601D01*
X130898999Y-108518601D01*
X130589025Y-108580259D01*
X130483769Y-108650588D01*
X130326243Y-108755844D01*
X128922940Y-110159147D01*
X128821670Y-110007585D01*
X128335489Y-109682729D01*
X127762000Y-109568655D01*
X127188511Y-109682729D01*
X126702330Y-110007585D01*
X126495539Y-110317069D01*
X126124036Y-109901268D01*
X125596791Y-109647291D01*
X125581026Y-109644642D01*
X125349000Y-109765783D01*
X125349000Y-111125000D01*
X125369000Y-111125000D01*
X125369000Y-111379000D01*
X125349000Y-111379000D01*
X125349000Y-112738217D01*
X125581026Y-112859358D01*
X125596791Y-112856709D01*
X126124036Y-112602732D01*
X126495539Y-112186930D01*
X126702330Y-112496415D01*
X127188511Y-112821271D01*
X127762000Y-112935345D01*
X128335489Y-112821271D01*
X128821670Y-112496415D01*
X129132835Y-112030723D01*
X129285573Y-112000342D01*
X129285574Y-112000342D01*
X129548356Y-111824756D01*
X131234511Y-110138601D01*
X131350492Y-110138601D01*
X131330960Y-110236000D01*
X131330960Y-112268000D01*
X131377937Y-112510123D01*
X131517727Y-112722927D01*
X131728760Y-112865377D01*
X131978400Y-112915440D01*
X133705600Y-112915440D01*
X133947723Y-112868463D01*
X134160527Y-112728673D01*
X134302977Y-112517640D01*
X134310718Y-112479037D01*
X134322330Y-112496415D01*
X134808511Y-112821271D01*
X135382000Y-112935345D01*
X135955489Y-112821271D01*
X136441670Y-112496415D01*
X136652000Y-112181634D01*
X136862330Y-112496415D01*
X137348511Y-112821271D01*
X137922000Y-112935345D01*
X138495489Y-112821271D01*
X138981670Y-112496415D01*
X139306526Y-112010234D01*
X139420600Y-111436745D01*
X139420600Y-111067255D01*
X139306526Y-110493766D01*
X138981670Y-110007585D01*
X138495489Y-109682729D01*
X138374791Y-109658720D01*
X139994600Y-108038912D01*
X139994600Y-112407898D01*
G36*
X157861000Y-113918500D02*
X147165402Y-113918500D01*
X148179656Y-112904246D01*
X148336000Y-112935345D01*
X148909489Y-112821271D01*
X149395670Y-112496415D01*
X149606000Y-112181634D01*
X149816330Y-112496415D01*
X150302511Y-112821271D01*
X150876000Y-112935345D01*
X151449489Y-112821271D01*
X151935670Y-112496415D01*
X152146000Y-112181634D01*
X152356330Y-112496415D01*
X152842511Y-112821271D01*
X153416000Y-112935345D01*
X153989489Y-112821271D01*
X154475670Y-112496415D01*
X154686000Y-112181634D01*
X154896330Y-112496415D01*
X155382511Y-112821271D01*
X155956000Y-112935345D01*
X156529489Y-112821271D01*
X157015670Y-112496415D01*
X157340526Y-112010234D01*
X157454600Y-111436745D01*
X157454600Y-111067255D01*
X157340526Y-110493766D01*
X157015670Y-110007585D01*
X156529489Y-109682729D01*
X155956000Y-109568655D01*
X155382511Y-109682729D01*
X154896330Y-110007585D01*
X154686000Y-110322365D01*
X154475670Y-110007585D01*
X153989489Y-109682729D01*
X153416000Y-109568655D01*
X152842511Y-109682729D01*
X152356330Y-110007585D01*
X152146000Y-110322365D01*
X151935670Y-110007585D01*
X151449489Y-109682729D01*
X150876000Y-109568655D01*
X150302511Y-109682729D01*
X149816330Y-110007585D01*
X149606000Y-110322365D01*
X149395670Y-110007585D01*
X148909489Y-109682729D01*
X148336000Y-109568655D01*
X147762511Y-109682729D01*
X147276330Y-110007585D01*
X147069539Y-110317069D01*
X146698036Y-109901268D01*
X146170791Y-109647291D01*
X146155026Y-109644642D01*
X145923000Y-109765783D01*
X145923000Y-111125000D01*
X145943000Y-111125000D01*
X145943000Y-111379000D01*
X145923000Y-111379000D01*
X145923000Y-111399000D01*
X145669000Y-111399000D01*
X145669000Y-111379000D01*
X145669000Y-111125000D01*
X145669000Y-109765783D01*
X145436974Y-109644642D01*
X145421209Y-109647291D01*
X144893964Y-109901268D01*
X144739758Y-110073860D01*
X144657927Y-109876302D01*
X144479299Y-109697673D01*
X144245910Y-109601000D01*
X143993291Y-109601000D01*
X143541750Y-109601000D01*
X143383000Y-109759750D01*
X143383000Y-111125000D01*
X144455076Y-111125000D01*
X144595850Y-111125000D01*
X145669000Y-111125000D01*
X145669000Y-111379000D01*
X144595850Y-111379000D01*
X144455076Y-111379000D01*
X143383000Y-111379000D01*
X143383000Y-112744250D01*
X143541750Y-112903000D01*
X143993291Y-112903000D01*
X144245910Y-112903000D01*
X144479299Y-112806327D01*
X144657927Y-112627698D01*
X144739758Y-112430139D01*
X144893964Y-112602732D01*
X145421209Y-112856709D01*
X145436974Y-112859358D01*
X145647407Y-112749490D01*
X145427897Y-112969000D01*
X141861262Y-112969000D01*
X141894599Y-112801400D01*
X141894600Y-112801400D01*
X141894600Y-112668225D01*
X142032701Y-112806327D01*
X142266090Y-112903000D01*
X142518709Y-112903000D01*
X142970250Y-112903000D01*
X143129000Y-112744250D01*
X143129000Y-111379000D01*
X143109000Y-111379000D01*
X143109000Y-111125000D01*
X143129000Y-111125000D01*
X143129000Y-109759750D01*
X142970250Y-109601000D01*
X142518709Y-109601000D01*
X142266090Y-109601000D01*
X142032701Y-109697673D01*
X141894600Y-109835774D01*
X141894600Y-107047564D01*
X141907527Y-107039073D01*
X142049977Y-106828040D01*
X142087394Y-106641457D01*
X142122137Y-106820523D01*
X142261927Y-107033327D01*
X142472960Y-107175777D01*
X142722600Y-107225840D01*
X143738600Y-107225840D01*
X143980723Y-107178863D01*
X144193527Y-107039073D01*
X144335977Y-106828040D01*
X144373600Y-106640432D01*
X144373600Y-106704710D01*
X144470273Y-106938099D01*
X144648902Y-107116727D01*
X144882291Y-107213400D01*
X145230850Y-107213400D01*
X145389600Y-107054650D01*
X145389600Y-105689400D01*
X145369600Y-105689400D01*
X145369600Y-105435400D01*
X145389600Y-105435400D01*
X145389600Y-105415400D01*
X145643600Y-105415400D01*
X145643600Y-105435400D01*
X146500850Y-105435400D01*
X146659600Y-105276650D01*
X146659600Y-104672709D01*
X146659600Y-104420090D01*
X146562927Y-104186701D01*
X146384298Y-104008073D01*
X146150909Y-103911400D01*
X145802350Y-103911400D01*
X145643602Y-104070148D01*
X145643602Y-103911400D01*
X145625179Y-103911400D01*
X146531579Y-103005000D01*
X146981737Y-103005000D01*
X146945000Y-103093691D01*
X146945000Y-103334250D01*
X147103750Y-103493000D01*
X147828000Y-103493000D01*
X147828000Y-103473000D01*
X148082000Y-103473000D01*
X148082000Y-103493000D01*
X148806250Y-103493000D01*
X148965000Y-103334250D01*
X148965000Y-103093691D01*
X148920783Y-102986942D01*
X149112484Y-102948810D01*
X149168674Y-102937633D01*
X149168675Y-102937633D01*
X149455790Y-102745790D01*
X151622759Y-100578819D01*
X151628790Y-100574790D01*
X151767786Y-100435792D01*
X151767790Y-100435790D01*
X151767790Y-100435789D01*
X151959633Y-100148675D01*
X151959633Y-100148674D01*
X151970810Y-100092484D01*
X152027000Y-99810000D01*
X152027001Y-99810000D01*
X152027000Y-99809994D01*
X152027000Y-97489507D01*
X152142360Y-97567377D01*
X152392000Y-97617440D01*
X152892000Y-97617440D01*
X153134123Y-97570463D01*
X153346927Y-97430673D01*
X153364256Y-97405000D01*
X153537152Y-97405000D01*
X153553538Y-97444655D01*
X154012927Y-97904846D01*
X154613453Y-98154206D01*
X155263694Y-98154774D01*
X155864655Y-97906462D01*
X156324846Y-97447073D01*
X156574206Y-96846547D01*
X156574220Y-96829604D01*
X157230000Y-97485383D01*
X157230000Y-102951002D01*
X157040837Y-102950838D01*
X156697061Y-103092883D01*
X156433812Y-103355673D01*
X156291166Y-103699201D01*
X156290842Y-104071167D01*
X156319921Y-104141544D01*
X155467050Y-104994416D01*
X155467050Y-104901420D01*
X155370377Y-104668031D01*
X155191748Y-104489403D01*
X154958359Y-104392730D01*
X154717750Y-104392730D01*
X154559000Y-104551480D01*
X154559000Y-105300780D01*
X154579000Y-105300780D01*
X154579000Y-105554780D01*
X154559000Y-105554780D01*
X154559000Y-105574780D01*
X154305000Y-105574780D01*
X154305000Y-105554780D01*
X154305000Y-105300780D01*
X154305000Y-104551480D01*
X154146250Y-104392730D01*
X153905641Y-104392730D01*
X153672252Y-104489403D01*
X153493623Y-104668031D01*
X153396950Y-104901420D01*
X153396950Y-105142030D01*
X153555700Y-105300780D01*
X154305000Y-105300780D01*
X154305000Y-105554780D01*
X153555700Y-105554780D01*
X153445286Y-105665194D01*
X152678091Y-104897999D01*
X152431529Y-104733252D01*
X152351367Y-104717306D01*
X152306562Y-104687062D01*
X152448527Y-104545098D01*
X152545200Y-104311709D01*
X152545200Y-104219150D01*
X152545200Y-103651650D01*
X152545200Y-103559091D01*
X152448527Y-103325702D01*
X152269899Y-103147073D01*
X152036510Y-103050400D01*
X151783891Y-103050400D01*
X151745950Y-103050400D01*
X151587200Y-103209150D01*
X151587200Y-103810400D01*
X152386450Y-103810400D01*
X152545200Y-103651650D01*
X152545200Y-104219150D01*
X152386450Y-104060400D01*
X151587200Y-104060400D01*
X151587200Y-104082400D01*
X151333200Y-104082400D01*
X151333200Y-104060400D01*
X151333200Y-103810400D01*
X151333200Y-103209150D01*
X151174450Y-103050400D01*
X151136509Y-103050400D01*
X150883890Y-103050400D01*
X150650501Y-103147073D01*
X150471873Y-103325702D01*
X150375200Y-103559091D01*
X150375200Y-103651650D01*
X150533950Y-103810400D01*
X151333200Y-103810400D01*
X151333200Y-104060400D01*
X150533950Y-104060400D01*
X150375200Y-104219150D01*
X150375200Y-104311709D01*
X150471873Y-104545098D01*
X150613350Y-104686576D01*
X150555273Y-104724727D01*
X150412823Y-104935760D01*
X150362760Y-105185400D01*
X150362760Y-105685400D01*
X150409737Y-105927523D01*
X150549527Y-106140327D01*
X150760560Y-106282777D01*
X151010200Y-106332840D01*
X151910200Y-106332840D01*
X151954695Y-106324207D01*
X152471708Y-106841220D01*
X152434510Y-107026710D01*
X152434510Y-107826810D01*
X152468736Y-108003217D01*
X152433136Y-107917057D01*
X152170346Y-107653808D01*
X151826818Y-107511162D01*
X151454852Y-107510838D01*
X151151936Y-107636000D01*
X148965000Y-107636000D01*
X148965000Y-104146309D01*
X148965000Y-103905750D01*
X148806250Y-103747000D01*
X148082000Y-103747000D01*
X148082000Y-104496250D01*
X148240750Y-104655000D01*
X148456310Y-104655000D01*
X148689699Y-104558327D01*
X148868327Y-104379698D01*
X148965000Y-104146309D01*
X148965000Y-107636000D01*
X147828000Y-107636000D01*
X147828000Y-104496250D01*
X147828000Y-103747000D01*
X147103750Y-103747000D01*
X146945000Y-103905750D01*
X146945000Y-104146309D01*
X147041673Y-104379698D01*
X147220301Y-104558327D01*
X147453690Y-104655000D01*
X147669250Y-104655000D01*
X147828000Y-104496250D01*
X147828000Y-107636000D01*
X147777836Y-107636000D01*
X147602429Y-107460593D01*
X147478117Y-107159733D01*
X147215327Y-106896484D01*
X146871799Y-106753838D01*
X146639334Y-106753635D01*
X146659600Y-106704710D01*
X146659600Y-106452091D01*
X146659600Y-105848150D01*
X146500850Y-105689400D01*
X145643600Y-105689400D01*
X145643600Y-107054650D01*
X145802350Y-107213400D01*
X145869948Y-107213400D01*
X145750162Y-107501877D01*
X145749838Y-107873843D01*
X145891883Y-108217619D01*
X146154673Y-108480868D01*
X146457371Y-108606560D01*
X146869568Y-109018757D01*
X147132350Y-109194342D01*
X147132351Y-109194343D01*
X147270220Y-109221766D01*
X147442324Y-109256000D01*
X151152578Y-109256000D01*
X151453220Y-109380838D01*
X151825186Y-109381162D01*
X152168962Y-109239117D01*
X152432211Y-108976327D01*
X152574857Y-108632799D01*
X152575181Y-108260833D01*
X152520308Y-108128032D01*
X152621277Y-108281737D01*
X152832310Y-108424187D01*
X153081950Y-108474250D01*
X153882050Y-108474250D01*
X154124173Y-108427273D01*
X154336977Y-108287483D01*
X154432293Y-108146276D01*
X154521277Y-108281737D01*
X154732310Y-108424187D01*
X154981950Y-108474250D01*
X155782050Y-108474250D01*
X156024173Y-108427273D01*
X156200019Y-108311760D01*
X156282044Y-108311760D01*
X156282050Y-108311761D01*
X156282050Y-108311760D01*
X156564534Y-108255570D01*
X156620724Y-108244393D01*
X156620725Y-108244393D01*
X156907840Y-108052550D01*
X157861000Y-107099389D01*
X157861000Y-113918500D01*
X157861000Y-113918500D01*
G37*
X157861000Y-113918500D02*
X147165402Y-113918500D01*
X148179656Y-112904246D01*
X148336000Y-112935345D01*
X148909489Y-112821271D01*
X149395670Y-112496415D01*
X149606000Y-112181634D01*
X149816330Y-112496415D01*
X150302511Y-112821271D01*
X150876000Y-112935345D01*
X151449489Y-112821271D01*
X151935670Y-112496415D01*
X152146000Y-112181634D01*
X152356330Y-112496415D01*
X152842511Y-112821271D01*
X153416000Y-112935345D01*
X153989489Y-112821271D01*
X154475670Y-112496415D01*
X154686000Y-112181634D01*
X154896330Y-112496415D01*
X155382511Y-112821271D01*
X155956000Y-112935345D01*
X156529489Y-112821271D01*
X157015670Y-112496415D01*
X157340526Y-112010234D01*
X157454600Y-111436745D01*
X157454600Y-111067255D01*
X157340526Y-110493766D01*
X157015670Y-110007585D01*
X156529489Y-109682729D01*
X155956000Y-109568655D01*
X155382511Y-109682729D01*
X154896330Y-110007585D01*
X154686000Y-110322365D01*
X154475670Y-110007585D01*
X153989489Y-109682729D01*
X153416000Y-109568655D01*
X152842511Y-109682729D01*
X152356330Y-110007585D01*
X152146000Y-110322365D01*
X151935670Y-110007585D01*
X151449489Y-109682729D01*
X150876000Y-109568655D01*
X150302511Y-109682729D01*
X149816330Y-110007585D01*
X149606000Y-110322365D01*
X149395670Y-110007585D01*
X148909489Y-109682729D01*
X148336000Y-109568655D01*
X147762511Y-109682729D01*
X147276330Y-110007585D01*
X147069539Y-110317069D01*
X146698036Y-109901268D01*
X146170791Y-109647291D01*
X146155026Y-109644642D01*
X145923000Y-109765783D01*
X145923000Y-111125000D01*
X145943000Y-111125000D01*
X145943000Y-111379000D01*
X145923000Y-111379000D01*
X145923000Y-111399000D01*
X145669000Y-111399000D01*
X145669000Y-111379000D01*
X145669000Y-111125000D01*
X145669000Y-109765783D01*
X145436974Y-109644642D01*
X145421209Y-109647291D01*
X144893964Y-109901268D01*
X144739758Y-110073860D01*
X144657927Y-109876302D01*
X144479299Y-109697673D01*
X144245910Y-109601000D01*
X143993291Y-109601000D01*
X143541750Y-109601000D01*
X143383000Y-109759750D01*
X143383000Y-111125000D01*
X144455076Y-111125000D01*
X144595850Y-111125000D01*
X145669000Y-111125000D01*
X145669000Y-111379000D01*
X144595850Y-111379000D01*
X144455076Y-111379000D01*
X143383000Y-111379000D01*
X143383000Y-112744250D01*
X143541750Y-112903000D01*
X143993291Y-112903000D01*
X144245910Y-112903000D01*
X144479299Y-112806327D01*
X144657927Y-112627698D01*
X144739758Y-112430139D01*
X144893964Y-112602732D01*
X145421209Y-112856709D01*
X145436974Y-112859358D01*
X145647407Y-112749490D01*
X145427897Y-112969000D01*
X141861262Y-112969000D01*
X141894599Y-112801400D01*
X141894600Y-112801400D01*
X141894600Y-112668225D01*
X142032701Y-112806327D01*
X142266090Y-112903000D01*
X142518709Y-112903000D01*
X142970250Y-112903000D01*
X143129000Y-112744250D01*
X143129000Y-111379000D01*
X143109000Y-111379000D01*
X143109000Y-111125000D01*
X143129000Y-111125000D01*
X143129000Y-109759750D01*
X142970250Y-109601000D01*
X142518709Y-109601000D01*
X142266090Y-109601000D01*
X142032701Y-109697673D01*
X141894600Y-109835774D01*
X141894600Y-107047564D01*
X141907527Y-107039073D01*
X142049977Y-106828040D01*
X142087394Y-106641457D01*
X142122137Y-106820523D01*
X142261927Y-107033327D01*
X142472960Y-107175777D01*
X142722600Y-107225840D01*
X143738600Y-107225840D01*
X143980723Y-107178863D01*
X144193527Y-107039073D01*
X144335977Y-106828040D01*
X144373600Y-106640432D01*
X144373600Y-106704710D01*
X144470273Y-106938099D01*
X144648902Y-107116727D01*
X144882291Y-107213400D01*
X145230850Y-107213400D01*
X145389600Y-107054650D01*
X145389600Y-105689400D01*
X145369600Y-105689400D01*
X145369600Y-105435400D01*
X145389600Y-105435400D01*
X145389600Y-105415400D01*
X145643600Y-105415400D01*
X145643600Y-105435400D01*
X146500850Y-105435400D01*
X146659600Y-105276650D01*
X146659600Y-104672709D01*
X146659600Y-104420090D01*
X146562927Y-104186701D01*
X146384298Y-104008073D01*
X146150909Y-103911400D01*
X145802350Y-103911400D01*
X145643602Y-104070148D01*
X145643602Y-103911400D01*
X145625179Y-103911400D01*
X146531579Y-103005000D01*
X146981737Y-103005000D01*
X146945000Y-103093691D01*
X146945000Y-103334250D01*
X147103750Y-103493000D01*
X147828000Y-103493000D01*
X147828000Y-103473000D01*
X148082000Y-103473000D01*
X148082000Y-103493000D01*
X148806250Y-103493000D01*
X148965000Y-103334250D01*
X148965000Y-103093691D01*
X148920783Y-102986942D01*
X149112484Y-102948810D01*
X149168674Y-102937633D01*
X149168675Y-102937633D01*
X149455790Y-102745790D01*
X151622759Y-100578819D01*
X151628790Y-100574790D01*
X151767786Y-100435792D01*
X151767790Y-100435790D01*
X151767790Y-100435789D01*
X151959633Y-100148675D01*
X151959633Y-100148674D01*
X151970810Y-100092484D01*
X152027000Y-99810000D01*
X152027001Y-99810000D01*
X152027000Y-99809994D01*
X152027000Y-97489507D01*
X152142360Y-97567377D01*
X152392000Y-97617440D01*
X152892000Y-97617440D01*
X153134123Y-97570463D01*
X153346927Y-97430673D01*
X153364256Y-97405000D01*
X153537152Y-97405000D01*
X153553538Y-97444655D01*
X154012927Y-97904846D01*
X154613453Y-98154206D01*
X155263694Y-98154774D01*
X155864655Y-97906462D01*
X156324846Y-97447073D01*
X156574206Y-96846547D01*
X156574220Y-96829604D01*
X157230000Y-97485383D01*
X157230000Y-102951002D01*
X157040837Y-102950838D01*
X156697061Y-103092883D01*
X156433812Y-103355673D01*
X156291166Y-103699201D01*
X156290842Y-104071167D01*
X156319921Y-104141544D01*
X155467050Y-104994416D01*
X155467050Y-104901420D01*
X155370377Y-104668031D01*
X155191748Y-104489403D01*
X154958359Y-104392730D01*
X154717750Y-104392730D01*
X154559000Y-104551480D01*
X154559000Y-105300780D01*
X154579000Y-105300780D01*
X154579000Y-105554780D01*
X154559000Y-105554780D01*
X154559000Y-105574780D01*
X154305000Y-105574780D01*
X154305000Y-105554780D01*
X154305000Y-105300780D01*
X154305000Y-104551480D01*
X154146250Y-104392730D01*
X153905641Y-104392730D01*
X153672252Y-104489403D01*
X153493623Y-104668031D01*
X153396950Y-104901420D01*
X153396950Y-105142030D01*
X153555700Y-105300780D01*
X154305000Y-105300780D01*
X154305000Y-105554780D01*
X153555700Y-105554780D01*
X153445286Y-105665194D01*
X152678091Y-104897999D01*
X152431529Y-104733252D01*
X152351367Y-104717306D01*
X152306562Y-104687062D01*
X152448527Y-104545098D01*
X152545200Y-104311709D01*
X152545200Y-104219150D01*
X152545200Y-103651650D01*
X152545200Y-103559091D01*
X152448527Y-103325702D01*
X152269899Y-103147073D01*
X152036510Y-103050400D01*
X151783891Y-103050400D01*
X151745950Y-103050400D01*
X151587200Y-103209150D01*
X151587200Y-103810400D01*
X152386450Y-103810400D01*
X152545200Y-103651650D01*
X152545200Y-104219150D01*
X152386450Y-104060400D01*
X151587200Y-104060400D01*
X151587200Y-104082400D01*
X151333200Y-104082400D01*
X151333200Y-104060400D01*
X151333200Y-103810400D01*
X151333200Y-103209150D01*
X151174450Y-103050400D01*
X151136509Y-103050400D01*
X150883890Y-103050400D01*
X150650501Y-103147073D01*
X150471873Y-103325702D01*
X150375200Y-103559091D01*
X150375200Y-103651650D01*
X150533950Y-103810400D01*
X151333200Y-103810400D01*
X151333200Y-104060400D01*
X150533950Y-104060400D01*
X150375200Y-104219150D01*
X150375200Y-104311709D01*
X150471873Y-104545098D01*
X150613350Y-104686576D01*
X150555273Y-104724727D01*
X150412823Y-104935760D01*
X150362760Y-105185400D01*
X150362760Y-105685400D01*
X150409737Y-105927523D01*
X150549527Y-106140327D01*
X150760560Y-106282777D01*
X151010200Y-106332840D01*
X151910200Y-106332840D01*
X151954695Y-106324207D01*
X152471708Y-106841220D01*
X152434510Y-107026710D01*
X152434510Y-107826810D01*
X152468736Y-108003217D01*
X152433136Y-107917057D01*
X152170346Y-107653808D01*
X151826818Y-107511162D01*
X151454852Y-107510838D01*
X151151936Y-107636000D01*
X148965000Y-107636000D01*
X148965000Y-104146309D01*
X148965000Y-103905750D01*
X148806250Y-103747000D01*
X148082000Y-103747000D01*
X148082000Y-104496250D01*
X148240750Y-104655000D01*
X148456310Y-104655000D01*
X148689699Y-104558327D01*
X148868327Y-104379698D01*
X148965000Y-104146309D01*
X148965000Y-107636000D01*
X147828000Y-107636000D01*
X147828000Y-104496250D01*
X147828000Y-103747000D01*
X147103750Y-103747000D01*
X146945000Y-103905750D01*
X146945000Y-104146309D01*
X147041673Y-104379698D01*
X147220301Y-104558327D01*
X147453690Y-104655000D01*
X147669250Y-104655000D01*
X147828000Y-104496250D01*
X147828000Y-107636000D01*
X147777836Y-107636000D01*
X147602429Y-107460593D01*
X147478117Y-107159733D01*
X147215327Y-106896484D01*
X146871799Y-106753838D01*
X146639334Y-106753635D01*
X146659600Y-106704710D01*
X146659600Y-106452091D01*
X146659600Y-105848150D01*
X146500850Y-105689400D01*
X145643600Y-105689400D01*
X145643600Y-107054650D01*
X145802350Y-107213400D01*
X145869948Y-107213400D01*
X145750162Y-107501877D01*
X145749838Y-107873843D01*
X145891883Y-108217619D01*
X146154673Y-108480868D01*
X146457371Y-108606560D01*
X146869568Y-109018757D01*
X147132350Y-109194342D01*
X147132351Y-109194343D01*
X147270220Y-109221766D01*
X147442324Y-109256000D01*
X151152578Y-109256000D01*
X151453220Y-109380838D01*
X151825186Y-109381162D01*
X152168962Y-109239117D01*
X152432211Y-108976327D01*
X152574857Y-108632799D01*
X152575181Y-108260833D01*
X152520308Y-108128032D01*
X152621277Y-108281737D01*
X152832310Y-108424187D01*
X153081950Y-108474250D01*
X153882050Y-108474250D01*
X154124173Y-108427273D01*
X154336977Y-108287483D01*
X154432293Y-108146276D01*
X154521277Y-108281737D01*
X154732310Y-108424187D01*
X154981950Y-108474250D01*
X155782050Y-108474250D01*
X156024173Y-108427273D01*
X156200019Y-108311760D01*
X156282044Y-108311760D01*
X156282050Y-108311761D01*
X156282050Y-108311760D01*
X156564534Y-108255570D01*
X156620724Y-108244393D01*
X156620725Y-108244393D01*
X156907840Y-108052550D01*
X157861000Y-107099389D01*
X157861000Y-113918500D01*
M02*
