G04 #@! TF.FileFunction,Soldermask,Bot*
%FSLAX46Y46*%
G04 Gerber Fmt 4.6, Leading zero omitted, Abs format (unit mm)*
G04 Created by KiCad (PCBNEW (2015-05-28 BZR 5690)-product) date Thursday, June 25, 2015 'AMt' 09:08:00 AM*
%MOMM*%
G01*
G04 APERTURE LIST*
%ADD10C,0.100000*%
%ADD11C,0.175000*%
%ADD12C,0.002540*%
%ADD13R,0.750000X0.800000*%
%ADD14R,1.727200X1.727200*%
%ADD15O,1.727200X1.727200*%
%ADD16R,1.727200X2.032000*%
%ADD17O,1.727200X2.032000*%
%ADD18R,0.800100X0.800100*%
%ADD19R,0.900000X0.500000*%
%ADD20R,0.500000X0.900000*%
%ADD21R,0.600000X1.550000*%
%ADD22R,3.657600X2.032000*%
%ADD23R,1.016000X2.032000*%
%ADD24C,1.998980*%
%ADD25R,1.699260X1.699260*%
%ADD26O,1.998980X1.998980*%
%ADD27R,1.998980X1.998980*%
G04 APERTURE END LIST*
D10*
D11*
X128357333Y-103428667D02*
X128357333Y-102728667D01*
X128124000Y-103228667D01*
X127890667Y-102728667D01*
X127890667Y-103428667D01*
X127624000Y-102962000D02*
X127457333Y-103428667D01*
X127290667Y-102962000D02*
X127457333Y-103428667D01*
X127524000Y-103595333D01*
X127557333Y-103628667D01*
X127624000Y-103662000D01*
X127057334Y-103395333D02*
X126957334Y-103428667D01*
X126790667Y-103428667D01*
X126724000Y-103395333D01*
X126690667Y-103362000D01*
X126657334Y-103295333D01*
X126657334Y-103228667D01*
X126690667Y-103162000D01*
X126724000Y-103128667D01*
X126790667Y-103095333D01*
X126924000Y-103062000D01*
X126990667Y-103028667D01*
X127024000Y-102995333D01*
X127057334Y-102928667D01*
X127057334Y-102862000D01*
X127024000Y-102795333D01*
X126990667Y-102762000D01*
X126924000Y-102728667D01*
X126757334Y-102728667D01*
X126657334Y-102762000D01*
X126090667Y-103395333D02*
X126157333Y-103428667D01*
X126290667Y-103428667D01*
X126357333Y-103395333D01*
X126390667Y-103328667D01*
X126390667Y-103062000D01*
X126357333Y-102995333D01*
X126290667Y-102962000D01*
X126157333Y-102962000D01*
X126090667Y-102995333D01*
X126057333Y-103062000D01*
X126057333Y-103128667D01*
X126390667Y-103195333D01*
X125757333Y-102962000D02*
X125757333Y-103428667D01*
X125757333Y-103028667D02*
X125724000Y-102995333D01*
X125657333Y-102962000D01*
X125557333Y-102962000D01*
X125490667Y-102995333D01*
X125457333Y-103062000D01*
X125457333Y-103428667D01*
X125157334Y-103395333D02*
X125090667Y-103428667D01*
X124957334Y-103428667D01*
X124890667Y-103395333D01*
X124857334Y-103328667D01*
X124857334Y-103295333D01*
X124890667Y-103228667D01*
X124957334Y-103195333D01*
X125057334Y-103195333D01*
X125124000Y-103162000D01*
X125157334Y-103095333D01*
X125157334Y-103062000D01*
X125124000Y-102995333D01*
X125057334Y-102962000D01*
X124957334Y-102962000D01*
X124890667Y-102995333D01*
X124457333Y-103428667D02*
X124524000Y-103395333D01*
X124557333Y-103362000D01*
X124590667Y-103295333D01*
X124590667Y-103095333D01*
X124557333Y-103028667D01*
X124524000Y-102995333D01*
X124457333Y-102962000D01*
X124357333Y-102962000D01*
X124290667Y-102995333D01*
X124257333Y-103028667D01*
X124224000Y-103095333D01*
X124224000Y-103295333D01*
X124257333Y-103362000D01*
X124290667Y-103395333D01*
X124357333Y-103428667D01*
X124457333Y-103428667D01*
X123924000Y-103428667D02*
X123924000Y-102962000D01*
X123924000Y-103095333D02*
X123890667Y-103028667D01*
X123857334Y-102995333D01*
X123790667Y-102962000D01*
X123724000Y-102962000D01*
X123524001Y-103395333D02*
X123457334Y-103428667D01*
X123324001Y-103428667D01*
X123257334Y-103395333D01*
X123224001Y-103328667D01*
X123224001Y-103295333D01*
X123257334Y-103228667D01*
X123324001Y-103195333D01*
X123424001Y-103195333D01*
X123490667Y-103162000D01*
X123524001Y-103095333D01*
X123524001Y-103062000D01*
X123490667Y-102995333D01*
X123424001Y-102962000D01*
X123324001Y-102962000D01*
X123257334Y-102995333D01*
X122924000Y-103362000D02*
X122890667Y-103395333D01*
X122924000Y-103428667D01*
X122957334Y-103395333D01*
X122924000Y-103362000D01*
X122924000Y-103428667D01*
X122490667Y-103428667D02*
X122557334Y-103395333D01*
X122590667Y-103362000D01*
X122624001Y-103295333D01*
X122624001Y-103095333D01*
X122590667Y-103028667D01*
X122557334Y-102995333D01*
X122490667Y-102962000D01*
X122390667Y-102962000D01*
X122324001Y-102995333D01*
X122290667Y-103028667D01*
X122257334Y-103095333D01*
X122257334Y-103295333D01*
X122290667Y-103362000D01*
X122324001Y-103395333D01*
X122390667Y-103428667D01*
X122490667Y-103428667D01*
X121957334Y-103428667D02*
X121957334Y-102962000D01*
X121957334Y-103095333D02*
X121924001Y-103028667D01*
X121890668Y-102995333D01*
X121824001Y-102962000D01*
X121757334Y-102962000D01*
X121224001Y-102962000D02*
X121224001Y-103528667D01*
X121257335Y-103595333D01*
X121290668Y-103628667D01*
X121357335Y-103662000D01*
X121457335Y-103662000D01*
X121524001Y-103628667D01*
X121224001Y-103395333D02*
X121290668Y-103428667D01*
X121424001Y-103428667D01*
X121490668Y-103395333D01*
X121524001Y-103362000D01*
X121557335Y-103295333D01*
X121557335Y-103095333D01*
X121524001Y-103028667D01*
X121490668Y-102995333D01*
X121424001Y-102962000D01*
X121290668Y-102962000D01*
X121224001Y-102995333D01*
X128357333Y-104583667D02*
X128357333Y-103883667D01*
X127624000Y-104583667D02*
X127857334Y-104250333D01*
X128024000Y-104583667D02*
X128024000Y-103883667D01*
X127757334Y-103883667D01*
X127690667Y-103917000D01*
X127657334Y-103950333D01*
X127624000Y-104017000D01*
X127624000Y-104117000D01*
X127657334Y-104183667D01*
X127690667Y-104217000D01*
X127757334Y-104250333D01*
X128024000Y-104250333D01*
X126557334Y-104217000D02*
X126457334Y-104250333D01*
X126424001Y-104283667D01*
X126390667Y-104350333D01*
X126390667Y-104450333D01*
X126424001Y-104517000D01*
X126457334Y-104550333D01*
X126524001Y-104583667D01*
X126790667Y-104583667D01*
X126790667Y-103883667D01*
X126557334Y-103883667D01*
X126490667Y-103917000D01*
X126457334Y-103950333D01*
X126424001Y-104017000D01*
X126424001Y-104083667D01*
X126457334Y-104150333D01*
X126490667Y-104183667D01*
X126557334Y-104217000D01*
X126790667Y-104217000D01*
X125990667Y-104583667D02*
X126057334Y-104550333D01*
X126090667Y-104483667D01*
X126090667Y-103883667D01*
X125424000Y-104583667D02*
X125424000Y-104217000D01*
X125457334Y-104150333D01*
X125524000Y-104117000D01*
X125657334Y-104117000D01*
X125724000Y-104150333D01*
X125424000Y-104550333D02*
X125490667Y-104583667D01*
X125657334Y-104583667D01*
X125724000Y-104550333D01*
X125757334Y-104483667D01*
X125757334Y-104417000D01*
X125724000Y-104350333D01*
X125657334Y-104317000D01*
X125490667Y-104317000D01*
X125424000Y-104283667D01*
X125124001Y-104550333D02*
X125057334Y-104583667D01*
X124924001Y-104583667D01*
X124857334Y-104550333D01*
X124824001Y-104483667D01*
X124824001Y-104450333D01*
X124857334Y-104383667D01*
X124924001Y-104350333D01*
X125024001Y-104350333D01*
X125090667Y-104317000D01*
X125124001Y-104250333D01*
X125124001Y-104217000D01*
X125090667Y-104150333D01*
X125024001Y-104117000D01*
X124924001Y-104117000D01*
X124857334Y-104150333D01*
X124624000Y-104117000D02*
X124357334Y-104117000D01*
X124524000Y-103883667D02*
X124524000Y-104483667D01*
X124490667Y-104550333D01*
X124424000Y-104583667D01*
X124357334Y-104583667D01*
X123857334Y-104550333D02*
X123924000Y-104583667D01*
X124057334Y-104583667D01*
X124124000Y-104550333D01*
X124157334Y-104483667D01*
X124157334Y-104217000D01*
X124124000Y-104150333D01*
X124057334Y-104117000D01*
X123924000Y-104117000D01*
X123857334Y-104150333D01*
X123824000Y-104217000D01*
X123824000Y-104283667D01*
X124157334Y-104350333D01*
X123524000Y-104583667D02*
X123524000Y-104117000D01*
X123524000Y-104250333D02*
X123490667Y-104183667D01*
X123457334Y-104150333D01*
X123390667Y-104117000D01*
X123324000Y-104117000D01*
X128457333Y-105038667D02*
X128224000Y-105738667D01*
X127990667Y-105038667D01*
X127490667Y-105705333D02*
X127557333Y-105738667D01*
X127690667Y-105738667D01*
X127757333Y-105705333D01*
X127790667Y-105638667D01*
X127790667Y-105372000D01*
X127757333Y-105305333D01*
X127690667Y-105272000D01*
X127557333Y-105272000D01*
X127490667Y-105305333D01*
X127457333Y-105372000D01*
X127457333Y-105438667D01*
X127790667Y-105505333D01*
X127157333Y-105738667D02*
X127157333Y-105272000D01*
X127157333Y-105405333D02*
X127124000Y-105338667D01*
X127090667Y-105305333D01*
X127024000Y-105272000D01*
X126957333Y-105272000D01*
X126757334Y-105705333D02*
X126690667Y-105738667D01*
X126557334Y-105738667D01*
X126490667Y-105705333D01*
X126457334Y-105638667D01*
X126457334Y-105605333D01*
X126490667Y-105538667D01*
X126557334Y-105505333D01*
X126657334Y-105505333D01*
X126724000Y-105472000D01*
X126757334Y-105405333D01*
X126757334Y-105372000D01*
X126724000Y-105305333D01*
X126657334Y-105272000D01*
X126557334Y-105272000D01*
X126490667Y-105305333D01*
X126157333Y-105738667D02*
X126157333Y-105272000D01*
X126157333Y-105038667D02*
X126190667Y-105072000D01*
X126157333Y-105105333D01*
X126124000Y-105072000D01*
X126157333Y-105038667D01*
X126157333Y-105105333D01*
X125724000Y-105738667D02*
X125790667Y-105705333D01*
X125824000Y-105672000D01*
X125857334Y-105605333D01*
X125857334Y-105405333D01*
X125824000Y-105338667D01*
X125790667Y-105305333D01*
X125724000Y-105272000D01*
X125624000Y-105272000D01*
X125557334Y-105305333D01*
X125524000Y-105338667D01*
X125490667Y-105405333D01*
X125490667Y-105605333D01*
X125524000Y-105672000D01*
X125557334Y-105705333D01*
X125624000Y-105738667D01*
X125724000Y-105738667D01*
X125190667Y-105272000D02*
X125190667Y-105738667D01*
X125190667Y-105338667D02*
X125157334Y-105305333D01*
X125090667Y-105272000D01*
X124990667Y-105272000D01*
X124924001Y-105305333D01*
X124890667Y-105372000D01*
X124890667Y-105738667D01*
X123890668Y-105038667D02*
X123824001Y-105038667D01*
X123757335Y-105072000D01*
X123724001Y-105105333D01*
X123690668Y-105172000D01*
X123657335Y-105305333D01*
X123657335Y-105472000D01*
X123690668Y-105605333D01*
X123724001Y-105672000D01*
X123757335Y-105705333D01*
X123824001Y-105738667D01*
X123890668Y-105738667D01*
X123957335Y-105705333D01*
X123990668Y-105672000D01*
X124024001Y-105605333D01*
X124057335Y-105472000D01*
X124057335Y-105305333D01*
X124024001Y-105172000D01*
X123990668Y-105105333D01*
X123957335Y-105072000D01*
X123890668Y-105038667D01*
X123357334Y-105672000D02*
X123324001Y-105705333D01*
X123357334Y-105738667D01*
X123390668Y-105705333D01*
X123357334Y-105672000D01*
X123357334Y-105738667D01*
X122690668Y-105038667D02*
X123024001Y-105038667D01*
X123057335Y-105372000D01*
X123024001Y-105338667D01*
X122957335Y-105305333D01*
X122790668Y-105305333D01*
X122724001Y-105338667D01*
X122690668Y-105372000D01*
X122657335Y-105438667D01*
X122657335Y-105605333D01*
X122690668Y-105672000D01*
X122724001Y-105705333D01*
X122790668Y-105738667D01*
X122957335Y-105738667D01*
X123024001Y-105705333D01*
X123057335Y-105672000D01*
D12*
G36*
X126512320Y-109042200D02*
X126494540Y-109034580D01*
X126461520Y-109011720D01*
X126410720Y-108978700D01*
X126352300Y-108940600D01*
X126291340Y-108899960D01*
X126243080Y-108866940D01*
X126207520Y-108844080D01*
X126194820Y-108836460D01*
X126187200Y-108839000D01*
X126159260Y-108854240D01*
X126118620Y-108874560D01*
X126093220Y-108887260D01*
X126055120Y-108902500D01*
X126037340Y-108907580D01*
X126034800Y-108902500D01*
X126019560Y-108872020D01*
X125999240Y-108823760D01*
X125971300Y-108757720D01*
X125938280Y-108681520D01*
X125902720Y-108600240D01*
X125869700Y-108516420D01*
X125836680Y-108437680D01*
X125806200Y-108364020D01*
X125783340Y-108305600D01*
X125768100Y-108264960D01*
X125760480Y-108247180D01*
X125763020Y-108244640D01*
X125780800Y-108226860D01*
X125813820Y-108201460D01*
X125884940Y-108143040D01*
X125956060Y-108056680D01*
X125999240Y-107957620D01*
X126011940Y-107845860D01*
X126001780Y-107744260D01*
X125961140Y-107647740D01*
X125892560Y-107558840D01*
X125808740Y-107492800D01*
X125712220Y-107452160D01*
X125603000Y-107439460D01*
X125498860Y-107449620D01*
X125399800Y-107490260D01*
X125310900Y-107556300D01*
X125272800Y-107599480D01*
X125222000Y-107690920D01*
X125191520Y-107784900D01*
X125188980Y-107807760D01*
X125194060Y-107914440D01*
X125224540Y-108016040D01*
X125280420Y-108104940D01*
X125356620Y-108178600D01*
X125366780Y-108186220D01*
X125402340Y-108214160D01*
X125427740Y-108231940D01*
X125445520Y-108247180D01*
X125310900Y-108569760D01*
X125290580Y-108620560D01*
X125252480Y-108709460D01*
X125222000Y-108785660D01*
X125194060Y-108846620D01*
X125176280Y-108887260D01*
X125168660Y-108902500D01*
X125168660Y-108902500D01*
X125155960Y-108905040D01*
X125133100Y-108897420D01*
X125087380Y-108874560D01*
X125056900Y-108859320D01*
X125023880Y-108844080D01*
X125008640Y-108836460D01*
X124993400Y-108844080D01*
X124960380Y-108864400D01*
X124914660Y-108897420D01*
X124856240Y-108935520D01*
X124800360Y-108973620D01*
X124749560Y-109006640D01*
X124714000Y-109032040D01*
X124696220Y-109039660D01*
X124693680Y-109039660D01*
X124675900Y-109032040D01*
X124647960Y-109006640D01*
X124604780Y-108966000D01*
X124541280Y-108905040D01*
X124531120Y-108894880D01*
X124480320Y-108844080D01*
X124439680Y-108798360D01*
X124411740Y-108767880D01*
X124401580Y-108755180D01*
X124401580Y-108755180D01*
X124411740Y-108737400D01*
X124434600Y-108699300D01*
X124467620Y-108648500D01*
X124508260Y-108587540D01*
X124614940Y-108432600D01*
X124556520Y-108287820D01*
X124538740Y-108242100D01*
X124515880Y-108186220D01*
X124498100Y-108148120D01*
X124490480Y-108130340D01*
X124472700Y-108125260D01*
X124434600Y-108115100D01*
X124376180Y-108104940D01*
X124305060Y-108092240D01*
X124239020Y-108079540D01*
X124180600Y-108066840D01*
X124137420Y-108059220D01*
X124117100Y-108056680D01*
X124112020Y-108051600D01*
X124109480Y-108043980D01*
X124106940Y-108023660D01*
X124104400Y-107985560D01*
X124104400Y-107929680D01*
X124104400Y-107845860D01*
X124104400Y-107838240D01*
X124104400Y-107759500D01*
X124106940Y-107696000D01*
X124109480Y-107657900D01*
X124112020Y-107640120D01*
X124112020Y-107640120D01*
X124129800Y-107635040D01*
X124172980Y-107627420D01*
X124231400Y-107614720D01*
X124302520Y-107602020D01*
X124307600Y-107602020D01*
X124378720Y-107586780D01*
X124437140Y-107574080D01*
X124480320Y-107566460D01*
X124498100Y-107558840D01*
X124500640Y-107553760D01*
X124515880Y-107525820D01*
X124536200Y-107482640D01*
X124559060Y-107429300D01*
X124581920Y-107373420D01*
X124602240Y-107322620D01*
X124614940Y-107287060D01*
X124620020Y-107269280D01*
X124620020Y-107269280D01*
X124609860Y-107251500D01*
X124584460Y-107215940D01*
X124548900Y-107165140D01*
X124508260Y-107104180D01*
X124505720Y-107099100D01*
X124465080Y-107038140D01*
X124432060Y-106987340D01*
X124409200Y-106951780D01*
X124401580Y-106936540D01*
X124401580Y-106934000D01*
X124414280Y-106916220D01*
X124444760Y-106883200D01*
X124490480Y-106837480D01*
X124541280Y-106784140D01*
X124559060Y-106768900D01*
X124617480Y-106710480D01*
X124658120Y-106674920D01*
X124683520Y-106654600D01*
X124693680Y-106649520D01*
X124696220Y-106649520D01*
X124714000Y-106659680D01*
X124752100Y-106685080D01*
X124802900Y-106720640D01*
X124863860Y-106761280D01*
X124866400Y-106763820D01*
X124927360Y-106804460D01*
X124978160Y-106840020D01*
X125013720Y-106862880D01*
X125028960Y-106870500D01*
X125031500Y-106870500D01*
X125054360Y-106865420D01*
X125097540Y-106850180D01*
X125150880Y-106829860D01*
X125206760Y-106807000D01*
X125257560Y-106786680D01*
X125293120Y-106768900D01*
X125310900Y-106758740D01*
X125313440Y-106758740D01*
X125318520Y-106735880D01*
X125328680Y-106690160D01*
X125341380Y-106629200D01*
X125356620Y-106555540D01*
X125359160Y-106545380D01*
X125371860Y-106471720D01*
X125382020Y-106413300D01*
X125392180Y-106372660D01*
X125394720Y-106354880D01*
X125404880Y-106354880D01*
X125440440Y-106352340D01*
X125493780Y-106349800D01*
X125559820Y-106349800D01*
X125625860Y-106349800D01*
X125691900Y-106349800D01*
X125747780Y-106352340D01*
X125788420Y-106354880D01*
X125806200Y-106359960D01*
X125806200Y-106359960D01*
X125811280Y-106382820D01*
X125821440Y-106426000D01*
X125834140Y-106489500D01*
X125849380Y-106563160D01*
X125851920Y-106575860D01*
X125864620Y-106646980D01*
X125877320Y-106705400D01*
X125884940Y-106746040D01*
X125890020Y-106761280D01*
X125895100Y-106763820D01*
X125925580Y-106779060D01*
X125973840Y-106796840D01*
X126032260Y-106822240D01*
X126169420Y-106878120D01*
X126337060Y-106761280D01*
X126352300Y-106751120D01*
X126413260Y-106710480D01*
X126464060Y-106677460D01*
X126499620Y-106654600D01*
X126512320Y-106646980D01*
X126514860Y-106646980D01*
X126530100Y-106662220D01*
X126563120Y-106692700D01*
X126608840Y-106738420D01*
X126662180Y-106789220D01*
X126702820Y-106829860D01*
X126748540Y-106875580D01*
X126776480Y-106908600D01*
X126794260Y-106928920D01*
X126799340Y-106941620D01*
X126796800Y-106949240D01*
X126786640Y-106967020D01*
X126761240Y-107002580D01*
X126728220Y-107055920D01*
X126687580Y-107114340D01*
X126652020Y-107165140D01*
X126616460Y-107221020D01*
X126593600Y-107261660D01*
X126583440Y-107279440D01*
X126585980Y-107289600D01*
X126598680Y-107322620D01*
X126619000Y-107370880D01*
X126644400Y-107431840D01*
X126702820Y-107563920D01*
X126789180Y-107581700D01*
X126842520Y-107591860D01*
X126916180Y-107604560D01*
X126987300Y-107619800D01*
X127099060Y-107640120D01*
X127101600Y-108043980D01*
X127083820Y-108051600D01*
X127068580Y-108056680D01*
X127027940Y-108066840D01*
X126969520Y-108077000D01*
X126900940Y-108089700D01*
X126839980Y-108102400D01*
X126781560Y-108112560D01*
X126738380Y-108120180D01*
X126720600Y-108125260D01*
X126715520Y-108130340D01*
X126700280Y-108160820D01*
X126679960Y-108206540D01*
X126657100Y-108259880D01*
X126631700Y-108318300D01*
X126611380Y-108369100D01*
X126596140Y-108409740D01*
X126591060Y-108430060D01*
X126598680Y-108445300D01*
X126621540Y-108480860D01*
X126654560Y-108531660D01*
X126695200Y-108590080D01*
X126735840Y-108648500D01*
X126768860Y-108699300D01*
X126794260Y-108734860D01*
X126801880Y-108752640D01*
X126796800Y-108762800D01*
X126773940Y-108790740D01*
X126730760Y-108836460D01*
X126664720Y-108902500D01*
X126652020Y-108912660D01*
X126601220Y-108963460D01*
X126555500Y-109004100D01*
X126525020Y-109032040D01*
X126512320Y-109042200D01*
X126512320Y-109042200D01*
G37*
X126512320Y-109042200D02*
X126494540Y-109034580D01*
X126461520Y-109011720D01*
X126410720Y-108978700D01*
X126352300Y-108940600D01*
X126291340Y-108899960D01*
X126243080Y-108866940D01*
X126207520Y-108844080D01*
X126194820Y-108836460D01*
X126187200Y-108839000D01*
X126159260Y-108854240D01*
X126118620Y-108874560D01*
X126093220Y-108887260D01*
X126055120Y-108902500D01*
X126037340Y-108907580D01*
X126034800Y-108902500D01*
X126019560Y-108872020D01*
X125999240Y-108823760D01*
X125971300Y-108757720D01*
X125938280Y-108681520D01*
X125902720Y-108600240D01*
X125869700Y-108516420D01*
X125836680Y-108437680D01*
X125806200Y-108364020D01*
X125783340Y-108305600D01*
X125768100Y-108264960D01*
X125760480Y-108247180D01*
X125763020Y-108244640D01*
X125780800Y-108226860D01*
X125813820Y-108201460D01*
X125884940Y-108143040D01*
X125956060Y-108056680D01*
X125999240Y-107957620D01*
X126011940Y-107845860D01*
X126001780Y-107744260D01*
X125961140Y-107647740D01*
X125892560Y-107558840D01*
X125808740Y-107492800D01*
X125712220Y-107452160D01*
X125603000Y-107439460D01*
X125498860Y-107449620D01*
X125399800Y-107490260D01*
X125310900Y-107556300D01*
X125272800Y-107599480D01*
X125222000Y-107690920D01*
X125191520Y-107784900D01*
X125188980Y-107807760D01*
X125194060Y-107914440D01*
X125224540Y-108016040D01*
X125280420Y-108104940D01*
X125356620Y-108178600D01*
X125366780Y-108186220D01*
X125402340Y-108214160D01*
X125427740Y-108231940D01*
X125445520Y-108247180D01*
X125310900Y-108569760D01*
X125290580Y-108620560D01*
X125252480Y-108709460D01*
X125222000Y-108785660D01*
X125194060Y-108846620D01*
X125176280Y-108887260D01*
X125168660Y-108902500D01*
X125168660Y-108902500D01*
X125155960Y-108905040D01*
X125133100Y-108897420D01*
X125087380Y-108874560D01*
X125056900Y-108859320D01*
X125023880Y-108844080D01*
X125008640Y-108836460D01*
X124993400Y-108844080D01*
X124960380Y-108864400D01*
X124914660Y-108897420D01*
X124856240Y-108935520D01*
X124800360Y-108973620D01*
X124749560Y-109006640D01*
X124714000Y-109032040D01*
X124696220Y-109039660D01*
X124693680Y-109039660D01*
X124675900Y-109032040D01*
X124647960Y-109006640D01*
X124604780Y-108966000D01*
X124541280Y-108905040D01*
X124531120Y-108894880D01*
X124480320Y-108844080D01*
X124439680Y-108798360D01*
X124411740Y-108767880D01*
X124401580Y-108755180D01*
X124401580Y-108755180D01*
X124411740Y-108737400D01*
X124434600Y-108699300D01*
X124467620Y-108648500D01*
X124508260Y-108587540D01*
X124614940Y-108432600D01*
X124556520Y-108287820D01*
X124538740Y-108242100D01*
X124515880Y-108186220D01*
X124498100Y-108148120D01*
X124490480Y-108130340D01*
X124472700Y-108125260D01*
X124434600Y-108115100D01*
X124376180Y-108104940D01*
X124305060Y-108092240D01*
X124239020Y-108079540D01*
X124180600Y-108066840D01*
X124137420Y-108059220D01*
X124117100Y-108056680D01*
X124112020Y-108051600D01*
X124109480Y-108043980D01*
X124106940Y-108023660D01*
X124104400Y-107985560D01*
X124104400Y-107929680D01*
X124104400Y-107845860D01*
X124104400Y-107838240D01*
X124104400Y-107759500D01*
X124106940Y-107696000D01*
X124109480Y-107657900D01*
X124112020Y-107640120D01*
X124112020Y-107640120D01*
X124129800Y-107635040D01*
X124172980Y-107627420D01*
X124231400Y-107614720D01*
X124302520Y-107602020D01*
X124307600Y-107602020D01*
X124378720Y-107586780D01*
X124437140Y-107574080D01*
X124480320Y-107566460D01*
X124498100Y-107558840D01*
X124500640Y-107553760D01*
X124515880Y-107525820D01*
X124536200Y-107482640D01*
X124559060Y-107429300D01*
X124581920Y-107373420D01*
X124602240Y-107322620D01*
X124614940Y-107287060D01*
X124620020Y-107269280D01*
X124620020Y-107269280D01*
X124609860Y-107251500D01*
X124584460Y-107215940D01*
X124548900Y-107165140D01*
X124508260Y-107104180D01*
X124505720Y-107099100D01*
X124465080Y-107038140D01*
X124432060Y-106987340D01*
X124409200Y-106951780D01*
X124401580Y-106936540D01*
X124401580Y-106934000D01*
X124414280Y-106916220D01*
X124444760Y-106883200D01*
X124490480Y-106837480D01*
X124541280Y-106784140D01*
X124559060Y-106768900D01*
X124617480Y-106710480D01*
X124658120Y-106674920D01*
X124683520Y-106654600D01*
X124693680Y-106649520D01*
X124696220Y-106649520D01*
X124714000Y-106659680D01*
X124752100Y-106685080D01*
X124802900Y-106720640D01*
X124863860Y-106761280D01*
X124866400Y-106763820D01*
X124927360Y-106804460D01*
X124978160Y-106840020D01*
X125013720Y-106862880D01*
X125028960Y-106870500D01*
X125031500Y-106870500D01*
X125054360Y-106865420D01*
X125097540Y-106850180D01*
X125150880Y-106829860D01*
X125206760Y-106807000D01*
X125257560Y-106786680D01*
X125293120Y-106768900D01*
X125310900Y-106758740D01*
X125313440Y-106758740D01*
X125318520Y-106735880D01*
X125328680Y-106690160D01*
X125341380Y-106629200D01*
X125356620Y-106555540D01*
X125359160Y-106545380D01*
X125371860Y-106471720D01*
X125382020Y-106413300D01*
X125392180Y-106372660D01*
X125394720Y-106354880D01*
X125404880Y-106354880D01*
X125440440Y-106352340D01*
X125493780Y-106349800D01*
X125559820Y-106349800D01*
X125625860Y-106349800D01*
X125691900Y-106349800D01*
X125747780Y-106352340D01*
X125788420Y-106354880D01*
X125806200Y-106359960D01*
X125806200Y-106359960D01*
X125811280Y-106382820D01*
X125821440Y-106426000D01*
X125834140Y-106489500D01*
X125849380Y-106563160D01*
X125851920Y-106575860D01*
X125864620Y-106646980D01*
X125877320Y-106705400D01*
X125884940Y-106746040D01*
X125890020Y-106761280D01*
X125895100Y-106763820D01*
X125925580Y-106779060D01*
X125973840Y-106796840D01*
X126032260Y-106822240D01*
X126169420Y-106878120D01*
X126337060Y-106761280D01*
X126352300Y-106751120D01*
X126413260Y-106710480D01*
X126464060Y-106677460D01*
X126499620Y-106654600D01*
X126512320Y-106646980D01*
X126514860Y-106646980D01*
X126530100Y-106662220D01*
X126563120Y-106692700D01*
X126608840Y-106738420D01*
X126662180Y-106789220D01*
X126702820Y-106829860D01*
X126748540Y-106875580D01*
X126776480Y-106908600D01*
X126794260Y-106928920D01*
X126799340Y-106941620D01*
X126796800Y-106949240D01*
X126786640Y-106967020D01*
X126761240Y-107002580D01*
X126728220Y-107055920D01*
X126687580Y-107114340D01*
X126652020Y-107165140D01*
X126616460Y-107221020D01*
X126593600Y-107261660D01*
X126583440Y-107279440D01*
X126585980Y-107289600D01*
X126598680Y-107322620D01*
X126619000Y-107370880D01*
X126644400Y-107431840D01*
X126702820Y-107563920D01*
X126789180Y-107581700D01*
X126842520Y-107591860D01*
X126916180Y-107604560D01*
X126987300Y-107619800D01*
X127099060Y-107640120D01*
X127101600Y-108043980D01*
X127083820Y-108051600D01*
X127068580Y-108056680D01*
X127027940Y-108066840D01*
X126969520Y-108077000D01*
X126900940Y-108089700D01*
X126839980Y-108102400D01*
X126781560Y-108112560D01*
X126738380Y-108120180D01*
X126720600Y-108125260D01*
X126715520Y-108130340D01*
X126700280Y-108160820D01*
X126679960Y-108206540D01*
X126657100Y-108259880D01*
X126631700Y-108318300D01*
X126611380Y-108369100D01*
X126596140Y-108409740D01*
X126591060Y-108430060D01*
X126598680Y-108445300D01*
X126621540Y-108480860D01*
X126654560Y-108531660D01*
X126695200Y-108590080D01*
X126735840Y-108648500D01*
X126768860Y-108699300D01*
X126794260Y-108734860D01*
X126801880Y-108752640D01*
X126796800Y-108762800D01*
X126773940Y-108790740D01*
X126730760Y-108836460D01*
X126664720Y-108902500D01*
X126652020Y-108912660D01*
X126601220Y-108963460D01*
X126555500Y-109004100D01*
X126525020Y-109032040D01*
X126512320Y-109042200D01*
D13*
X136461500Y-100572000D03*
X136461500Y-99072000D03*
D14*
X115951000Y-105410000D03*
D15*
X113411000Y-105410000D03*
X115951000Y-102870000D03*
X113411000Y-102870000D03*
X115951000Y-100330000D03*
X113411000Y-100330000D03*
D16*
X143256000Y-111252000D03*
D17*
X145796000Y-111252000D03*
X148336000Y-111252000D03*
X150876000Y-111252000D03*
X153416000Y-111252000D03*
X155956000Y-111252000D03*
D18*
X155382000Y-107426760D03*
X153482000Y-107426760D03*
X154432000Y-105427780D03*
D19*
X138303000Y-104406000D03*
X138303000Y-105906000D03*
X127000000Y-93968000D03*
X127000000Y-92468000D03*
X151460200Y-103935400D03*
X151460200Y-105435400D03*
D20*
X118733000Y-94107000D03*
X117233000Y-94107000D03*
D19*
X122174000Y-90793000D03*
X122174000Y-89293000D03*
X128524000Y-87491000D03*
X128524000Y-85991000D03*
X135940800Y-85713000D03*
X135940800Y-84213000D03*
X142527013Y-87491000D03*
X142527013Y-85991000D03*
D21*
X136474200Y-108178600D03*
X135204200Y-108178600D03*
X133934200Y-108178600D03*
X132664200Y-108178600D03*
X132664200Y-102778600D03*
X133934200Y-102778600D03*
X135204200Y-102778600D03*
X136474200Y-102778600D03*
D16*
X132842000Y-111252000D03*
D17*
X135382000Y-111252000D03*
X137922000Y-111252000D03*
D19*
X147828000Y-90793000D03*
X147828000Y-89293000D03*
D20*
X151142000Y-96520000D03*
X152642000Y-96520000D03*
D22*
X143230600Y-98958400D03*
D23*
X143230600Y-105562400D03*
X140944600Y-105562400D03*
X145516600Y-105562400D03*
D13*
X147955000Y-102120000D03*
X147955000Y-103620000D03*
D16*
X122682000Y-111252000D03*
D17*
X125222000Y-111252000D03*
X127762000Y-111252000D03*
D10*
G36*
X126381657Y-84762929D02*
X124811746Y-85413208D01*
X124161467Y-83843297D01*
X125731378Y-83193018D01*
X126381657Y-84762929D01*
X126381657Y-84762929D01*
G37*
D24*
X127618216Y-83331097D03*
D25*
X133374060Y-82092800D03*
D24*
X135914060Y-82092800D03*
D10*
G36*
X142114378Y-84370782D02*
X140544467Y-83720503D01*
X141194746Y-82150592D01*
X142764657Y-82800871D01*
X142114378Y-84370782D01*
X142114378Y-84370782D01*
G37*
D24*
X144001216Y-84232703D03*
D10*
G36*
X148902148Y-88661106D02*
X147700590Y-87459548D01*
X148902148Y-86257990D01*
X150103706Y-87459548D01*
X148902148Y-88661106D01*
X148902148Y-88661106D01*
G37*
D24*
X150698200Y-89255600D03*
D10*
G36*
X153508168Y-95283441D02*
X152857889Y-93713530D01*
X154427800Y-93063251D01*
X155078079Y-94633162D01*
X153508168Y-95283441D01*
X153508168Y-95283441D01*
G37*
D24*
X154940000Y-96520000D03*
D10*
G36*
X119767810Y-89332748D02*
X118566252Y-90534306D01*
X117364694Y-89332748D01*
X118566252Y-88131190D01*
X119767810Y-89332748D01*
X119767810Y-89332748D01*
G37*
D24*
X120362304Y-87536696D03*
D10*
G36*
X115409582Y-96010622D02*
X114759303Y-97580533D01*
X113189392Y-96930254D01*
X113839671Y-95360343D01*
X115409582Y-96010622D01*
X115409582Y-96010622D01*
G37*
D24*
X115271503Y-94123784D03*
D26*
X114808000Y-108966000D03*
D27*
X114808000Y-111506000D03*
D15*
X121793000Y-100584000D03*
X124333000Y-100584000D03*
X121793000Y-98044000D03*
X124333000Y-98044000D03*
X121793000Y-95504000D03*
X124333000Y-95504000D03*
D14*
X121793000Y-92964000D03*
D15*
X124333000Y-92964000D03*
M02*
